<svg width="40" height="36" viewBox="0 0 40 36" fill="none" xmlns="http://www.w3.org/2000/svg">
<ellipse cx="19.5" cy="32.5" rx="7.5" ry="3.5" fill="#454545"/>
<path fill-rule="evenodd" clip-rule="evenodd" d="M19.7701 0C21.1688 0 22.3301 1.24618 22.555 2.88207C26.2828 3.54277 32.4195 6.93476 32.9392 16.6154C33.5041 27.1385 37.8818 29.7693 40 29.7693L39.9838 29.7725L39.954 29.7829C37.1053 31.172 28.2201 33.9231 21.1825 33.9231C21.1473 33.9231 21.1167 33.9127 21.0903 33.8929C20.6436 33.9127 20.2031 33.9231 19.7703 33.9231C12.427 33.9231 3.05968 30.9231 0 29.7693C2.11824 29.7693 6.49595 27.1385 7.06081 16.6154C7.55908 7.33306 13.2217 3.83253 16.9732 2.97774C17.1652 1.29501 18.3442 0 19.7701 0Z" fill="#FBC02D"/>
</svg>
