<svg width="30" height="50" viewBox="0 0 30 50" fill="none" xmlns="http://www.w3.org/2000/svg">
<path fill-rule="evenodd" clip-rule="evenodd" d="M15.9124 0.601861C15.7138 0.312075 15.2862 0.312075 15.0876 0.601861L12.2501 4.74201C12.1851 4.83687 12.0894 4.90643 11.9791 4.93894L7.16475 6.35812C6.82778 6.45745 6.69562 6.86419 6.90985 7.14262L9.97055 11.1205C10.0407 11.2117 10.0773 11.3242 10.0741 11.4392L9.9361 16.4564C9.92644 16.8076 10.2724 17.059 10.6034 16.9413L15.3325 15.2596C15.4408 15.2211 15.5592 15.2211 15.6675 15.2596L20.3966 16.9413C20.7276 17.059 21.0736 16.8076 21.0639 16.4564L20.9259 11.4392C20.9227 11.3242 20.9593 11.2117 21.0294 11.1205L24.0901 7.14262C24.3044 6.86419 24.1722 6.45745 23.8352 6.35812L19.0209 4.93894C18.9106 4.90643 18.8149 4.83687 18.7499 4.74201L15.9124 0.601861ZM4.75011 27.0721C4.43594 26.3701 4.25205 25.6436 4.25205 24.9458C4.25205 22.0099 7.50703 21.4019 10.0234 21.4019C11.5955 21.4019 13.1002 22.8841 14.0081 24.7123C14.2807 24.6366 14.5739 24.5914 14.8841 24.5914C15.1941 24.5914 15.4873 24.6366 15.7597 24.7122C16.6676 22.884 18.1723 21.4019 19.7444 21.4019C22.2608 21.4019 25.5158 22.0099 25.5158 24.9458C25.5158 25.6436 25.3319 26.3701 25.0177 27.0721H29.3549C29.631 27.0721 29.8549 27.296 29.8549 27.5721V34.7786C29.8549 35.0547 29.631 35.2786 29.3549 35.2786H28.4376V49.5001C28.4376 49.7763 28.2137 50.0001 27.9376 50.0001H1.91774C1.64159 50.0001 1.41774 49.7763 1.41774 49.5001V35.2786H0.499999C0.223857 35.2786 0 35.0547 0 34.7786V27.5721C0 27.296 0.223858 27.0721 0.5 27.0721H4.75011ZM22.5909 25.4785C22.5909 26.009 22.3322 26.574 21.9345 27.0721H16.6469C16.6462 27.0508 16.6459 27.0292 16.6459 27.0072C16.6459 25.6001 17.9565 23.7799 19.3636 23.7799C20.7707 23.7799 22.5909 24.0714 22.5909 25.4785ZM13.0789 27.0072C13.0789 27.0292 13.0786 27.0508 13.078 27.0721H7.79034C7.39264 26.574 7.13396 26.009 7.13396 25.4785C7.13396 24.0714 8.9541 23.7799 10.3612 23.7799C11.7684 23.7799 13.0789 25.6001 13.0789 27.0072Z" fill="white"/>
</svg>
