<svg width="50" height="41" viewBox="0 0 50 41" fill="none" xmlns="http://www.w3.org/2000/svg">
<path fill-rule="evenodd" clip-rule="evenodd" d="M35.3771 0L8.84426 10.3183V10.3184H4.42213V13.2666H0V26.533H4.42214L4.42213 29.481H8.59575L12.9079 40.9069L19.7916 40.7622L16.0637 30.6842L35.3771 33.9031V33.8507C37.4547 33.7385 39.1304 26.7771 39.1304 17.5477C39.1304 8.31836 37.4547 0.287602 35.3771 0.158026V0ZM43.4783 16.4608C43.4783 16.1606 43.7216 15.9173 44.0217 15.9173H49.4565C49.7567 15.9173 50 16.1606 50 16.4608C50 16.7609 49.7567 17.0043 49.4565 17.0043H44.0217C43.7216 17.0043 43.4783 16.7609 43.4783 16.4608ZM41.9003 5.21663C41.5712 5.44278 41.4877 5.89295 41.7138 6.22212C41.94 6.55128 42.3902 6.63478 42.7193 6.40863L47.1153 3.38832C47.4445 3.16216 47.528 2.71199 47.3019 2.38283C47.0757 2.05367 46.6255 1.97016 46.2964 2.19631L41.9003 5.21663ZM41.7138 26.296C41.4877 26.6251 41.5712 27.0753 41.9003 27.3014L46.2964 30.3218C46.6255 30.5479 47.0757 30.4644 47.3019 30.1352C47.528 29.8061 47.4445 29.3559 47.1153 29.1298L42.7193 26.1094C42.3902 25.8833 41.94 25.9668 41.7138 26.296Z" fill="white"/>
</svg>
