<svg width="50" height="43" viewBox="0 0 50 43" fill="none" xmlns="http://www.w3.org/2000/svg">
<path d="M26.0167 0.356162C25.7224 0.125483 25.3584 0 24.9833 0C24.6083 0 24.2442 0.125483 23.95 0.356162L0 18.8919L2.06667 21.5045L5 19.2226V39.693C5 40.5701 5.35119 41.4112 5.97631 42.0314C6.60143 42.6516 7.44928 43 8.33333 43H41.6667C42.5507 43 43.3986 42.6516 44.0237 42.0314C44.6488 41.4112 45 40.5701 45 39.693V19.2392L47.9333 21.5045L50 18.9085L26.0167 0.356162ZM28.3333 39.693H21.6667V26.465H28.3333V39.693ZM31.6667 39.693V26.465C31.6667 25.5879 31.3155 24.7467 30.6904 24.1266C30.0652 23.5064 29.2174 23.158 28.3333 23.158H21.6667C20.7826 23.158 19.9348 23.5064 19.3096 24.1266C18.6845 24.7467 18.3333 25.5879 18.3333 26.465V39.693H8.33333V16.6432L25 3.76238L41.6667 16.6597V39.693H31.6667Z" fill="white"/>
</svg>
