<svg width="53" height="41" viewBox="0 0 53 41" fill="none" xmlns="http://www.w3.org/2000/svg">
<path d="M11.6431 29.1946H5.82591C5.59495 29.1946 5.37345 29.0931 5.21014 28.9124C5.04683 28.7317 4.95508 28.4866 4.95508 28.231V14.0555C4.95508 13.7999 5.04683 13.5548 5.21014 13.374C5.37345 13.1933 5.59495 13.0918 5.82591 13.0918H11.6431C11.874 13.0918 12.0955 13.1933 12.2589 13.374C12.4222 13.5548 12.5139 13.7999 12.5139 14.0555V28.231C12.5139 28.4866 12.4222 28.7317 12.2589 28.9124C12.0955 29.0931 11.874 29.1946 11.6431 29.1946V29.1946ZM6.69675 27.2673H10.7722V15.0191H6.69675V27.2673Z" fill="white"/>
<path d="M35.2075 34.3506H29.3904C29.1594 34.3506 28.9379 34.2491 28.7746 34.0684C28.6113 33.8877 28.5195 33.6425 28.5195 33.387V5.03593C28.5195 4.78035 28.6113 4.53524 28.7746 4.35452C28.9379 4.17379 29.1594 4.07227 29.3904 4.07227H35.2075C35.4385 4.07227 35.66 4.17379 35.8233 4.35452C35.9866 4.53524 36.0784 4.78035 36.0784 5.03593V33.387C36.0784 33.6425 35.9866 33.8877 35.8233 34.0684C35.66 34.2491 35.4385 34.3506 35.2075 34.3506ZM30.2612 32.4233H34.3367V5.9996H30.2612V32.4233Z" fill="white"/>
<path d="M29.3903 34.3503C29.3151 34.3597 29.2392 34.3597 29.1639 34.3503L11.425 29.1658C11.2334 29.1111 11.0644 28.9859 10.9457 28.8108C10.8269 28.6356 10.7657 28.4209 10.7719 28.2021V14.0555C10.7715 13.8712 10.8189 13.6906 10.9084 13.5352C10.9979 13.3797 11.1258 13.256 11.277 13.1785L29.0246 4.15864C29.1623 4.08408 29.3153 4.05106 29.4682 4.0629C29.6211 4.07474 29.7685 4.13104 29.8954 4.2261C30.0181 4.31317 30.119 4.4329 30.189 4.57432C30.259 4.71574 30.2958 4.87434 30.296 5.03558V33.3866C30.2957 33.5338 30.2649 33.6789 30.206 33.8109C30.1472 33.9428 30.0618 34.0581 29.9564 34.1479C29.795 34.2868 29.5946 34.3584 29.3903 34.3503V34.3503ZM12.5136 27.489L28.5195 32.1338V6.5389L12.5136 14.6722V27.489Z" fill="white"/>
<path d="M35.2077 27.9036C34.9768 27.9036 34.7553 27.8021 34.592 27.6214C34.4287 27.4407 34.3369 27.1955 34.3369 26.94V12.7644C34.3369 12.5089 34.4287 12.2638 34.592 12.083C34.7553 11.9023 34.9768 11.8008 35.2077 11.8008C36.9831 11.8033 38.6851 12.5849 39.9405 13.9741C41.1959 15.3633 41.9022 17.2467 41.9045 19.2114V20.5027C41.9022 22.4664 41.1956 24.3489 39.94 25.7365C38.6843 27.1242 36.9823 27.9036 35.2077 27.9036V27.9036ZM36.0786 13.8148V25.8992C37.2219 25.6695 38.2564 25.004 39.0025 24.0182C39.7486 23.0324 40.1591 21.7885 40.1628 20.5027V19.2114C40.1591 17.9255 39.7486 16.6817 39.0025 15.6959C38.2564 14.7101 37.2219 14.0445 36.0786 13.8148V13.8148Z" fill="white"/>
<path d="M15.1347 40.7971H10.4757C10.2779 40.804 10.0839 40.7362 9.92566 40.6049C9.76737 40.4735 9.65423 40.2864 9.60487 40.0744L6.91399 28.5104C6.87473 28.3847 6.85941 28.2514 6.86898 28.1188C6.87855 27.9863 6.91281 27.8573 6.96961 27.7401C7.0264 27.6229 7.1045 27.52 7.19899 27.4379C7.29348 27.3557 7.40232 27.2961 7.51865 27.2627C7.63498 27.2294 7.75629 27.223 7.87495 27.2441C7.99361 27.2651 8.10704 27.3131 8.20811 27.3851C8.30919 27.457 8.39571 27.5513 8.46224 27.6621C8.52877 27.7728 8.57387 27.8976 8.5947 28.0285L11.1201 38.9083H13.9765L11.6078 28.4718C11.5685 28.3462 11.5532 28.2128 11.5628 28.0803C11.5723 27.9477 11.6066 27.8188 11.6634 27.7016C11.7202 27.5844 11.7983 27.4815 11.8928 27.3993C11.9873 27.3171 12.0961 27.2575 12.2124 27.2242C12.3288 27.1908 12.4501 27.1845 12.5687 27.2055C12.6874 27.2266 12.8008 27.2746 12.9019 27.3465C13.003 27.4185 13.0895 27.5128 13.156 27.6235C13.2226 27.7342 13.2677 27.859 13.2885 27.99L15.9794 39.554C16.012 39.6962 16.0148 39.8448 15.9877 39.9884C15.9605 40.1321 15.904 40.2669 15.8226 40.3827C15.7452 40.5065 15.6426 40.6084 15.5231 40.6803C15.4036 40.7523 15.2706 40.7923 15.1347 40.7971Z" fill="white"/>
<path d="M5.82588 26.622H0.870834C0.639874 26.622 0.418374 26.5205 0.255061 26.3398C0.0917483 26.1591 0 25.914 0 25.6584V16.6385C0 16.3829 0.0917483 16.1378 0.255061 15.9571C0.418374 15.7763 0.639874 15.6748 0.870834 15.6748H5.82588C6.05684 15.6748 6.27834 15.7763 6.44165 15.9571C6.60496 16.1378 6.69671 16.3829 6.69671 16.6385C6.69671 16.894 6.60496 17.1392 6.44165 17.3199C6.27834 17.5006 6.05684 17.6021 5.82588 17.6021H1.74167V24.6947H5.82588C6.05684 24.6947 6.27834 24.7962 6.44165 24.977C6.60496 25.1577 6.69671 25.4028 6.69671 25.6584C6.69671 25.914 6.60496 26.1591 6.44165 26.3398C6.27834 26.5205 6.05684 26.622 5.82588 26.622Z" fill="white"/>
<path d="M44.2729 7.30053C44.1583 7.30127 44.0447 7.27696 43.9386 7.229C43.8325 7.18105 43.736 7.11038 43.6546 7.02107C43.4924 6.84052 43.4014 6.59627 43.4014 6.34169C43.4014 6.0871 43.4924 5.84286 43.6546 5.6623L48.5139 0.285051C48.5948 0.194728 48.6911 0.123037 48.7972 0.0741128C48.9034 0.0251887 49.0172 0 49.1321 0C49.2471 0 49.3609 0.0251887 49.467 0.0741128C49.5732 0.123037 49.6695 0.194728 49.7504 0.285051C49.9126 0.465605 50.0037 0.709848 50.0037 0.964434C50.0037 1.21902 49.9126 1.46326 49.7504 1.64382L44.8912 7.02107C44.8098 7.11038 44.7133 7.18105 44.6072 7.229C44.5011 7.27696 44.3875 7.30127 44.2729 7.30053Z" fill="white"/>
<path d="M49.1321 39.6697C49.0175 39.6704 48.9039 39.6461 48.7978 39.5981C48.6917 39.5502 48.5952 39.4795 48.5139 39.3902L43.6546 34.013C43.4924 33.8324 43.4014 33.5882 43.4014 33.3336C43.4014 33.079 43.4924 32.8347 43.6546 32.6542C43.7356 32.5639 43.8319 32.4922 43.938 32.4433C44.0441 32.3943 44.1579 32.3691 44.2729 32.3691C44.3879 32.3691 44.5017 32.3943 44.6078 32.4433C44.7139 32.4922 44.8102 32.5639 44.8912 32.6542L49.7504 38.0314C49.9126 38.212 50.0037 38.4562 50.0037 38.7108C50.0037 38.9654 49.9126 39.2097 49.7504 39.3902C49.6691 39.4795 49.5726 39.5502 49.4665 39.5981C49.3604 39.6461 49.2468 39.6704 49.1321 39.6697Z" fill="white"/>
<path d="M51.3792 20.4449H44.2732C44.0422 20.4449 43.8207 20.3434 43.6574 20.1627C43.4941 19.9819 43.4023 19.7368 43.4023 19.4812C43.4023 19.2257 43.4941 18.9806 43.6574 18.7998C43.8207 18.6191 44.0422 18.5176 44.2732 18.5176H51.3792C51.6101 18.5176 51.8316 18.6191 51.995 18.7998C52.1583 18.9806 52.25 19.2257 52.25 19.4812C52.25 19.7368 52.1583 19.9819 51.995 20.1627C51.8316 20.3434 51.6101 20.4449 51.3792 20.4449Z" fill="white"/>
</svg>
