<svg width="46" height="46" viewBox="0 0 46 46" fill="none" xmlns="http://www.w3.org/2000/svg">
<path d="M19.1663 34.4997C22.5684 34.499 25.8724 33.3601 28.5523 31.2643L36.9779 39.69L39.6881 36.9798L31.2624 28.5542C33.3593 25.874 34.4989 22.5693 34.4997 19.1663C34.4997 10.7119 27.6208 3.83301 19.1663 3.83301C10.7119 3.83301 3.83301 10.7119 3.83301 19.1663C3.83301 27.6208 10.7119 34.4997 19.1663 34.4997ZM19.1663 7.66634C25.5086 7.66634 30.6663 12.8241 30.6663 19.1663C30.6663 25.5086 25.5086 30.6663 19.1663 30.6663C12.8241 30.6663 7.66634 25.5086 7.66634 19.1663C7.66634 12.8241 12.8241 7.66634 19.1663 7.66634Z" fill="white"/>
</svg>
