<svg width="495" height="192" viewBox="0 0 495 192" fill="none" xmlns="http://www.w3.org/2000/svg">
<path d="M111.035 0H455C477.091 0 495 17.9086 495 40V151C495 173.091 477.091 191 455 191H7L111.035 0Z" fill="#BDE6FD"/>
<mask id="mask0" mask-type="alpha" maskUnits="userSpaceOnUse" x="7" y="0" width="488" height="191">
<path d="M111.035 0H455C477.091 0 495 17.9086 495 40V151C495 173.091 477.091 191 455 191H7L111.035 0Z" fill="#7ED6FC"/>
</mask>
<g mask="url(#mask0)">
<rect x="101" width="418" height="197" fill="white"/>
<path d="M53 59.1428H128V79.5C128 100.211 111.211 117 90.5 117C69.7893 117 53 100.211 53 79.5V59.1428Z" fill="#EF8484"/>
<path d="M128 59.1428H204V79C204 99.9868 186.987 117 166 117C145.013 117 128 99.9868 128 79V59.1428Z" fill="#EFECAB"/>
<path d="M204 59.1428H275V81.5C275 101.106 259.106 117 239.5 117C219.894 117 204 101.106 204 81.5V59.1428Z" fill="#EF8484"/>
<path d="M275 59.1428H346V81.5C346 101.106 330.106 117 310.5 117C290.894 117 275 101.106 275 81.5V59.1428Z" fill="#EFECAB"/>
<path d="M346 59.1428H423V78.5C423 99.7629 405.763 117 384.5 117C363.237 117 346 99.7629 346 78.5V59.1428Z" fill="#EF8484"/>
<path d="M423 59.1428H495V81C495 100.882 478.882 117 459 117C439.118 117 423 100.882 423 81V59.1428Z" fill="#EFECAB"/>
<path d="M169.5 0H232.5L203.851 59.1429H128L169.5 0Z" fill="#FEFBB5"/>
<path d="M232.5 0H272.5L275 59.1429H204L232.5 0Z" fill="#FF9797"/>
<path d="M272 0H308L346.5 59.1429H275L272 0Z" fill="#FEFBB5"/>
<path d="M308 0H365L423.5 59.1429H346L308 0Z" fill="#FF9797"/>
<path d="M429.5 0H514L572.5 59.1429H495L429.5 0Z" fill="#FF9797"/>
<path d="M364.5 0H429.5L495 59.1429H423L364.5 0Z" fill="#FEFBB5"/>
<path d="M96.5 0H169.5L128 59.1429H53L96.5 0Z" fill="#FF9797"/>
</g>
<line x1="103.203" y1="0.677412" x2="0.677412" y2="190.797" stroke="#BDE6FD" stroke-linecap="round"/>
</svg>
