<svg width="60" height="60" viewBox="0 0 60 60" fill="none" xmlns="http://www.w3.org/2000/svg">
<circle cx="30" cy="30" r="30" fill="#4CB9B2"/>
<path d="M38.2269 20.941C36.4866 17.9924 34.0159 15.5419 31.0531 13.8259L30.526 13.521L29.9989 13.8259C26.9857 15.5648 24.4837 18.0667 22.7445 21.0798C21.0053 24.0929 20.0904 27.5108 20.0918 30.9898C20.0918 31.2165 20.0957 31.4467 20.1034 31.674C20.2082 34.7567 21.3871 37.3505 23.5127 39.1752C25.1392 40.5716 27.2257 41.424 29.4736 41.6274V45.2634H31.5789V28.4213H29.4734V39.5086C25.9165 39.0966 22.3765 36.584 22.2073 31.6024C22.2004 31.3988 22.1968 31.1927 22.1968 30.9898C22.2031 27.9858 22.9703 25.0324 24.4268 22.4051C25.8833 19.7779 27.9816 17.5624 30.526 15.9655C33.0703 17.5625 35.1687 19.7779 36.6251 22.4052C38.0816 25.0324 38.8487 27.9859 38.855 30.9898C38.855 31.1927 38.8514 31.3988 38.8444 31.6025C38.7092 35.5876 36.4163 37.9924 33.6836 39.0062V41.2343C35.1017 40.8324 36.4167 40.1301 37.5394 39.1751C39.665 37.3504 40.8438 34.7565 40.9486 31.674C40.9563 31.4466 40.9602 31.2164 40.9602 30.9897C40.9621 27.4563 40.0183 23.9867 38.2269 20.941Z" fill="white"/>
</svg>
