<svg width="219" height="219" viewBox="0 0 219 219" fill="none" xmlns="http://www.w3.org/2000/svg">
<circle cx="109.5" cy="109.5" r="109.5" fill="url(#paint0_radial)"/>
<circle cx="109.5" cy="109.5" r="87.5" fill="white"/>
<path d="M18 49.6879L36.705 62C54.453 32.8028 89.05 23.4515 105 21.9858V0C58.02 1.31915 27.135 33.8582 18 49.6879Z" fill="#F5F4F4"/>
<path d="M87.0391 147.988V154H83.5234V136.938H90.1797C91.4609 136.938 92.5859 137.172 93.5547 137.641C94.5312 138.109 95.2812 138.777 95.8047 139.645C96.3281 140.504 96.5898 141.484 96.5898 142.586C96.5898 144.258 96.0156 145.578 94.8672 146.547C93.7266 147.508 92.1445 147.988 90.1211 147.988H87.0391ZM87.0391 145.141H90.1797C91.1094 145.141 91.8164 144.922 92.3008 144.484C92.793 144.047 93.0391 143.422 93.0391 142.609C93.0391 141.773 92.793 141.098 92.3008 140.582C91.8086 140.066 91.1289 139.801 90.2617 139.785H87.0391V145.141ZM111.859 139.785H106.633V154H103.117V139.785H97.9609V136.938H111.859V139.785ZM122.535 149.523C122.535 148.859 122.301 148.352 121.832 148C121.363 147.641 120.52 147.266 119.301 146.875C118.082 146.477 117.117 146.086 116.406 145.703C114.469 144.656 113.5 143.246 113.5 141.473C113.5 140.551 113.758 139.73 114.273 139.012C114.797 138.285 115.543 137.719 116.512 137.312C117.488 136.906 118.582 136.703 119.793 136.703C121.012 136.703 122.098 136.926 123.051 137.371C124.004 137.809 124.742 138.43 125.266 139.234C125.797 140.039 126.062 140.953 126.062 141.977H122.547C122.547 141.195 122.301 140.59 121.809 140.16C121.316 139.723 120.625 139.504 119.734 139.504C118.875 139.504 118.207 139.688 117.73 140.055C117.254 140.414 117.016 140.891 117.016 141.484C117.016 142.039 117.293 142.504 117.848 142.879C118.41 143.254 119.234 143.605 120.32 143.934C122.32 144.535 123.777 145.281 124.691 146.172C125.605 147.062 126.062 148.172 126.062 149.5C126.062 150.977 125.504 152.137 124.387 152.98C123.27 153.816 121.766 154.234 119.875 154.234C118.562 154.234 117.367 153.996 116.289 153.52C115.211 153.035 114.387 152.375 113.816 151.539C113.254 150.703 112.973 149.734 112.973 148.633H116.5C116.5 150.516 117.625 151.457 119.875 151.457C120.711 151.457 121.363 151.289 121.832 150.953C122.301 150.609 122.535 150.133 122.535 149.523Z" fill="black"/>
<path d="M106.8 122H72.6885V115.232L88.7871 98.0742C90.9974 95.6589 92.6266 93.5511 93.6748 91.751C94.7458 89.9508 95.2812 88.2419 95.2812 86.624C95.2812 84.4137 94.723 82.682 93.6064 81.4287C92.4899 80.1527 90.8949 79.5146 88.8213 79.5146C86.5882 79.5146 84.8223 80.2894 83.5234 81.8389C82.2474 83.3656 81.6094 85.3822 81.6094 87.8887H71.6973C71.6973 84.8581 72.415 82.0895 73.8506 79.583C75.3089 77.0765 77.3597 75.1169 80.0029 73.7041C82.6462 72.2686 85.6426 71.5508 88.9922 71.5508C94.1191 71.5508 98.0954 72.7812 100.921 75.2422C103.769 77.7031 105.193 81.1781 105.193 85.667C105.193 88.1279 104.555 90.6344 103.279 93.1865C102.003 95.7386 99.8158 98.7122 96.7168 102.107L85.4033 114.036H106.8V122ZM136.878 122H127V83.9238L115.208 87.5811V79.5488L135.818 72.166H136.878V122Z" fill="black"/>
<defs>
<radialGradient id="paint0_radial" cx="0" cy="0" r="1" gradientUnits="userSpaceOnUse" gradientTransform="translate(174.5 38) rotate(132.945) scale(188.626)">
<stop offset="0.024826" stop-color="#FDDF96"/>
<stop offset="1" stop-color="#F57F17"/>
</radialGradient>
</defs>
</svg>
