<svg width="1050" height="646" viewBox="0 0 1050 646" fill="none" xmlns="http://www.w3.org/2000/svg">
<rect x="0.5" y="0.5" width="1049" height="645" stroke="#4CB9B2"/>
<path d="M68.0498 62H65.9229V51.7256L62.7852 52.7979V50.9961L67.7773 49.1592H68.0498V62ZM80.8379 56.6123C80.8379 58.4521 80.4922 59.8408 79.8008 60.7783C79.1152 61.71 78.0693 62.1758 76.6631 62.1758C75.2803 62.1758 74.2373 61.7217 73.5342 60.8135C72.8369 59.8994 72.4795 58.5488 72.4619 56.7617V54.5469C72.4619 52.707 72.8047 51.3271 73.4902 50.4072C74.1816 49.4873 75.2334 49.0273 76.6455 49.0273C78.0459 49.0273 79.0889 49.4756 79.7744 50.3721C80.4658 51.2686 80.8203 52.6104 80.8379 54.3975V56.6123ZM78.7021 54.2217C78.7021 53.0205 78.5381 52.1416 78.21 51.585C77.8818 51.0225 77.3604 50.7412 76.6455 50.7412C75.9482 50.7412 75.4355 51.0078 75.1074 51.541C74.7793 52.0684 74.6064 52.8945 74.5889 54.0195V56.9199C74.5889 58.1152 74.7559 59.0059 75.0898 59.5918C75.4238 60.1777 75.9482 60.4707 76.6631 60.4707C77.3486 60.4707 77.8555 60.2012 78.1836 59.6621C78.5117 59.1172 78.6846 58.2676 78.7021 57.1133V54.2217ZM91.0684 56.6123C91.0684 58.4521 90.7227 59.8408 90.0312 60.7783C89.3457 61.71 88.2998 62.1758 86.8936 62.1758C85.5107 62.1758 84.4678 61.7217 83.7646 60.8135C83.0674 59.8994 82.71 58.5488 82.6924 56.7617V54.5469C82.6924 52.707 83.0352 51.3271 83.7207 50.4072C84.4121 49.4873 85.4639 49.0273 86.876 49.0273C88.2764 49.0273 89.3193 49.4756 90.0049 50.3721C90.6963 51.2686 91.0508 52.6104 91.0684 54.3975V56.6123ZM88.9326 54.2217C88.9326 53.0205 88.7686 52.1416 88.4404 51.585C88.1123 51.0225 87.5908 50.7412 86.876 50.7412C86.1787 50.7412 85.666 51.0078 85.3379 51.541C85.0098 52.0684 84.8369 52.8945 84.8193 54.0195V56.9199C84.8193 58.1152 84.9863 59.0059 85.3203 59.5918C85.6543 60.1777 86.1787 60.4707 86.8936 60.4707C87.5791 60.4707 88.0859 60.2012 88.4141 59.6621C88.7422 59.1172 88.915 58.2676 88.9326 57.1133V54.2217Z" fill="black"/>
<path d="M81.0137 205.39L75.8984 217H73.6572L78.7637 205.917H72.1455V204.203H81.0137V205.39ZM91.0684 211.612C91.0684 213.452 90.7227 214.841 90.0312 215.778C89.3457 216.71 88.2998 217.176 86.8936 217.176C85.5107 217.176 84.4678 216.722 83.7646 215.813C83.0674 214.899 82.71 213.549 82.6924 211.762V209.547C82.6924 207.707 83.0352 206.327 83.7207 205.407C84.4121 204.487 85.4639 204.027 86.876 204.027C88.2764 204.027 89.3193 204.476 90.0049 205.372C90.6963 206.269 91.0508 207.61 91.0684 209.397V211.612ZM88.9326 209.222C88.9326 208.021 88.7686 207.142 88.4404 206.585C88.1123 206.022 87.5908 205.741 86.876 205.741C86.1787 205.741 85.666 206.008 85.3379 206.541C85.0098 207.068 84.8369 207.895 84.8193 209.02V211.92C84.8193 213.115 84.9863 214.006 85.3203 214.592C85.6543 215.178 86.1787 215.471 86.8936 215.471C87.5791 215.471 88.0859 215.201 88.4141 214.662C88.7422 214.117 88.915 213.268 88.9326 212.113V209.222Z" fill="black"/>
<path d="M80.5566 156.578C80.5566 157.205 80.3955 157.765 80.0732 158.257C79.751 158.743 79.3115 159.127 78.7549 159.408C79.4229 159.719 79.9355 160.144 80.293 160.683C80.6562 161.222 80.8379 161.831 80.8379 162.511C80.8379 163.636 80.457 164.529 79.6953 165.191C78.9336 165.848 77.9199 166.176 76.6543 166.176C75.3828 166.176 74.3633 165.845 73.5957 165.183C72.834 164.521 72.4531 163.63 72.4531 162.511C72.4531 161.825 72.6348 161.21 72.998 160.665C73.3613 160.12 73.8711 159.701 74.5273 159.408C73.9766 159.127 73.54 158.743 73.2178 158.257C72.9014 157.765 72.7432 157.205 72.7432 156.578C72.7432 155.488 73.0947 154.624 73.7979 153.985C74.501 153.347 75.4502 153.027 76.6455 153.027C77.8467 153.027 78.7988 153.347 79.502 153.985C80.2051 154.624 80.5566 155.488 80.5566 156.578ZM78.7021 162.405C78.7021 161.772 78.5117 161.263 78.1309 160.876C77.7559 160.483 77.2578 160.287 76.6367 160.287C76.0156 160.287 75.5176 160.48 75.1426 160.867C74.7734 161.254 74.5889 161.767 74.5889 162.405C74.5889 163.032 74.7705 163.533 75.1338 163.908C75.5029 164.283 76.0098 164.471 76.6543 164.471C77.2988 164.471 77.7998 164.289 78.1572 163.926C78.5205 163.562 78.7021 163.056 78.7021 162.405ZM78.4297 156.657C78.4297 156.101 78.2686 155.644 77.9463 155.286C77.624 154.923 77.1904 154.741 76.6455 154.741C76.1006 154.741 75.6699 154.914 75.3535 155.26C75.0371 155.6 74.8789 156.065 74.8789 156.657C74.8789 157.243 75.0371 157.709 75.3535 158.055C75.6758 158.4 76.1094 158.573 76.6543 158.573C77.1992 158.573 77.6299 158.4 77.9463 158.055C78.2686 157.709 78.4297 157.243 78.4297 156.657ZM91.0684 160.612C91.0684 162.452 90.7227 163.841 90.0312 164.778C89.3457 165.71 88.2998 166.176 86.8936 166.176C85.5107 166.176 84.4678 165.722 83.7646 164.813C83.0674 163.899 82.71 162.549 82.6924 160.762V158.547C82.6924 156.707 83.0352 155.327 83.7207 154.407C84.4121 153.487 85.4639 153.027 86.876 153.027C88.2764 153.027 89.3193 153.476 90.0049 154.372C90.6963 155.269 91.0508 156.61 91.0684 158.397V160.612ZM88.9326 158.222C88.9326 157.021 88.7686 156.142 88.4404 155.585C88.1123 155.022 87.5908 154.741 86.876 154.741C86.1787 154.741 85.666 155.008 85.3379 155.541C85.0098 156.068 84.8369 156.895 84.8193 158.02V160.92C84.8193 162.115 84.9863 163.006 85.3203 163.592C85.6543 164.178 86.1787 164.471 86.8936 164.471C87.5791 164.471 88.0859 164.201 88.4141 163.662C88.7422 163.117 88.915 162.268 88.9326 161.113V158.222Z" fill="black"/>
<path d="M78.5527 108.647C77.8379 109.403 77.0029 109.781 76.0479 109.781C74.9229 109.781 74.0264 109.389 73.3584 108.604C72.6904 107.812 72.3564 106.775 72.3564 105.492C72.3564 104.648 72.5264 103.884 72.8662 103.198C73.2061 102.513 73.6895 101.979 74.3164 101.599C74.9434 101.218 75.6699 101.027 76.4961 101.027C77.7852 101.027 78.8076 101.508 79.5635 102.469C80.3193 103.43 80.6973 104.716 80.6973 106.327V106.925C80.6973 109.233 80.1758 110.994 79.1328 112.207C78.0898 113.42 76.5342 114.035 74.4658 114.053H74.2109V112.286H74.5186C75.7783 112.269 76.7451 111.967 77.4189 111.381C78.0928 110.789 78.4707 109.878 78.5527 108.647ZM76.4961 108.111C76.9238 108.111 77.3252 107.988 77.7002 107.742C78.0752 107.496 78.3652 107.156 78.5703 106.723V105.888C78.5703 104.944 78.377 104.186 77.9902 103.611C77.6035 103.037 77.1025 102.75 76.4873 102.75C75.8721 102.75 75.3799 103.005 75.0107 103.515C74.6475 104.019 74.4658 104.657 74.4658 105.431C74.4658 106.233 74.6504 106.881 75.0195 107.373C75.3887 107.865 75.8809 108.111 76.4961 108.111ZM91.0684 108.612C91.0684 110.452 90.7227 111.841 90.0312 112.778C89.3457 113.71 88.2998 114.176 86.8936 114.176C85.5107 114.176 84.4678 113.722 83.7646 112.813C83.0674 111.899 82.71 110.549 82.6924 108.762V106.547C82.6924 104.707 83.0352 103.327 83.7207 102.407C84.4121 101.487 85.4639 101.027 86.876 101.027C88.2764 101.027 89.3193 101.476 90.0049 102.372C90.6963 103.269 91.0508 104.61 91.0684 106.397V108.612ZM88.9326 106.222C88.9326 105.021 88.7686 104.142 88.4404 103.585C88.1123 103.022 87.5908 102.741 86.876 102.741C86.1787 102.741 85.666 103.008 85.3379 103.541C85.0098 104.068 84.8369 104.895 84.8193 106.02V108.92C84.8193 110.115 84.9863 111.006 85.3203 111.592C85.6543 112.178 86.1787 112.471 86.8936 112.471C87.5791 112.471 88.0859 112.201 88.4141 111.662C88.7422 111.117 88.915 110.268 88.9326 109.113V106.222Z" fill="black"/>
<path d="M79.1416 256.142V257.908H78.8779C77.6826 257.926 76.7275 258.254 76.0127 258.893C75.2979 259.531 74.873 260.437 74.7383 261.608C75.4238 260.888 76.2998 260.527 77.3662 260.527C78.4971 260.527 79.3877 260.926 80.0381 261.723C80.6943 262.52 81.0225 263.548 81.0225 264.808C81.0225 266.108 80.6387 267.163 79.8711 267.972C79.1094 268.774 78.1074 269.176 76.8652 269.176C75.5879 269.176 74.5508 268.704 73.7539 267.761C72.9629 266.817 72.5674 265.581 72.5674 264.052V263.322C72.5674 261.078 73.1123 259.32 74.2021 258.049C75.2979 256.777 76.8711 256.142 78.9219 256.142H79.1416ZM76.8477 262.25C76.3789 262.25 75.9482 262.382 75.5557 262.646C75.1689 262.909 74.8848 263.261 74.7031 263.7V264.351C74.7031 265.3 74.9023 266.056 75.3008 266.618C75.6992 267.175 76.2148 267.453 76.8477 267.453C77.4805 267.453 77.9814 267.216 78.3506 266.741C78.7197 266.267 78.9043 265.643 78.9043 264.869C78.9043 264.096 78.7168 263.466 78.3418 262.979C77.9668 262.493 77.4688 262.25 76.8477 262.25ZM91.0684 263.612C91.0684 265.452 90.7227 266.841 90.0312 267.778C89.3457 268.71 88.2998 269.176 86.8936 269.176C85.5107 269.176 84.4678 268.722 83.7646 267.813C83.0674 266.899 82.71 265.549 82.6924 263.762V261.547C82.6924 259.707 83.0352 258.327 83.7207 257.407C84.4121 256.487 85.4639 256.027 86.876 256.027C88.2764 256.027 89.3193 256.476 90.0049 257.372C90.6963 258.269 91.0508 259.61 91.0684 261.397V263.612ZM88.9326 261.222C88.9326 260.021 88.7686 259.142 88.4404 258.585C88.1123 258.022 87.5908 257.741 86.876 257.741C86.1787 257.741 85.666 258.008 85.3379 258.541C85.0098 259.068 84.8369 259.895 84.8193 261.02V263.92C84.8193 265.115 84.9863 266.006 85.3203 266.592C85.6543 267.178 86.1787 267.471 86.8936 267.471C87.5791 267.471 88.0859 267.201 88.4141 266.662C88.7422 266.117 88.915 265.268 88.9326 264.113V261.222Z" fill="black"/>
<path d="M73.0684 314.654L73.7627 308.203H80.6357V310.049H75.5381L75.1865 313.107C75.7783 312.768 76.4463 312.598 77.1904 312.598C78.4092 312.598 79.3555 312.987 80.0293 313.767C80.709 314.546 81.0488 315.595 81.0488 316.913C81.0488 318.214 80.6738 319.251 79.9238 320.024C79.1738 320.792 78.1455 321.176 76.8389 321.176C75.667 321.176 74.6943 320.845 73.9209 320.183C73.1533 319.515 72.7373 318.636 72.6729 317.546H74.7383C74.8203 318.167 75.043 318.645 75.4062 318.979C75.7695 319.307 76.2441 319.471 76.8301 319.471C77.4863 319.471 77.9961 319.236 78.3594 318.768C78.7285 318.299 78.9131 317.66 78.9131 316.852C78.9131 316.072 78.7109 315.457 78.3066 315.006C77.9023 314.549 77.3457 314.32 76.6367 314.32C76.25 314.32 75.9219 314.373 75.6523 314.479C75.3828 314.578 75.0898 314.777 74.7734 315.076L73.0684 314.654ZM91.0684 315.612C91.0684 317.452 90.7227 318.841 90.0312 319.778C89.3457 320.71 88.2998 321.176 86.8936 321.176C85.5107 321.176 84.4678 320.722 83.7646 319.813C83.0674 318.899 82.71 317.549 82.6924 315.762V313.547C82.6924 311.707 83.0352 310.327 83.7207 309.407C84.4121 308.487 85.4639 308.027 86.876 308.027C88.2764 308.027 89.3193 308.476 90.0049 309.372C90.6963 310.269 91.0508 311.61 91.0684 313.397V315.612ZM88.9326 313.222C88.9326 312.021 88.7686 311.142 88.4404 310.585C88.1123 310.022 87.5908 309.741 86.876 309.741C86.1787 309.741 85.666 310.008 85.3379 310.541C85.0098 311.068 84.8369 311.895 84.8193 313.02V315.92C84.8193 317.115 84.9863 318.006 85.3203 318.592C85.6543 319.178 86.1787 319.471 86.8936 319.471C87.5791 319.471 88.0859 319.201 88.4141 318.662C88.7422 318.117 88.915 317.268 88.9326 316.113V313.222Z" fill="black"/>
<path d="M79.7217 368.438H81.3125V370.152H79.7217V373H77.5859V370.152H72.0576L71.9961 368.852L77.5156 360.203H79.7217V368.438ZM74.2373 368.438H77.5859V363.095L77.4277 363.376L74.2373 368.438ZM91.0684 367.612C91.0684 369.452 90.7227 370.841 90.0312 371.778C89.3457 372.71 88.2998 373.176 86.8936 373.176C85.5107 373.176 84.4678 372.722 83.7646 371.813C83.0674 370.899 82.71 369.549 82.6924 367.762V365.547C82.6924 363.707 83.0352 362.327 83.7207 361.407C84.4121 360.487 85.4639 360.027 86.876 360.027C88.2764 360.027 89.3193 360.476 90.0049 361.372C90.6963 362.269 91.0508 363.61 91.0684 365.397V367.612ZM88.9326 365.222C88.9326 364.021 88.7686 363.142 88.4404 362.585C88.1123 362.022 87.5908 361.741 86.876 361.741C86.1787 361.741 85.666 362.008 85.3379 362.541C85.0098 363.068 84.8369 363.895 84.8193 365.02V367.92C84.8193 369.115 84.9863 370.006 85.3203 370.592C85.6543 371.178 86.1787 371.471 86.8936 371.471C87.5791 371.471 88.0859 371.201 88.4141 370.662C88.7422 370.117 88.915 369.268 88.9326 368.113V365.222Z" fill="black"/>
<path d="M74.9668 417.626H76.2676C76.9238 417.62 77.4424 417.45 77.8232 417.116C78.21 416.782 78.4033 416.299 78.4033 415.666C78.4033 415.057 78.2422 414.585 77.9199 414.251C77.6035 413.911 77.1172 413.741 76.4609 413.741C75.8867 413.741 75.415 413.908 75.0459 414.242C74.6768 414.57 74.4922 415.001 74.4922 415.534H72.3564C72.3564 414.878 72.5293 414.28 72.875 413.741C73.2266 413.202 73.7129 412.783 74.334 412.484C74.9609 412.18 75.6611 412.027 76.4346 412.027C77.7119 412.027 78.7139 412.35 79.4404 412.994C80.1729 413.633 80.5391 414.523 80.5391 415.666C80.5391 416.24 80.3545 416.782 79.9854 417.292C79.6221 417.796 79.1504 418.177 78.5703 418.435C79.2734 418.675 79.8066 419.053 80.1699 419.568C80.5391 420.084 80.7236 420.699 80.7236 421.414C80.7236 422.562 80.3281 423.477 79.5371 424.156C78.752 424.836 77.7178 425.176 76.4346 425.176C75.2041 425.176 74.1963 424.848 73.4111 424.191C72.626 423.535 72.2334 422.662 72.2334 421.572H74.3691C74.3691 422.135 74.5566 422.592 74.9316 422.943C75.3125 423.295 75.8223 423.471 76.4609 423.471C77.123 423.471 77.6445 423.295 78.0254 422.943C78.4062 422.592 78.5967 422.082 78.5967 421.414C78.5967 420.74 78.3975 420.222 77.999 419.858C77.6006 419.495 77.0088 419.313 76.2236 419.313H74.9668V417.626ZM91.0684 419.612C91.0684 421.452 90.7227 422.841 90.0312 423.778C89.3457 424.71 88.2998 425.176 86.8936 425.176C85.5107 425.176 84.4678 424.722 83.7646 423.813C83.0674 422.899 82.71 421.549 82.6924 419.762V417.547C82.6924 415.707 83.0352 414.327 83.7207 413.407C84.4121 412.487 85.4639 412.027 86.876 412.027C88.2764 412.027 89.3193 412.476 90.0049 413.372C90.6963 414.269 91.0508 415.61 91.0684 417.397V419.612ZM88.9326 417.222C88.9326 416.021 88.7686 415.142 88.4404 414.585C88.1123 414.022 87.5908 413.741 86.876 413.741C86.1787 413.741 85.666 414.008 85.3379 414.541C85.0098 415.068 84.8369 415.895 84.8193 417.02V419.92C84.8193 421.115 84.9863 422.006 85.3203 422.592C85.6543 423.178 86.1787 423.471 86.8936 423.471C87.5791 423.471 88.0859 423.201 88.4141 422.662C88.7422 422.117 88.915 421.268 88.9326 420.113V417.222Z" fill="black"/>
<path d="M81.1016 477H72.4971V475.532L76.7598 470.883C77.375 470.197 77.8115 469.626 78.0693 469.169C78.333 468.706 78.4648 468.243 78.4648 467.78C78.4648 467.171 78.292 466.679 77.9463 466.304C77.6064 465.929 77.1465 465.741 76.5664 465.741C75.875 465.741 75.3389 465.952 74.958 466.374C74.5771 466.796 74.3867 467.373 74.3867 468.105H72.251C72.251 467.326 72.4268 466.626 72.7783 466.005C73.1357 465.378 73.6426 464.892 74.2988 464.546C74.9609 464.2 75.7227 464.027 76.584 464.027C77.8262 464.027 78.8047 464.341 79.5195 464.968C80.2402 465.589 80.6006 466.45 80.6006 467.552C80.6006 468.19 80.4189 468.861 80.0557 469.564C79.6982 470.262 79.1094 471.056 78.2891 471.946L75.1602 475.295H81.1016V477ZM91.0684 471.612C91.0684 473.452 90.7227 474.841 90.0312 475.778C89.3457 476.71 88.2998 477.176 86.8936 477.176C85.5107 477.176 84.4678 476.722 83.7646 475.813C83.0674 474.899 82.71 473.549 82.6924 471.762V469.547C82.6924 467.707 83.0352 466.327 83.7207 465.407C84.4121 464.487 85.4639 464.027 86.876 464.027C88.2764 464.027 89.3193 464.476 90.0049 465.372C90.6963 466.269 91.0508 467.61 91.0684 469.397V471.612ZM88.9326 469.222C88.9326 468.021 88.7686 467.142 88.4404 466.585C88.1123 466.022 87.5908 465.741 86.876 465.741C86.1787 465.741 85.666 466.008 85.3379 466.541C85.0098 467.068 84.8369 467.895 84.8193 469.02V471.92C84.8193 473.115 84.9863 474.006 85.3203 474.592C85.6543 475.178 86.1787 475.471 86.8936 475.471C87.5791 475.471 88.0859 475.201 88.4141 474.662C88.7422 474.117 88.915 473.268 88.9326 472.113V469.222Z" fill="black"/>
<path d="M78.2803 529H76.1533V518.726L73.0156 519.798V517.996L78.0078 516.159H78.2803V529ZM91.0684 523.612C91.0684 525.452 90.7227 526.841 90.0312 527.778C89.3457 528.71 88.2998 529.176 86.8936 529.176C85.5107 529.176 84.4678 528.722 83.7646 527.813C83.0674 526.899 82.71 525.549 82.6924 523.762V521.547C82.6924 519.707 83.0352 518.327 83.7207 517.407C84.4121 516.487 85.4639 516.027 86.876 516.027C88.2764 516.027 89.3193 516.476 90.0049 517.372C90.6963 518.269 91.0508 519.61 91.0684 521.397V523.612ZM88.9326 521.222C88.9326 520.021 88.7686 519.142 88.4404 518.585C88.1123 518.022 87.5908 517.741 86.876 517.741C86.1787 517.741 85.666 518.008 85.3379 518.541C85.0098 519.068 84.8369 519.895 84.8193 521.02V523.92C84.8193 525.115 84.9863 526.006 85.3203 526.592C85.6543 527.178 86.1787 527.471 86.8936 527.471C87.5791 527.471 88.0859 527.201 88.4141 526.662C88.7422 526.117 88.915 525.268 88.9326 524.113V521.222Z" fill="black"/>
<path d="M91.0684 575.612C91.0684 577.452 90.7227 578.841 90.0312 579.778C89.3457 580.71 88.2998 581.176 86.8936 581.176C85.5107 581.176 84.4678 580.722 83.7646 579.813C83.0674 578.899 82.71 577.549 82.6924 575.762V573.547C82.6924 571.707 83.0352 570.327 83.7207 569.407C84.4121 568.487 85.4639 568.027 86.876 568.027C88.2764 568.027 89.3193 568.476 90.0049 569.372C90.6963 570.269 91.0508 571.61 91.0684 573.397V575.612ZM88.9326 573.222C88.9326 572.021 88.7686 571.142 88.4404 570.585C88.1123 570.022 87.5908 569.741 86.876 569.741C86.1787 569.741 85.666 570.008 85.3379 570.541C85.0098 571.068 84.8369 571.895 84.8193 573.02V575.92C84.8193 577.115 84.9863 578.006 85.3203 578.592C85.6543 579.178 86.1787 579.471 86.8936 579.471C87.5791 579.471 88.0859 579.201 88.4141 578.662C88.7422 578.117 88.915 577.268 88.9326 576.113V573.222Z" fill="black"/>
<path d="M119.385 612.612C119.385 614.452 119.039 615.841 118.348 616.778C117.662 617.71 116.616 618.176 115.21 618.176C113.827 618.176 112.784 617.722 112.081 616.813C111.384 615.899 111.026 614.549 111.009 612.762V610.547C111.009 608.707 111.352 607.327 112.037 606.407C112.729 605.487 113.78 605.027 115.192 605.027C116.593 605.027 117.636 605.476 118.321 606.372C119.013 607.269 119.367 608.61 119.385 610.397V612.612ZM117.249 610.222C117.249 609.021 117.085 608.142 116.757 607.585C116.429 607.022 115.907 606.741 115.192 606.741C114.495 606.741 113.982 607.008 113.654 607.541C113.326 608.068 113.153 608.895 113.136 610.02V612.92C113.136 614.115 113.303 615.006 113.637 615.592C113.971 616.178 114.495 616.471 115.21 616.471C115.896 616.471 116.402 616.201 116.73 615.662C117.059 615.117 117.231 614.268 117.249 613.113V610.222ZM127.919 605.142V606.908H127.655C126.46 606.926 125.505 607.254 124.79 607.893C124.075 608.531 123.65 609.437 123.516 610.608C124.201 609.888 125.077 609.527 126.144 609.527C127.274 609.527 128.165 609.926 128.815 610.723C129.472 611.52 129.8 612.548 129.8 613.808C129.8 615.108 129.416 616.163 128.648 616.972C127.887 617.774 126.885 618.176 125.643 618.176C124.365 618.176 123.328 617.704 122.531 616.761C121.74 615.817 121.345 614.581 121.345 613.052V612.322C121.345 610.078 121.89 608.32 122.979 607.049C124.075 605.777 125.648 605.142 127.699 605.142H127.919ZM125.625 611.25C125.156 611.25 124.726 611.382 124.333 611.646C123.946 611.909 123.662 612.261 123.48 612.7V613.351C123.48 614.3 123.68 615.056 124.078 615.618C124.477 616.175 124.992 616.453 125.625 616.453C126.258 616.453 126.759 616.216 127.128 615.741C127.497 615.267 127.682 614.643 127.682 613.869C127.682 613.096 127.494 612.466 127.119 611.979C126.744 611.493 126.246 611.25 125.625 611.25ZM135.785 613.421H131.171V611.698H135.785V613.421ZM145.752 612.612C145.752 614.452 145.406 615.841 144.715 616.778C144.029 617.71 142.983 618.176 141.577 618.176C140.194 618.176 139.151 617.722 138.448 616.813C137.751 615.899 137.394 614.549 137.376 612.762V610.547C137.376 608.707 137.719 607.327 138.404 606.407C139.096 605.487 140.147 605.027 141.56 605.027C142.96 605.027 144.003 605.476 144.688 606.372C145.38 607.269 145.734 608.61 145.752 610.397V612.612ZM143.616 610.222C143.616 609.021 143.452 608.142 143.124 607.585C142.796 607.022 142.274 606.741 141.56 606.741C140.862 606.741 140.35 607.008 140.021 607.541C139.693 608.068 139.521 608.895 139.503 610.02V612.92C139.503 614.115 139.67 615.006 140.004 615.592C140.338 616.178 140.862 616.471 141.577 616.471C142.263 616.471 142.77 616.201 143.098 615.662C143.426 615.117 143.599 614.268 143.616 613.113V610.222ZM153.425 618H151.298V607.726L148.16 608.798V606.996L153.152 605.159H153.425V618Z" fill="black"/>
<path d="M174.385 612.612C174.385 614.452 174.039 615.841 173.348 616.778C172.662 617.71 171.616 618.176 170.21 618.176C168.827 618.176 167.784 617.722 167.081 616.813C166.384 615.899 166.026 614.549 166.009 612.762V610.547C166.009 608.707 166.352 607.327 167.037 606.407C167.729 605.487 168.78 605.027 170.192 605.027C171.593 605.027 172.636 605.476 173.321 606.372C174.013 607.269 174.367 608.61 174.385 610.397V612.612ZM172.249 610.222C172.249 609.021 172.085 608.142 171.757 607.585C171.429 607.022 170.907 606.741 170.192 606.741C169.495 606.741 168.982 607.008 168.654 607.541C168.326 608.068 168.153 608.895 168.136 610.02V612.92C168.136 614.115 168.303 615.006 168.637 615.592C168.971 616.178 169.495 616.471 170.21 616.471C170.896 616.471 171.402 616.201 171.73 615.662C172.059 615.117 172.231 614.268 172.249 613.113V610.222ZM182.919 605.142V606.908H182.655C181.46 606.926 180.505 607.254 179.79 607.893C179.075 608.531 178.65 609.437 178.516 610.608C179.201 609.888 180.077 609.527 181.144 609.527C182.274 609.527 183.165 609.926 183.815 610.723C184.472 611.52 184.8 612.548 184.8 613.808C184.8 615.108 184.416 616.163 183.648 616.972C182.887 617.774 181.885 618.176 180.643 618.176C179.365 618.176 178.328 617.704 177.531 616.761C176.74 615.817 176.345 614.581 176.345 613.052V612.322C176.345 610.078 176.89 608.32 177.979 607.049C179.075 605.777 180.648 605.142 182.699 605.142H182.919ZM180.625 611.25C180.156 611.25 179.726 611.382 179.333 611.646C178.946 611.909 178.662 612.261 178.48 612.7V613.351C178.48 614.3 178.68 615.056 179.078 615.618C179.477 616.175 179.992 616.453 180.625 616.453C181.258 616.453 181.759 616.216 182.128 615.741C182.497 615.267 182.682 614.643 182.682 613.869C182.682 613.096 182.494 612.466 182.119 611.979C181.744 611.493 181.246 611.25 180.625 611.25ZM190.785 613.421H186.171V611.698H190.785V613.421ZM200.752 612.612C200.752 614.452 200.406 615.841 199.715 616.778C199.029 617.71 197.983 618.176 196.577 618.176C195.194 618.176 194.151 617.722 193.448 616.813C192.751 615.899 192.394 614.549 192.376 612.762V610.547C192.376 608.707 192.719 607.327 193.404 606.407C194.096 605.487 195.147 605.027 196.56 605.027C197.96 605.027 199.003 605.476 199.688 606.372C200.38 607.269 200.734 608.61 200.752 610.397V612.612ZM198.616 610.222C198.616 609.021 198.452 608.142 198.124 607.585C197.796 607.022 197.274 606.741 196.56 606.741C195.862 606.741 195.35 607.008 195.021 607.541C194.693 608.068 194.521 608.895 194.503 610.02V612.92C194.503 614.115 194.67 615.006 195.004 615.592C195.338 616.178 195.862 616.471 196.577 616.471C197.263 616.471 197.77 616.201 198.098 615.662C198.426 615.117 198.599 614.268 198.616 613.113V610.222ZM205.111 610.626H206.412C207.068 610.62 207.587 610.45 207.968 610.116C208.354 609.782 208.548 609.299 208.548 608.666C208.548 608.057 208.387 607.585 208.064 607.251C207.748 606.911 207.262 606.741 206.605 606.741C206.031 606.741 205.56 606.908 205.19 607.242C204.821 607.57 204.637 608.001 204.637 608.534H202.501C202.501 607.878 202.674 607.28 203.02 606.741C203.371 606.202 203.857 605.783 204.479 605.484C205.105 605.18 205.806 605.027 206.579 605.027C207.856 605.027 208.858 605.35 209.585 605.994C210.317 606.633 210.684 607.523 210.684 608.666C210.684 609.24 210.499 609.782 210.13 610.292C209.767 610.796 209.295 611.177 208.715 611.435C209.418 611.675 209.951 612.053 210.314 612.568C210.684 613.084 210.868 613.699 210.868 614.414C210.868 615.562 210.473 616.477 209.682 617.156C208.896 617.836 207.862 618.176 206.579 618.176C205.349 618.176 204.341 617.848 203.556 617.191C202.771 616.535 202.378 615.662 202.378 614.572H204.514C204.514 615.135 204.701 615.592 205.076 615.943C205.457 616.295 205.967 616.471 206.605 616.471C207.268 616.471 207.789 616.295 208.17 615.943C208.551 615.592 208.741 615.082 208.741 614.414C208.741 613.74 208.542 613.222 208.144 612.858C207.745 612.495 207.153 612.313 206.368 612.313H205.111V610.626Z" fill="black"/>
<path d="M229.385 612.612C229.385 614.452 229.039 615.841 228.348 616.778C227.662 617.71 226.616 618.176 225.21 618.176C223.827 618.176 222.784 617.722 222.081 616.813C221.384 615.899 221.026 614.549 221.009 612.762V610.547C221.009 608.707 221.352 607.327 222.037 606.407C222.729 605.487 223.78 605.027 225.192 605.027C226.593 605.027 227.636 605.476 228.321 606.372C229.013 607.269 229.367 608.61 229.385 610.397V612.612ZM227.249 610.222C227.249 609.021 227.085 608.142 226.757 607.585C226.429 607.022 225.907 606.741 225.192 606.741C224.495 606.741 223.982 607.008 223.654 607.541C223.326 608.068 223.153 608.895 223.136 610.02V612.92C223.136 614.115 223.303 615.006 223.637 615.592C223.971 616.178 224.495 616.471 225.21 616.471C225.896 616.471 226.402 616.201 226.73 615.662C227.059 615.117 227.231 614.268 227.249 613.113V610.222ZM237.919 605.142V606.908H237.655C236.46 606.926 235.505 607.254 234.79 607.893C234.075 608.531 233.65 609.437 233.516 610.608C234.201 609.888 235.077 609.527 236.144 609.527C237.274 609.527 238.165 609.926 238.815 610.723C239.472 611.52 239.8 612.548 239.8 613.808C239.8 615.108 239.416 616.163 238.648 616.972C237.887 617.774 236.885 618.176 235.643 618.176C234.365 618.176 233.328 617.704 232.531 616.761C231.74 615.817 231.345 614.581 231.345 613.052V612.322C231.345 610.078 231.89 608.32 232.979 607.049C234.075 605.777 235.648 605.142 237.699 605.142H237.919ZM235.625 611.25C235.156 611.25 234.726 611.382 234.333 611.646C233.946 611.909 233.662 612.261 233.48 612.7V613.351C233.48 614.3 233.68 615.056 234.078 615.618C234.477 616.175 234.992 616.453 235.625 616.453C236.258 616.453 236.759 616.216 237.128 615.741C237.497 615.267 237.682 614.643 237.682 613.869C237.682 613.096 237.494 612.466 237.119 611.979C236.744 611.493 236.246 611.25 235.625 611.25ZM245.785 613.421H241.171V611.698H245.785V613.421ZM255.752 612.612C255.752 614.452 255.406 615.841 254.715 616.778C254.029 617.71 252.983 618.176 251.577 618.176C250.194 618.176 249.151 617.722 248.448 616.813C247.751 615.899 247.394 614.549 247.376 612.762V610.547C247.376 608.707 247.719 607.327 248.404 606.407C249.096 605.487 250.147 605.027 251.56 605.027C252.96 605.027 254.003 605.476 254.688 606.372C255.38 607.269 255.734 608.61 255.752 610.397V612.612ZM253.616 610.222C253.616 609.021 253.452 608.142 253.124 607.585C252.796 607.022 252.274 606.741 251.56 606.741C250.862 606.741 250.35 607.008 250.021 607.541C249.693 608.068 249.521 608.895 249.503 610.02V612.92C249.503 614.115 249.67 615.006 250.004 615.592C250.338 616.178 250.862 616.471 251.577 616.471C252.263 616.471 252.77 616.201 253.098 615.662C253.426 615.117 253.599 614.268 253.616 613.113V610.222ZM258.213 611.654L258.907 605.203H265.78V607.049H260.683L260.331 610.107C260.923 609.768 261.591 609.598 262.335 609.598C263.554 609.598 264.5 609.987 265.174 610.767C265.854 611.546 266.193 612.595 266.193 613.913C266.193 615.214 265.818 616.251 265.068 617.024C264.318 617.792 263.29 618.176 261.983 618.176C260.812 618.176 259.839 617.845 259.065 617.183C258.298 616.515 257.882 615.636 257.817 614.546H259.883C259.965 615.167 260.188 615.645 260.551 615.979C260.914 616.307 261.389 616.471 261.975 616.471C262.631 616.471 263.141 616.236 263.504 615.768C263.873 615.299 264.058 614.66 264.058 613.852C264.058 613.072 263.855 612.457 263.451 612.006C263.047 611.549 262.49 611.32 261.781 611.32C261.395 611.32 261.066 611.373 260.797 611.479C260.527 611.578 260.234 611.777 259.918 612.076L258.213 611.654Z" fill="black"/>
<path d="M284.385 612.612C284.385 614.452 284.039 615.841 283.348 616.778C282.662 617.71 281.616 618.176 280.21 618.176C278.827 618.176 277.784 617.722 277.081 616.813C276.384 615.899 276.026 614.549 276.009 612.762V610.547C276.009 608.707 276.352 607.327 277.037 606.407C277.729 605.487 278.78 605.027 280.192 605.027C281.593 605.027 282.636 605.476 283.321 606.372C284.013 607.269 284.367 608.61 284.385 610.397V612.612ZM282.249 610.222C282.249 609.021 282.085 608.142 281.757 607.585C281.429 607.022 280.907 606.741 280.192 606.741C279.495 606.741 278.982 607.008 278.654 607.541C278.326 608.068 278.153 608.895 278.136 610.02V612.92C278.136 614.115 278.303 615.006 278.637 615.592C278.971 616.178 279.495 616.471 280.21 616.471C280.896 616.471 281.402 616.201 281.73 615.662C282.059 615.117 282.231 614.268 282.249 613.113V610.222ZM292.919 605.142V606.908H292.655C291.46 606.926 290.505 607.254 289.79 607.893C289.075 608.531 288.65 609.437 288.516 610.608C289.201 609.888 290.077 609.527 291.144 609.527C292.274 609.527 293.165 609.926 293.815 610.723C294.472 611.52 294.8 612.548 294.8 613.808C294.8 615.108 294.416 616.163 293.648 616.972C292.887 617.774 291.885 618.176 290.643 618.176C289.365 618.176 288.328 617.704 287.531 616.761C286.74 615.817 286.345 614.581 286.345 613.052V612.322C286.345 610.078 286.89 608.32 287.979 607.049C289.075 605.777 290.648 605.142 292.699 605.142H292.919ZM290.625 611.25C290.156 611.25 289.726 611.382 289.333 611.646C288.946 611.909 288.662 612.261 288.48 612.7V613.351C288.48 614.3 288.68 615.056 289.078 615.618C289.477 616.175 289.992 616.453 290.625 616.453C291.258 616.453 291.759 616.216 292.128 615.741C292.497 615.267 292.682 614.643 292.682 613.869C292.682 613.096 292.494 612.466 292.119 611.979C291.744 611.493 291.246 611.25 290.625 611.25ZM300.785 613.421H296.171V611.698H300.785V613.421ZM310.752 612.612C310.752 614.452 310.406 615.841 309.715 616.778C309.029 617.71 307.983 618.176 306.577 618.176C305.194 618.176 304.151 617.722 303.448 616.813C302.751 615.899 302.394 614.549 302.376 612.762V610.547C302.376 608.707 302.719 607.327 303.404 606.407C304.096 605.487 305.147 605.027 306.56 605.027C307.96 605.027 309.003 605.476 309.688 606.372C310.38 607.269 310.734 608.61 310.752 610.397V612.612ZM308.616 610.222C308.616 609.021 308.452 608.142 308.124 607.585C307.796 607.022 307.274 606.741 306.56 606.741C305.862 606.741 305.35 607.008 305.021 607.541C304.693 608.068 304.521 608.895 304.503 610.02V612.92C304.503 614.115 304.67 615.006 305.004 615.592C305.338 616.178 305.862 616.471 306.577 616.471C307.263 616.471 307.77 616.201 308.098 615.662C308.426 615.117 308.599 614.268 308.616 613.113V610.222ZM321.158 606.39L316.043 618H313.802L318.908 606.917H312.29V605.203H321.158V606.39Z" fill="black"/>
<path d="M339.385 612.612C339.385 614.452 339.039 615.841 338.348 616.778C337.662 617.71 336.616 618.176 335.21 618.176C333.827 618.176 332.784 617.722 332.081 616.813C331.384 615.899 331.026 614.549 331.009 612.762V610.547C331.009 608.707 331.352 607.327 332.037 606.407C332.729 605.487 333.78 605.027 335.192 605.027C336.593 605.027 337.636 605.476 338.321 606.372C339.013 607.269 339.367 608.61 339.385 610.397V612.612ZM337.249 610.222C337.249 609.021 337.085 608.142 336.757 607.585C336.429 607.022 335.907 606.741 335.192 606.741C334.495 606.741 333.982 607.008 333.654 607.541C333.326 608.068 333.153 608.895 333.136 610.02V612.92C333.136 614.115 333.303 615.006 333.637 615.592C333.971 616.178 334.495 616.471 335.21 616.471C335.896 616.471 336.402 616.201 336.73 615.662C337.059 615.117 337.231 614.268 337.249 613.113V610.222ZM347.919 605.142V606.908H347.655C346.46 606.926 345.505 607.254 344.79 607.893C344.075 608.531 343.65 609.437 343.516 610.608C344.201 609.888 345.077 609.527 346.144 609.527C347.274 609.527 348.165 609.926 348.815 610.723C349.472 611.52 349.8 612.548 349.8 613.808C349.8 615.108 349.416 616.163 348.648 616.972C347.887 617.774 346.885 618.176 345.643 618.176C344.365 618.176 343.328 617.704 342.531 616.761C341.74 615.817 341.345 614.581 341.345 613.052V612.322C341.345 610.078 341.89 608.32 342.979 607.049C344.075 605.777 345.648 605.142 347.699 605.142H347.919ZM345.625 611.25C345.156 611.25 344.726 611.382 344.333 611.646C343.946 611.909 343.662 612.261 343.48 612.7V613.351C343.48 614.3 343.68 615.056 344.078 615.618C344.477 616.175 344.992 616.453 345.625 616.453C346.258 616.453 346.759 616.216 347.128 615.741C347.497 615.267 347.682 614.643 347.682 613.869C347.682 613.096 347.494 612.466 347.119 611.979C346.744 611.493 346.246 611.25 345.625 611.25ZM355.785 613.421H351.171V611.698H355.785V613.421ZM365.752 612.612C365.752 614.452 365.406 615.841 364.715 616.778C364.029 617.71 362.983 618.176 361.577 618.176C360.194 618.176 359.151 617.722 358.448 616.813C357.751 615.899 357.394 614.549 357.376 612.762V610.547C357.376 608.707 357.719 607.327 358.404 606.407C359.096 605.487 360.147 605.027 361.56 605.027C362.96 605.027 364.003 605.476 364.688 606.372C365.38 607.269 365.734 608.61 365.752 610.397V612.612ZM363.616 610.222C363.616 609.021 363.452 608.142 363.124 607.585C362.796 607.022 362.274 606.741 361.56 606.741C360.862 606.741 360.35 607.008 360.021 607.541C359.693 608.068 359.521 608.895 359.503 610.02V612.92C359.503 614.115 359.67 615.006 360.004 615.592C360.338 616.178 360.862 616.471 361.577 616.471C362.263 616.471 362.77 616.201 363.098 615.662C363.426 615.117 363.599 614.268 363.616 613.113V610.222ZM373.697 612.647C372.982 613.403 372.147 613.781 371.192 613.781C370.067 613.781 369.171 613.389 368.503 612.604C367.835 611.812 367.501 610.775 367.501 609.492C367.501 608.648 367.671 607.884 368.011 607.198C368.351 606.513 368.834 605.979 369.461 605.599C370.088 605.218 370.814 605.027 371.641 605.027C372.93 605.027 373.952 605.508 374.708 606.469C375.464 607.43 375.842 608.716 375.842 610.327V610.925C375.842 613.233 375.32 614.994 374.277 616.207C373.234 617.42 371.679 618.035 369.61 618.053H369.355V616.286H369.663C370.923 616.269 371.89 615.967 372.563 615.381C373.237 614.789 373.615 613.878 373.697 612.647ZM371.641 612.111C372.068 612.111 372.47 611.988 372.845 611.742C373.22 611.496 373.51 611.156 373.715 610.723V609.888C373.715 608.944 373.521 608.186 373.135 607.611C372.748 607.037 372.247 606.75 371.632 606.75C371.017 606.75 370.524 607.005 370.155 607.515C369.792 608.019 369.61 608.657 369.61 609.431C369.61 610.233 369.795 610.881 370.164 611.373C370.533 611.865 371.025 612.111 371.641 612.111Z" fill="black"/>
<path d="M394.385 612.612C394.385 614.452 394.039 615.841 393.348 616.778C392.662 617.71 391.616 618.176 390.21 618.176C388.827 618.176 387.784 617.722 387.081 616.813C386.384 615.899 386.026 614.549 386.009 612.762V610.547C386.009 608.707 386.352 607.327 387.037 606.407C387.729 605.487 388.78 605.027 390.192 605.027C391.593 605.027 392.636 605.476 393.321 606.372C394.013 607.269 394.367 608.61 394.385 610.397V612.612ZM392.249 610.222C392.249 609.021 392.085 608.142 391.757 607.585C391.429 607.022 390.907 606.741 390.192 606.741C389.495 606.741 388.982 607.008 388.654 607.541C388.326 608.068 388.153 608.895 388.136 610.02V612.92C388.136 614.115 388.303 615.006 388.637 615.592C388.971 616.178 389.495 616.471 390.21 616.471C390.896 616.471 391.402 616.201 391.73 615.662C392.059 615.117 392.231 614.268 392.249 613.113V610.222ZM402.919 605.142V606.908H402.655C401.46 606.926 400.505 607.254 399.79 607.893C399.075 608.531 398.65 609.437 398.516 610.608C399.201 609.888 400.077 609.527 401.144 609.527C402.274 609.527 403.165 609.926 403.815 610.723C404.472 611.52 404.8 612.548 404.8 613.808C404.8 615.108 404.416 616.163 403.648 616.972C402.887 617.774 401.885 618.176 400.643 618.176C399.365 618.176 398.328 617.704 397.531 616.761C396.74 615.817 396.345 614.581 396.345 613.052V612.322C396.345 610.078 396.89 608.32 397.979 607.049C399.075 605.777 400.648 605.142 402.699 605.142H402.919ZM400.625 611.25C400.156 611.25 399.726 611.382 399.333 611.646C398.946 611.909 398.662 612.261 398.48 612.7V613.351C398.48 614.3 398.68 615.056 399.078 615.618C399.477 616.175 399.992 616.453 400.625 616.453C401.258 616.453 401.759 616.216 402.128 615.741C402.497 615.267 402.682 614.643 402.682 613.869C402.682 613.096 402.494 612.466 402.119 611.979C401.744 611.493 401.246 611.25 400.625 611.25ZM410.785 613.421H406.171V611.698H410.785V613.421ZM418.194 618H416.067V607.726L412.93 608.798V606.996L417.922 605.159H418.194V618ZM428.425 618H426.298V607.726L423.16 608.798V606.996L428.152 605.159H428.425V618Z" fill="black"/>
<path d="M450.385 612.612C450.385 614.452 450.039 615.841 449.348 616.778C448.662 617.71 447.616 618.176 446.21 618.176C444.827 618.176 443.784 617.722 443.081 616.813C442.384 615.899 442.026 614.549 442.009 612.762V610.547C442.009 608.707 442.352 607.327 443.037 606.407C443.729 605.487 444.78 605.027 446.192 605.027C447.593 605.027 448.636 605.476 449.321 606.372C450.013 607.269 450.367 608.61 450.385 610.397V612.612ZM448.249 610.222C448.249 609.021 448.085 608.142 447.757 607.585C447.429 607.022 446.907 606.741 446.192 606.741C445.495 606.741 444.982 607.008 444.654 607.541C444.326 608.068 444.153 608.895 444.136 610.02V612.92C444.136 614.115 444.303 615.006 444.637 615.592C444.971 616.178 445.495 616.471 446.21 616.471C446.896 616.471 447.402 616.201 447.73 615.662C448.059 615.117 448.231 614.268 448.249 613.113V610.222ZM458.919 605.142V606.908H458.655C457.46 606.926 456.505 607.254 455.79 607.893C455.075 608.531 454.65 609.437 454.516 610.608C455.201 609.888 456.077 609.527 457.144 609.527C458.274 609.527 459.165 609.926 459.815 610.723C460.472 611.52 460.8 612.548 460.8 613.808C460.8 615.108 460.416 616.163 459.648 616.972C458.887 617.774 457.885 618.176 456.643 618.176C455.365 618.176 454.328 617.704 453.531 616.761C452.74 615.817 452.345 614.581 452.345 613.052V612.322C452.345 610.078 452.89 608.32 453.979 607.049C455.075 605.777 456.648 605.142 458.699 605.142H458.919ZM456.625 611.25C456.156 611.25 455.726 611.382 455.333 611.646C454.946 611.909 454.662 612.261 454.48 612.7V613.351C454.48 614.3 454.68 615.056 455.078 615.618C455.477 616.175 455.992 616.453 456.625 616.453C457.258 616.453 457.759 616.216 458.128 615.741C458.497 615.267 458.682 614.643 458.682 613.869C458.682 613.096 458.494 612.466 458.119 611.979C457.744 611.493 457.246 611.25 456.625 611.25ZM466.785 613.421H462.171V611.698H466.785V613.421ZM474.194 618H472.067V607.726L468.93 608.798V606.996L473.922 605.159H474.194V618ZM481.111 610.626H482.412C483.068 610.62 483.587 610.45 483.968 610.116C484.354 609.782 484.548 609.299 484.548 608.666C484.548 608.057 484.387 607.585 484.064 607.251C483.748 606.911 483.262 606.741 482.605 606.741C482.031 606.741 481.56 606.908 481.19 607.242C480.821 607.57 480.637 608.001 480.637 608.534H478.501C478.501 607.878 478.674 607.28 479.02 606.741C479.371 606.202 479.857 605.783 480.479 605.484C481.105 605.18 481.806 605.027 482.579 605.027C483.856 605.027 484.858 605.35 485.585 605.994C486.317 606.633 486.684 607.523 486.684 608.666C486.684 609.24 486.499 609.782 486.13 610.292C485.767 610.796 485.295 611.177 484.715 611.435C485.418 611.675 485.951 612.053 486.314 612.568C486.684 613.084 486.868 613.699 486.868 614.414C486.868 615.562 486.473 616.477 485.682 617.156C484.896 617.836 483.862 618.176 482.579 618.176C481.349 618.176 480.341 617.848 479.556 617.191C478.771 616.535 478.378 615.662 478.378 614.572H480.514C480.514 615.135 480.701 615.592 481.076 615.943C481.457 616.295 481.967 616.471 482.605 616.471C483.268 616.471 483.789 616.295 484.17 615.943C484.551 615.592 484.741 615.082 484.741 614.414C484.741 613.74 484.542 613.222 484.144 612.858C483.745 612.495 483.153 612.313 482.368 612.313H481.111V610.626Z" fill="black"/>
<path d="M507.385 612.612C507.385 614.452 507.039 615.841 506.348 616.778C505.662 617.71 504.616 618.176 503.21 618.176C501.827 618.176 500.784 617.722 500.081 616.813C499.384 615.899 499.026 614.549 499.009 612.762V610.547C499.009 608.707 499.352 607.327 500.037 606.407C500.729 605.487 501.78 605.027 503.192 605.027C504.593 605.027 505.636 605.476 506.321 606.372C507.013 607.269 507.367 608.61 507.385 610.397V612.612ZM505.249 610.222C505.249 609.021 505.085 608.142 504.757 607.585C504.429 607.022 503.907 606.741 503.192 606.741C502.495 606.741 501.982 607.008 501.654 607.541C501.326 608.068 501.153 608.895 501.136 610.02V612.92C501.136 614.115 501.303 615.006 501.637 615.592C501.971 616.178 502.495 616.471 503.21 616.471C503.896 616.471 504.402 616.201 504.73 615.662C505.059 615.117 505.231 614.268 505.249 613.113V610.222ZM515.919 605.142V606.908H515.655C514.46 606.926 513.505 607.254 512.79 607.893C512.075 608.531 511.65 609.437 511.516 610.608C512.201 609.888 513.077 609.527 514.144 609.527C515.274 609.527 516.165 609.926 516.815 610.723C517.472 611.52 517.8 612.548 517.8 613.808C517.8 615.108 517.416 616.163 516.648 616.972C515.887 617.774 514.885 618.176 513.643 618.176C512.365 618.176 511.328 617.704 510.531 616.761C509.74 615.817 509.345 614.581 509.345 613.052V612.322C509.345 610.078 509.89 608.32 510.979 607.049C512.075 605.777 513.648 605.142 515.699 605.142H515.919ZM513.625 611.25C513.156 611.25 512.726 611.382 512.333 611.646C511.946 611.909 511.662 612.261 511.48 612.7V613.351C511.48 614.3 511.68 615.056 512.078 615.618C512.477 616.175 512.992 616.453 513.625 616.453C514.258 616.453 514.759 616.216 515.128 615.741C515.497 615.267 515.682 614.643 515.682 613.869C515.682 613.096 515.494 612.466 515.119 611.979C514.744 611.493 514.246 611.25 513.625 611.25ZM523.785 613.421H519.171V611.698H523.785V613.421ZM531.194 618H529.067V607.726L525.93 608.798V606.996L530.922 605.159H531.194V618ZM536.213 611.654L536.907 605.203H543.78V607.049H538.683L538.331 610.107C538.923 609.768 539.591 609.598 540.335 609.598C541.554 609.598 542.5 609.987 543.174 610.767C543.854 611.546 544.193 612.595 544.193 613.913C544.193 615.214 543.818 616.251 543.068 617.024C542.318 617.792 541.29 618.176 539.983 618.176C538.812 618.176 537.839 617.845 537.065 617.183C536.298 616.515 535.882 615.636 535.817 614.546H537.883C537.965 615.167 538.188 615.645 538.551 615.979C538.914 616.307 539.389 616.471 539.975 616.471C540.631 616.471 541.141 616.236 541.504 615.768C541.873 615.299 542.058 614.66 542.058 613.852C542.058 613.072 541.855 612.457 541.451 612.006C541.047 611.549 540.49 611.32 539.781 611.32C539.395 611.32 539.066 611.373 538.797 611.479C538.527 611.578 538.234 611.777 537.918 612.076L536.213 611.654Z" fill="black"/>
<path d="M562.385 612.612C562.385 614.452 562.039 615.841 561.348 616.778C560.662 617.71 559.616 618.176 558.21 618.176C556.827 618.176 555.784 617.722 555.081 616.813C554.384 615.899 554.026 614.549 554.009 612.762V610.547C554.009 608.707 554.352 607.327 555.037 606.407C555.729 605.487 556.78 605.027 558.192 605.027C559.593 605.027 560.636 605.476 561.321 606.372C562.013 607.269 562.367 608.61 562.385 610.397V612.612ZM560.249 610.222C560.249 609.021 560.085 608.142 559.757 607.585C559.429 607.022 558.907 606.741 558.192 606.741C557.495 606.741 556.982 607.008 556.654 607.541C556.326 608.068 556.153 608.895 556.136 610.02V612.92C556.136 614.115 556.303 615.006 556.637 615.592C556.971 616.178 557.495 616.471 558.21 616.471C558.896 616.471 559.402 616.201 559.73 615.662C560.059 615.117 560.231 614.268 560.249 613.113V610.222ZM570.919 605.142V606.908H570.655C569.46 606.926 568.505 607.254 567.79 607.893C567.075 608.531 566.65 609.437 566.516 610.608C567.201 609.888 568.077 609.527 569.144 609.527C570.274 609.527 571.165 609.926 571.815 610.723C572.472 611.52 572.8 612.548 572.8 613.808C572.8 615.108 572.416 616.163 571.648 616.972C570.887 617.774 569.885 618.176 568.643 618.176C567.365 618.176 566.328 617.704 565.531 616.761C564.74 615.817 564.345 614.581 564.345 613.052V612.322C564.345 610.078 564.89 608.32 565.979 607.049C567.075 605.777 568.648 605.142 570.699 605.142H570.919ZM568.625 611.25C568.156 611.25 567.726 611.382 567.333 611.646C566.946 611.909 566.662 612.261 566.48 612.7V613.351C566.48 614.3 566.68 615.056 567.078 615.618C567.477 616.175 567.992 616.453 568.625 616.453C569.258 616.453 569.759 616.216 570.128 615.741C570.497 615.267 570.682 614.643 570.682 613.869C570.682 613.096 570.494 612.466 570.119 611.979C569.744 611.493 569.246 611.25 568.625 611.25ZM578.785 613.421H574.171V611.698H578.785V613.421ZM586.194 618H584.067V607.726L580.93 608.798V606.996L585.922 605.159H586.194V618ZM599.158 606.39L594.043 618H591.802L596.908 606.917H590.29V605.203H599.158V606.39Z" fill="black"/>
<path d="M617.385 612.612C617.385 614.452 617.039 615.841 616.348 616.778C615.662 617.71 614.616 618.176 613.21 618.176C611.827 618.176 610.784 617.722 610.081 616.813C609.384 615.899 609.026 614.549 609.009 612.762V610.547C609.009 608.707 609.352 607.327 610.037 606.407C610.729 605.487 611.78 605.027 613.192 605.027C614.593 605.027 615.636 605.476 616.321 606.372C617.013 607.269 617.367 608.61 617.385 610.397V612.612ZM615.249 610.222C615.249 609.021 615.085 608.142 614.757 607.585C614.429 607.022 613.907 606.741 613.192 606.741C612.495 606.741 611.982 607.008 611.654 607.541C611.326 608.068 611.153 608.895 611.136 610.02V612.92C611.136 614.115 611.303 615.006 611.637 615.592C611.971 616.178 612.495 616.471 613.21 616.471C613.896 616.471 614.402 616.201 614.73 615.662C615.059 615.117 615.231 614.268 615.249 613.113V610.222ZM625.919 605.142V606.908H625.655C624.46 606.926 623.505 607.254 622.79 607.893C622.075 608.531 621.65 609.437 621.516 610.608C622.201 609.888 623.077 609.527 624.144 609.527C625.274 609.527 626.165 609.926 626.815 610.723C627.472 611.52 627.8 612.548 627.8 613.808C627.8 615.108 627.416 616.163 626.648 616.972C625.887 617.774 624.885 618.176 623.643 618.176C622.365 618.176 621.328 617.704 620.531 616.761C619.74 615.817 619.345 614.581 619.345 613.052V612.322C619.345 610.078 619.89 608.32 620.979 607.049C622.075 605.777 623.648 605.142 625.699 605.142H625.919ZM623.625 611.25C623.156 611.25 622.726 611.382 622.333 611.646C621.946 611.909 621.662 612.261 621.48 612.7V613.351C621.48 614.3 621.68 615.056 622.078 615.618C622.477 616.175 622.992 616.453 623.625 616.453C624.258 616.453 624.759 616.216 625.128 615.741C625.497 615.267 625.682 614.643 625.682 613.869C625.682 613.096 625.494 612.466 625.119 611.979C624.744 611.493 624.246 611.25 623.625 611.25ZM633.785 613.421H629.171V611.698H633.785V613.421ZM641.194 618H639.067V607.726L635.93 608.798V606.996L640.922 605.159H641.194V618ZM651.697 612.647C650.982 613.403 650.147 613.781 649.192 613.781C648.067 613.781 647.171 613.389 646.503 612.604C645.835 611.812 645.501 610.775 645.501 609.492C645.501 608.648 645.671 607.884 646.011 607.198C646.351 606.513 646.834 605.979 647.461 605.599C648.088 605.218 648.814 605.027 649.641 605.027C650.93 605.027 651.952 605.508 652.708 606.469C653.464 607.43 653.842 608.716 653.842 610.327V610.925C653.842 613.233 653.32 614.994 652.277 616.207C651.234 617.42 649.679 618.035 647.61 618.053H647.355V616.286H647.663C648.923 616.269 649.89 615.967 650.563 615.381C651.237 614.789 651.615 613.878 651.697 612.647ZM649.641 612.111C650.068 612.111 650.47 611.988 650.845 611.742C651.22 611.496 651.51 611.156 651.715 610.723V609.888C651.715 608.944 651.521 608.186 651.135 607.611C650.748 607.037 650.247 606.75 649.632 606.75C649.017 606.75 648.524 607.005 648.155 607.515C647.792 608.019 647.61 608.657 647.61 609.431C647.61 610.233 647.795 610.881 648.164 611.373C648.533 611.865 649.025 612.111 649.641 612.111Z" fill="black"/>
<path d="M672.385 612.612C672.385 614.452 672.039 615.841 671.348 616.778C670.662 617.71 669.616 618.176 668.21 618.176C666.827 618.176 665.784 617.722 665.081 616.813C664.384 615.899 664.026 614.549 664.009 612.762V610.547C664.009 608.707 664.352 607.327 665.037 606.407C665.729 605.487 666.78 605.027 668.192 605.027C669.593 605.027 670.636 605.476 671.321 606.372C672.013 607.269 672.367 608.61 672.385 610.397V612.612ZM670.249 610.222C670.249 609.021 670.085 608.142 669.757 607.585C669.429 607.022 668.907 606.741 668.192 606.741C667.495 606.741 666.982 607.008 666.654 607.541C666.326 608.068 666.153 608.895 666.136 610.02V612.92C666.136 614.115 666.303 615.006 666.637 615.592C666.971 616.178 667.495 616.471 668.21 616.471C668.896 616.471 669.402 616.201 669.73 615.662C670.059 615.117 670.231 614.268 670.249 613.113V610.222ZM680.919 605.142V606.908H680.655C679.46 606.926 678.505 607.254 677.79 607.893C677.075 608.531 676.65 609.437 676.516 610.608C677.201 609.888 678.077 609.527 679.144 609.527C680.274 609.527 681.165 609.926 681.815 610.723C682.472 611.52 682.8 612.548 682.8 613.808C682.8 615.108 682.416 616.163 681.648 616.972C680.887 617.774 679.885 618.176 678.643 618.176C677.365 618.176 676.328 617.704 675.531 616.761C674.74 615.817 674.345 614.581 674.345 613.052V612.322C674.345 610.078 674.89 608.32 675.979 607.049C677.075 605.777 678.648 605.142 680.699 605.142H680.919ZM678.625 611.25C678.156 611.25 677.726 611.382 677.333 611.646C676.946 611.909 676.662 612.261 676.48 612.7V613.351C676.48 614.3 676.68 615.056 677.078 615.618C677.477 616.175 677.992 616.453 678.625 616.453C679.258 616.453 679.759 616.216 680.128 615.741C680.497 615.267 680.682 614.643 680.682 613.869C680.682 613.096 680.494 612.466 680.119 611.979C679.744 611.493 679.246 611.25 678.625 611.25ZM688.785 613.421H684.171V611.698H688.785V613.421ZM699.016 618H690.411V616.532L694.674 611.883C695.289 611.197 695.726 610.626 695.983 610.169C696.247 609.706 696.379 609.243 696.379 608.78C696.379 608.171 696.206 607.679 695.86 607.304C695.521 606.929 695.061 606.741 694.48 606.741C693.789 606.741 693.253 606.952 692.872 607.374C692.491 607.796 692.301 608.373 692.301 609.105H690.165C690.165 608.326 690.341 607.626 690.692 607.005C691.05 606.378 691.557 605.892 692.213 605.546C692.875 605.2 693.637 605.027 694.498 605.027C695.74 605.027 696.719 605.341 697.434 605.968C698.154 606.589 698.515 607.45 698.515 608.552C698.515 609.19 698.333 609.861 697.97 610.564C697.612 611.262 697.023 612.056 696.203 612.946L693.074 616.295H699.016V618ZM706.425 618H704.298V607.726L701.16 608.798V606.996L706.152 605.159H706.425V618Z" fill="black"/>
<path d="M727.385 612.612C727.385 614.452 727.039 615.841 726.348 616.778C725.662 617.71 724.616 618.176 723.21 618.176C721.827 618.176 720.784 617.722 720.081 616.813C719.384 615.899 719.026 614.549 719.009 612.762V610.547C719.009 608.707 719.352 607.327 720.037 606.407C720.729 605.487 721.78 605.027 723.192 605.027C724.593 605.027 725.636 605.476 726.321 606.372C727.013 607.269 727.367 608.61 727.385 610.397V612.612ZM725.249 610.222C725.249 609.021 725.085 608.142 724.757 607.585C724.429 607.022 723.907 606.741 723.192 606.741C722.495 606.741 721.982 607.008 721.654 607.541C721.326 608.068 721.153 608.895 721.136 610.02V612.92C721.136 614.115 721.303 615.006 721.637 615.592C721.971 616.178 722.495 616.471 723.21 616.471C723.896 616.471 724.402 616.201 724.73 615.662C725.059 615.117 725.231 614.268 725.249 613.113V610.222ZM735.919 605.142V606.908H735.655C734.46 606.926 733.505 607.254 732.79 607.893C732.075 608.531 731.65 609.437 731.516 610.608C732.201 609.888 733.077 609.527 734.144 609.527C735.274 609.527 736.165 609.926 736.815 610.723C737.472 611.52 737.8 612.548 737.8 613.808C737.8 615.108 737.416 616.163 736.648 616.972C735.887 617.774 734.885 618.176 733.643 618.176C732.365 618.176 731.328 617.704 730.531 616.761C729.74 615.817 729.345 614.581 729.345 613.052V612.322C729.345 610.078 729.89 608.32 730.979 607.049C732.075 605.777 733.648 605.142 735.699 605.142H735.919ZM733.625 611.25C733.156 611.25 732.726 611.382 732.333 611.646C731.946 611.909 731.662 612.261 731.48 612.7V613.351C731.48 614.3 731.68 615.056 732.078 615.618C732.477 616.175 732.992 616.453 733.625 616.453C734.258 616.453 734.759 616.216 735.128 615.741C735.497 615.267 735.682 614.643 735.682 613.869C735.682 613.096 735.494 612.466 735.119 611.979C734.744 611.493 734.246 611.25 733.625 611.25ZM743.785 613.421H739.171V611.698H743.785V613.421ZM754.016 618H745.411V616.532L749.674 611.883C750.289 611.197 750.726 610.626 750.983 610.169C751.247 609.706 751.379 609.243 751.379 608.78C751.379 608.171 751.206 607.679 750.86 607.304C750.521 606.929 750.061 606.741 749.48 606.741C748.789 606.741 748.253 606.952 747.872 607.374C747.491 607.796 747.301 608.373 747.301 609.105H745.165C745.165 608.326 745.341 607.626 745.692 607.005C746.05 606.378 746.557 605.892 747.213 605.546C747.875 605.2 748.637 605.027 749.498 605.027C750.74 605.027 751.719 605.341 752.434 605.968C753.154 606.589 753.515 607.45 753.515 608.552C753.515 609.19 753.333 609.861 752.97 610.564C752.612 611.262 752.023 612.056 751.203 612.946L748.074 616.295H754.016V618ZM758.111 610.626H759.412C760.068 610.62 760.587 610.45 760.968 610.116C761.354 609.782 761.548 609.299 761.548 608.666C761.548 608.057 761.387 607.585 761.064 607.251C760.748 606.911 760.262 606.741 759.605 606.741C759.031 606.741 758.56 606.908 758.19 607.242C757.821 607.57 757.637 608.001 757.637 608.534H755.501C755.501 607.878 755.674 607.28 756.02 606.741C756.371 606.202 756.857 605.783 757.479 605.484C758.105 605.18 758.806 605.027 759.579 605.027C760.856 605.027 761.858 605.35 762.585 605.994C763.317 606.633 763.684 607.523 763.684 608.666C763.684 609.24 763.499 609.782 763.13 610.292C762.767 610.796 762.295 611.177 761.715 611.435C762.418 611.675 762.951 612.053 763.314 612.568C763.684 613.084 763.868 613.699 763.868 614.414C763.868 615.562 763.473 616.477 762.682 617.156C761.896 617.836 760.862 618.176 759.579 618.176C758.349 618.176 757.341 617.848 756.556 617.191C755.771 616.535 755.378 615.662 755.378 614.572H757.514C757.514 615.135 757.701 615.592 758.076 615.943C758.457 616.295 758.967 616.471 759.605 616.471C760.268 616.471 760.789 616.295 761.17 615.943C761.551 615.592 761.741 615.082 761.741 614.414C761.741 613.74 761.542 613.222 761.144 612.858C760.745 612.495 760.153 612.313 759.368 612.313H758.111V610.626Z" fill="black"/>
<path d="M782.385 612.612C782.385 614.452 782.039 615.841 781.348 616.778C780.662 617.71 779.616 618.176 778.21 618.176C776.827 618.176 775.784 617.722 775.081 616.813C774.384 615.899 774.026 614.549 774.009 612.762V610.547C774.009 608.707 774.352 607.327 775.037 606.407C775.729 605.487 776.78 605.027 778.192 605.027C779.593 605.027 780.636 605.476 781.321 606.372C782.013 607.269 782.367 608.61 782.385 610.397V612.612ZM780.249 610.222C780.249 609.021 780.085 608.142 779.757 607.585C779.429 607.022 778.907 606.741 778.192 606.741C777.495 606.741 776.982 607.008 776.654 607.541C776.326 608.068 776.153 608.895 776.136 610.02V612.92C776.136 614.115 776.303 615.006 776.637 615.592C776.971 616.178 777.495 616.471 778.21 616.471C778.896 616.471 779.402 616.201 779.73 615.662C780.059 615.117 780.231 614.268 780.249 613.113V610.222ZM790.919 605.142V606.908H790.655C789.46 606.926 788.505 607.254 787.79 607.893C787.075 608.531 786.65 609.437 786.516 610.608C787.201 609.888 788.077 609.527 789.144 609.527C790.274 609.527 791.165 609.926 791.815 610.723C792.472 611.52 792.8 612.548 792.8 613.808C792.8 615.108 792.416 616.163 791.648 616.972C790.887 617.774 789.885 618.176 788.643 618.176C787.365 618.176 786.328 617.704 785.531 616.761C784.74 615.817 784.345 614.581 784.345 613.052V612.322C784.345 610.078 784.89 608.32 785.979 607.049C787.075 605.777 788.648 605.142 790.699 605.142H790.919ZM788.625 611.25C788.156 611.25 787.726 611.382 787.333 611.646C786.946 611.909 786.662 612.261 786.48 612.7V613.351C786.48 614.3 786.68 615.056 787.078 615.618C787.477 616.175 787.992 616.453 788.625 616.453C789.258 616.453 789.759 616.216 790.128 615.741C790.497 615.267 790.682 614.643 790.682 613.869C790.682 613.096 790.494 612.466 790.119 611.979C789.744 611.493 789.246 611.25 788.625 611.25ZM798.785 613.421H794.171V611.698H798.785V613.421ZM809.016 618H800.411V616.532L804.674 611.883C805.289 611.197 805.726 610.626 805.983 610.169C806.247 609.706 806.379 609.243 806.379 608.78C806.379 608.171 806.206 607.679 805.86 607.304C805.521 606.929 805.061 606.741 804.48 606.741C803.789 606.741 803.253 606.952 802.872 607.374C802.491 607.796 802.301 608.373 802.301 609.105H800.165C800.165 608.326 800.341 607.626 800.692 607.005C801.05 606.378 801.557 605.892 802.213 605.546C802.875 605.2 803.637 605.027 804.498 605.027C805.74 605.027 806.719 605.341 807.434 605.968C808.154 606.589 808.515 607.45 808.515 608.552C808.515 609.19 808.333 609.861 807.97 610.564C807.612 611.262 807.023 612.056 806.203 612.946L803.074 616.295H809.016V618ZM811.213 611.654L811.907 605.203H818.78V607.049H813.683L813.331 610.107C813.923 609.768 814.591 609.598 815.335 609.598C816.554 609.598 817.5 609.987 818.174 610.767C818.854 611.546 819.193 612.595 819.193 613.913C819.193 615.214 818.818 616.251 818.068 617.024C817.318 617.792 816.29 618.176 814.983 618.176C813.812 618.176 812.839 617.845 812.065 617.183C811.298 616.515 810.882 615.636 810.817 614.546H812.883C812.965 615.167 813.188 615.645 813.551 615.979C813.914 616.307 814.389 616.471 814.975 616.471C815.631 616.471 816.141 616.236 816.504 615.768C816.873 615.299 817.058 614.66 817.058 613.852C817.058 613.072 816.855 612.457 816.451 612.006C816.047 611.549 815.49 611.32 814.781 611.32C814.395 611.32 814.066 611.373 813.797 611.479C813.527 611.578 813.234 611.777 812.918 612.076L811.213 611.654Z" fill="black"/>
<path d="M837.385 612.612C837.385 614.452 837.039 615.841 836.348 616.778C835.662 617.71 834.616 618.176 833.21 618.176C831.827 618.176 830.784 617.722 830.081 616.813C829.384 615.899 829.026 614.549 829.009 612.762V610.547C829.009 608.707 829.352 607.327 830.037 606.407C830.729 605.487 831.78 605.027 833.192 605.027C834.593 605.027 835.636 605.476 836.321 606.372C837.013 607.269 837.367 608.61 837.385 610.397V612.612ZM835.249 610.222C835.249 609.021 835.085 608.142 834.757 607.585C834.429 607.022 833.907 606.741 833.192 606.741C832.495 606.741 831.982 607.008 831.654 607.541C831.326 608.068 831.153 608.895 831.136 610.02V612.92C831.136 614.115 831.303 615.006 831.637 615.592C831.971 616.178 832.495 616.471 833.21 616.471C833.896 616.471 834.402 616.201 834.73 615.662C835.059 615.117 835.231 614.268 835.249 613.113V610.222ZM845.919 605.142V606.908H845.655C844.46 606.926 843.505 607.254 842.79 607.893C842.075 608.531 841.65 609.437 841.516 610.608C842.201 609.888 843.077 609.527 844.144 609.527C845.274 609.527 846.165 609.926 846.815 610.723C847.472 611.52 847.8 612.548 847.8 613.808C847.8 615.108 847.416 616.163 846.648 616.972C845.887 617.774 844.885 618.176 843.643 618.176C842.365 618.176 841.328 617.704 840.531 616.761C839.74 615.817 839.345 614.581 839.345 613.052V612.322C839.345 610.078 839.89 608.32 840.979 607.049C842.075 605.777 843.648 605.142 845.699 605.142H845.919ZM843.625 611.25C843.156 611.25 842.726 611.382 842.333 611.646C841.946 611.909 841.662 612.261 841.48 612.7V613.351C841.48 614.3 841.68 615.056 842.078 615.618C842.477 616.175 842.992 616.453 843.625 616.453C844.258 616.453 844.759 616.216 845.128 615.741C845.497 615.267 845.682 614.643 845.682 613.869C845.682 613.096 845.494 612.466 845.119 611.979C844.744 611.493 844.246 611.25 843.625 611.25ZM853.785 613.421H849.171V611.698H853.785V613.421ZM864.016 618H855.411V616.532L859.674 611.883C860.289 611.197 860.726 610.626 860.983 610.169C861.247 609.706 861.379 609.243 861.379 608.78C861.379 608.171 861.206 607.679 860.86 607.304C860.521 606.929 860.061 606.741 859.48 606.741C858.789 606.741 858.253 606.952 857.872 607.374C857.491 607.796 857.301 608.373 857.301 609.105H855.165C855.165 608.326 855.341 607.626 855.692 607.005C856.05 606.378 856.557 605.892 857.213 605.546C857.875 605.2 858.637 605.027 859.498 605.027C860.74 605.027 861.719 605.341 862.434 605.968C863.154 606.589 863.515 607.45 863.515 608.552C863.515 609.19 863.333 609.861 862.97 610.564C862.612 611.262 862.023 612.056 861.203 612.946L858.074 616.295H864.016V618ZM874.158 606.39L869.043 618H866.802L871.908 606.917H865.29V605.203H874.158V606.39Z" fill="black"/>
<path d="M892.385 612.612C892.385 614.452 892.039 615.841 891.348 616.778C890.662 617.71 889.616 618.176 888.21 618.176C886.827 618.176 885.784 617.722 885.081 616.813C884.384 615.899 884.026 614.549 884.009 612.762V610.547C884.009 608.707 884.352 607.327 885.037 606.407C885.729 605.487 886.78 605.027 888.192 605.027C889.593 605.027 890.636 605.476 891.321 606.372C892.013 607.269 892.367 608.61 892.385 610.397V612.612ZM890.249 610.222C890.249 609.021 890.085 608.142 889.757 607.585C889.429 607.022 888.907 606.741 888.192 606.741C887.495 606.741 886.982 607.008 886.654 607.541C886.326 608.068 886.153 608.895 886.136 610.02V612.92C886.136 614.115 886.303 615.006 886.637 615.592C886.971 616.178 887.495 616.471 888.21 616.471C888.896 616.471 889.402 616.201 889.73 615.662C890.059 615.117 890.231 614.268 890.249 613.113V610.222ZM900.919 605.142V606.908H900.655C899.46 606.926 898.505 607.254 897.79 607.893C897.075 608.531 896.65 609.437 896.516 610.608C897.201 609.888 898.077 609.527 899.144 609.527C900.274 609.527 901.165 609.926 901.815 610.723C902.472 611.52 902.8 612.548 902.8 613.808C902.8 615.108 902.416 616.163 901.648 616.972C900.887 617.774 899.885 618.176 898.643 618.176C897.365 618.176 896.328 617.704 895.531 616.761C894.74 615.817 894.345 614.581 894.345 613.052V612.322C894.345 610.078 894.89 608.32 895.979 607.049C897.075 605.777 898.648 605.142 900.699 605.142H900.919ZM898.625 611.25C898.156 611.25 897.726 611.382 897.333 611.646C896.946 611.909 896.662 612.261 896.48 612.7V613.351C896.48 614.3 896.68 615.056 897.078 615.618C897.477 616.175 897.992 616.453 898.625 616.453C899.258 616.453 899.759 616.216 900.128 615.741C900.497 615.267 900.682 614.643 900.682 613.869C900.682 613.096 900.494 612.466 900.119 611.979C899.744 611.493 899.246 611.25 898.625 611.25ZM908.785 613.421H904.171V611.698H908.785V613.421ZM919.016 618H910.411V616.532L914.674 611.883C915.289 611.197 915.726 610.626 915.983 610.169C916.247 609.706 916.379 609.243 916.379 608.78C916.379 608.171 916.206 607.679 915.86 607.304C915.521 606.929 915.061 606.741 914.48 606.741C913.789 606.741 913.253 606.952 912.872 607.374C912.491 607.796 912.301 608.373 912.301 609.105H910.165C910.165 608.326 910.341 607.626 910.692 607.005C911.05 606.378 911.557 605.892 912.213 605.546C912.875 605.2 913.637 605.027 914.498 605.027C915.74 605.027 916.719 605.341 917.434 605.968C918.154 606.589 918.515 607.45 918.515 608.552C918.515 609.19 918.333 609.861 917.97 610.564C917.612 611.262 917.023 612.056 916.203 612.946L913.074 616.295H919.016V618ZM926.697 612.647C925.982 613.403 925.147 613.781 924.192 613.781C923.067 613.781 922.171 613.389 921.503 612.604C920.835 611.812 920.501 610.775 920.501 609.492C920.501 608.648 920.671 607.884 921.011 607.198C921.351 606.513 921.834 605.979 922.461 605.599C923.088 605.218 923.814 605.027 924.641 605.027C925.93 605.027 926.952 605.508 927.708 606.469C928.464 607.43 928.842 608.716 928.842 610.327V610.925C928.842 613.233 928.32 614.994 927.277 616.207C926.234 617.42 924.679 618.035 922.61 618.053H922.355V616.286H922.663C923.923 616.269 924.89 615.967 925.563 615.381C926.237 614.789 926.615 613.878 926.697 612.647ZM924.641 612.111C925.068 612.111 925.47 611.988 925.845 611.742C926.22 611.496 926.51 611.156 926.715 610.723V609.888C926.715 608.944 926.521 608.186 926.135 607.611C925.748 607.037 925.247 606.75 924.632 606.75C924.017 606.75 923.524 607.005 923.155 607.515C922.792 608.019 922.61 608.657 922.61 609.431C922.61 610.233 922.795 610.881 923.164 611.373C923.533 611.865 924.025 612.111 924.641 612.111Z" fill="black"/>
<path d="M947.385 612.612C947.385 614.452 947.039 615.841 946.348 616.778C945.662 617.71 944.616 618.176 943.21 618.176C941.827 618.176 940.784 617.722 940.081 616.813C939.384 615.899 939.026 614.549 939.009 612.762V610.547C939.009 608.707 939.352 607.327 940.037 606.407C940.729 605.487 941.78 605.027 943.192 605.027C944.593 605.027 945.636 605.476 946.321 606.372C947.013 607.269 947.367 608.61 947.385 610.397V612.612ZM945.249 610.222C945.249 609.021 945.085 608.142 944.757 607.585C944.429 607.022 943.907 606.741 943.192 606.741C942.495 606.741 941.982 607.008 941.654 607.541C941.326 608.068 941.153 608.895 941.136 610.02V612.92C941.136 614.115 941.303 615.006 941.637 615.592C941.971 616.178 942.495 616.471 943.21 616.471C943.896 616.471 944.402 616.201 944.73 615.662C945.059 615.117 945.231 614.268 945.249 613.113V610.222ZM955.919 605.142V606.908H955.655C954.46 606.926 953.505 607.254 952.79 607.893C952.075 608.531 951.65 609.437 951.516 610.608C952.201 609.888 953.077 609.527 954.144 609.527C955.274 609.527 956.165 609.926 956.815 610.723C957.472 611.52 957.8 612.548 957.8 613.808C957.8 615.108 957.416 616.163 956.648 616.972C955.887 617.774 954.885 618.176 953.643 618.176C952.365 618.176 951.328 617.704 950.531 616.761C949.74 615.817 949.345 614.581 949.345 613.052V612.322C949.345 610.078 949.89 608.32 950.979 607.049C952.075 605.777 953.648 605.142 955.699 605.142H955.919ZM953.625 611.25C953.156 611.25 952.726 611.382 952.333 611.646C951.946 611.909 951.662 612.261 951.48 612.7V613.351C951.48 614.3 951.68 615.056 952.078 615.618C952.477 616.175 952.992 616.453 953.625 616.453C954.258 616.453 954.759 616.216 955.128 615.741C955.497 615.267 955.682 614.643 955.682 613.869C955.682 613.096 955.494 612.466 955.119 611.979C954.744 611.493 954.246 611.25 953.625 611.25ZM963.785 613.421H959.171V611.698H963.785V613.421ZM967.881 610.626H969.182C969.838 610.62 970.356 610.45 970.737 610.116C971.124 609.782 971.317 609.299 971.317 608.666C971.317 608.057 971.156 607.585 970.834 607.251C970.518 606.911 970.031 606.741 969.375 606.741C968.801 606.741 968.329 606.908 967.96 607.242C967.591 607.57 967.406 608.001 967.406 608.534H965.271C965.271 607.878 965.443 607.28 965.789 606.741C966.141 606.202 966.627 605.783 967.248 605.484C967.875 605.18 968.575 605.027 969.349 605.027C970.626 605.027 971.628 605.35 972.354 605.994C973.087 606.633 973.453 607.523 973.453 608.666C973.453 609.24 973.269 609.782 972.899 610.292C972.536 610.796 972.064 611.177 971.484 611.435C972.188 611.675 972.721 612.053 973.084 612.568C973.453 613.084 973.638 613.699 973.638 614.414C973.638 615.562 973.242 616.477 972.451 617.156C971.666 617.836 970.632 618.176 969.349 618.176C968.118 618.176 967.11 617.848 966.325 617.191C965.54 616.535 965.147 615.662 965.147 614.572H967.283C967.283 615.135 967.471 615.592 967.846 615.943C968.227 616.295 968.736 616.471 969.375 616.471C970.037 616.471 970.559 616.295 970.939 615.943C971.32 615.592 971.511 615.082 971.511 614.414C971.511 613.74 971.312 613.222 970.913 612.858C970.515 612.495 969.923 612.313 969.138 612.313H967.881V610.626ZM981.425 618H979.298V607.726L976.16 608.798V606.996L981.152 605.159H981.425V618Z" fill="black"/>
<line x1="112.5" y1="55.5" x2="979.5" y2="55.4999" stroke="black" stroke-opacity="0.5" stroke-linecap="square"/>
<line x1="112.5" y1="107.5" x2="979.5" y2="107.5" stroke="black" stroke-opacity="0.5" stroke-linecap="square"/>
<line x1="112.5" y1="159.5" x2="979.5" y2="159.5" stroke="black" stroke-opacity="0.5" stroke-linecap="square"/>
<line x1="112.5" y1="211.5" x2="979.5" y2="211.5" stroke="black" stroke-opacity="0.5" stroke-linecap="square"/>
<line x1="112.5" y1="263.5" x2="979.5" y2="263.5" stroke="black" stroke-opacity="0.5" stroke-linecap="square"/>
<line x1="112.5" y1="315.5" x2="979.5" y2="315.5" stroke="black" stroke-opacity="0.5" stroke-linecap="square"/>
<line x1="112.5" y1="367.5" x2="979.5" y2="367.5" stroke="black" stroke-opacity="0.5" stroke-linecap="square"/>
<line x1="112.5" y1="419.5" x2="979.5" y2="419.5" stroke="black" stroke-opacity="0.5" stroke-linecap="square"/>
<line x1="112.5" y1="471.5" x2="979.5" y2="471.5" stroke="black" stroke-opacity="0.5" stroke-linecap="square"/>
<line x1="112.5" y1="523.5" x2="979.5" y2="523.5" stroke="black" stroke-opacity="0.5" stroke-linecap="square"/>
<line x1="112.5" y1="575.5" x2="979.5" y2="575.5" stroke="black" stroke-opacity="0.5" stroke-linecap="square"/>
<path d="M131 575C166.667 492.198 273.211 267.833 322.025 166L415.422 456.473L537.456 213.578L603.517 357.145L682.595 298.716L842.054 549.124L954 191.876" stroke="#4DB6AC" stroke-width="3"/>
<line x1="387.5" y1="367.972" x2="389.5" y2="475.972" stroke="#FBC02D" stroke-width="3"/>
<circle cx="387.5" cy="366.5" r="7.5" fill="#FBC02D"/>
<rect x="308" y="463" width="160" height="79" rx="19" fill="white" stroke="#FBC02D" stroke-width="2"/>
<path d="M354.874 496H347.886V495.026L351.578 490.924C352.125 490.304 352.5 489.801 352.706 489.416C352.916 489.025 353.021 488.622 353.021 488.207C353.021 487.65 352.852 487.194 352.515 486.837C352.178 486.481 351.729 486.303 351.167 486.303C350.494 486.303 349.969 486.496 349.593 486.881C349.222 487.262 349.036 487.794 349.036 488.478H347.681C347.681 487.497 347.996 486.703 348.626 486.098C349.261 485.492 350.108 485.189 351.167 485.189C352.159 485.189 352.942 485.451 353.519 485.973C354.095 486.491 354.383 487.182 354.383 488.046C354.383 489.096 353.714 490.346 352.376 491.796L349.52 494.894H354.874V496ZM362.996 491.452C362.996 493.039 362.725 494.218 362.183 494.989C361.641 495.761 360.794 496.146 359.642 496.146C358.504 496.146 357.662 495.771 357.115 495.019C356.568 494.262 356.285 493.134 356.265 491.635V489.826C356.265 488.258 356.536 487.094 357.078 486.332C357.62 485.57 358.47 485.189 359.627 485.189C360.774 485.189 361.619 485.558 362.161 486.295C362.703 487.028 362.981 488.161 362.996 489.694V491.452ZM361.641 489.599C361.641 488.451 361.48 487.616 361.158 487.094C360.835 486.566 360.325 486.303 359.627 486.303C358.934 486.303 358.428 486.564 358.111 487.086C357.793 487.609 357.63 488.412 357.62 489.496V491.664C357.62 492.816 357.786 493.668 358.118 494.22C358.455 494.767 358.963 495.041 359.642 495.041C360.311 495.041 360.806 494.782 361.128 494.264C361.456 493.747 361.626 492.931 361.641 491.818V489.599ZM371.946 491.247C370.74 490.9 369.861 490.475 369.31 489.972C368.763 489.464 368.489 488.839 368.489 488.097C368.489 487.257 368.824 486.564 369.493 486.017C370.167 485.465 371.041 485.189 372.115 485.189C372.847 485.189 373.499 485.331 374.07 485.614C374.646 485.897 375.091 486.288 375.403 486.786C375.721 487.284 375.879 487.829 375.879 488.419H374.466C374.466 487.775 374.261 487.27 373.851 486.903C373.44 486.532 372.862 486.347 372.115 486.347C371.421 486.347 370.879 486.5 370.489 486.808C370.103 487.111 369.91 487.533 369.91 488.075C369.91 488.51 370.093 488.878 370.459 489.181C370.831 489.479 371.458 489.752 372.342 490.001C373.23 490.25 373.924 490.526 374.422 490.829C374.925 491.127 375.296 491.476 375.535 491.876C375.779 492.277 375.901 492.748 375.901 493.29C375.901 494.154 375.564 494.848 374.891 495.37C374.217 495.888 373.316 496.146 372.188 496.146C371.456 496.146 370.772 496.007 370.137 495.729C369.502 495.446 369.012 495.06 368.665 494.572C368.323 494.083 368.152 493.529 368.152 492.909H369.566C369.566 493.554 369.803 494.064 370.276 494.44C370.755 494.811 371.392 494.997 372.188 494.997C372.93 494.997 373.499 494.845 373.895 494.542C374.29 494.24 374.488 493.827 374.488 493.305C374.488 492.782 374.305 492.379 373.938 492.096C373.572 491.808 372.908 491.525 371.946 491.247ZM378.772 488.075L378.809 488.954C379.39 488.271 380.174 487.929 381.16 487.929C382.269 487.929 383.023 488.354 383.423 489.203C383.687 488.822 384.029 488.515 384.449 488.28C384.874 488.046 385.374 487.929 385.95 487.929C387.688 487.929 388.572 488.849 388.602 490.69V496H387.247V490.771C387.247 490.204 387.117 489.782 386.858 489.503C386.6 489.22 386.165 489.079 385.555 489.079C385.052 489.079 384.634 489.23 384.302 489.533C383.97 489.831 383.777 490.233 383.724 490.741V496H382.361V490.807C382.361 489.655 381.797 489.079 380.669 489.079C379.781 489.079 379.173 489.457 378.846 490.214V496H377.491V488.075H378.772ZM395.545 496C395.467 495.844 395.403 495.565 395.354 495.165C394.725 495.819 393.973 496.146 393.099 496.146C392.317 496.146 391.675 495.927 391.172 495.487C390.674 495.043 390.425 494.481 390.425 493.803C390.425 492.978 390.738 492.338 391.363 491.884C391.993 491.425 392.876 491.195 394.014 491.195H395.333V490.573C395.333 490.099 395.191 489.723 394.908 489.445C394.625 489.162 394.207 489.02 393.655 489.02C393.172 489.02 392.767 489.142 392.439 489.386C392.112 489.63 391.949 489.926 391.949 490.272H390.586C390.586 489.877 390.726 489.496 391.004 489.13C391.287 488.759 391.668 488.466 392.146 488.251C392.63 488.036 393.16 487.929 393.736 487.929C394.649 487.929 395.364 488.158 395.882 488.617C396.399 489.071 396.668 489.699 396.688 490.5V494.147C396.688 494.875 396.78 495.453 396.966 495.883V496H395.545ZM393.296 494.967C393.721 494.967 394.124 494.857 394.505 494.638C394.886 494.418 395.162 494.132 395.333 493.781V492.155H394.271C392.61 492.155 391.78 492.641 391.78 493.612C391.78 494.037 391.922 494.369 392.205 494.608C392.488 494.848 392.852 494.967 393.296 494.967ZM400.284 496H398.929V484.75H400.284V496ZM403.931 496H402.576V484.75H403.931V496ZM417.884 492.616C417.752 493.744 417.334 494.616 416.631 495.231C415.933 495.841 415.003 496.146 413.841 496.146C412.581 496.146 411.57 495.695 410.809 494.792C410.052 493.888 409.673 492.68 409.673 491.166V490.141C409.673 489.149 409.849 488.278 410.201 487.526C410.557 486.774 411.06 486.198 411.709 485.797C412.359 485.392 413.111 485.189 413.965 485.189C415.098 485.189 416.006 485.507 416.69 486.142C417.374 486.771 417.771 487.646 417.884 488.764H416.47C416.348 487.914 416.082 487.299 415.672 486.918C415.267 486.537 414.698 486.347 413.965 486.347C413.067 486.347 412.361 486.679 411.849 487.343C411.341 488.007 411.087 488.952 411.087 490.177V491.21C411.087 492.367 411.329 493.288 411.812 493.971C412.295 494.655 412.972 494.997 413.841 494.997C414.622 494.997 415.22 494.821 415.635 494.469C416.055 494.113 416.333 493.495 416.47 492.616H417.884ZM419.239 491.964C419.239 491.188 419.39 490.49 419.693 489.87C420 489.25 420.425 488.771 420.967 488.434C421.514 488.097 422.137 487.929 422.835 487.929C423.914 487.929 424.786 488.302 425.45 489.049C426.119 489.796 426.453 490.79 426.453 492.03V492.125C426.453 492.897 426.304 493.59 426.006 494.206C425.713 494.816 425.291 495.292 424.739 495.634C424.192 495.976 423.562 496.146 422.85 496.146C421.775 496.146 420.904 495.773 420.235 495.026C419.571 494.279 419.239 493.29 419.239 492.06V491.964ZM420.601 492.125C420.601 493.004 420.804 493.71 421.209 494.242C421.619 494.774 422.166 495.041 422.85 495.041C423.538 495.041 424.085 494.772 424.49 494.235C424.896 493.693 425.098 492.936 425.098 491.964C425.098 491.095 424.891 490.392 424.476 489.855C424.065 489.313 423.519 489.042 422.835 489.042C422.166 489.042 421.626 489.308 421.216 489.84C420.806 490.373 420.601 491.134 420.601 492.125ZM428.819 496V489.123H427.566V488.075H428.819V487.262C428.819 486.413 429.046 485.756 429.5 485.292C429.954 484.828 430.596 484.596 431.426 484.596C431.739 484.596 432.049 484.638 432.356 484.721L432.283 485.819C432.054 485.775 431.81 485.753 431.551 485.753C431.111 485.753 430.772 485.883 430.533 486.142C430.293 486.396 430.174 486.762 430.174 487.24V488.075H431.866V489.123H430.174V496H428.819ZM434.034 496V489.123H432.781V488.075H434.034V487.262C434.034 486.413 434.261 485.756 434.715 485.292C435.169 484.828 435.811 484.596 436.641 484.596C436.954 484.596 437.264 484.638 437.571 484.721L437.498 485.819C437.269 485.775 437.024 485.753 436.766 485.753C436.326 485.753 435.987 485.883 435.748 486.142C435.508 486.396 435.389 486.762 435.389 487.24V488.075H437.081V489.123H435.389V496H434.034ZM441.695 496.146C440.621 496.146 439.747 495.795 439.073 495.092C438.399 494.384 438.062 493.439 438.062 492.257V492.008C438.062 491.222 438.211 490.521 438.509 489.906C438.812 489.286 439.231 488.803 439.769 488.456C440.311 488.104 440.896 487.929 441.526 487.929C442.557 487.929 443.357 488.268 443.929 488.947C444.5 489.625 444.786 490.597 444.786 491.862V492.426H439.417C439.437 493.207 439.664 493.839 440.098 494.323C440.538 494.801 441.094 495.041 441.768 495.041C442.247 495.041 442.652 494.943 442.984 494.748C443.316 494.552 443.606 494.293 443.855 493.971L444.683 494.616C444.019 495.636 443.023 496.146 441.695 496.146ZM441.526 489.042C440.979 489.042 440.521 489.242 440.149 489.643C439.778 490.038 439.549 490.595 439.461 491.312H443.431V491.21C443.392 490.521 443.206 489.989 442.874 489.613C442.542 489.232 442.093 489.042 441.526 489.042ZM449.649 496.146C448.575 496.146 447.701 495.795 447.027 495.092C446.353 494.384 446.016 493.439 446.016 492.257V492.008C446.016 491.222 446.165 490.521 446.463 489.906C446.766 489.286 447.186 488.803 447.723 488.456C448.265 488.104 448.851 487.929 449.48 487.929C450.511 487.929 451.312 488.268 451.883 488.947C452.454 489.625 452.74 490.597 452.74 491.862V492.426H447.371C447.391 493.207 447.618 493.839 448.052 494.323C448.492 494.801 449.048 495.041 449.722 495.041C450.201 495.041 450.606 494.943 450.938 494.748C451.27 494.552 451.561 494.293 451.81 493.971L452.637 494.616C451.973 495.636 450.977 496.146 449.649 496.146ZM449.48 489.042C448.934 489.042 448.475 489.242 448.104 489.643C447.732 490.038 447.503 490.595 447.415 491.312H451.385V491.21C451.346 490.521 451.16 489.989 450.828 489.613C450.496 489.232 450.047 489.042 449.48 489.042Z" fill="black"/>
<circle cx="329.5" cy="490.5" r="7.5" fill="#FF5535"/>
<path d="M354.874 519H347.886V518.026L351.578 513.924C352.125 513.304 352.5 512.801 352.706 512.416C352.916 512.025 353.021 511.622 353.021 511.207C353.021 510.65 352.852 510.194 352.515 509.837C352.178 509.481 351.729 509.303 351.167 509.303C350.494 509.303 349.969 509.496 349.593 509.881C349.222 510.262 349.036 510.794 349.036 511.478H347.681C347.681 510.497 347.996 509.703 348.626 509.098C349.261 508.492 350.108 508.189 351.167 508.189C352.159 508.189 352.942 508.451 353.519 508.973C354.095 509.491 354.383 510.182 354.383 511.046C354.383 512.096 353.714 513.346 352.376 514.796L349.52 517.894H354.874V519ZM362.996 514.452C362.996 516.039 362.725 517.218 362.183 517.989C361.641 518.761 360.794 519.146 359.642 519.146C358.504 519.146 357.662 518.771 357.115 518.019C356.568 517.262 356.285 516.134 356.265 514.635V512.826C356.265 511.258 356.536 510.094 357.078 509.332C357.62 508.57 358.47 508.189 359.627 508.189C360.774 508.189 361.619 508.558 362.161 509.295C362.703 510.028 362.981 511.161 362.996 512.694V514.452ZM361.641 512.599C361.641 511.451 361.48 510.616 361.158 510.094C360.835 509.566 360.325 509.303 359.627 509.303C358.934 509.303 358.428 509.564 358.111 510.086C357.793 510.609 357.63 511.412 357.62 512.496V514.664C357.62 515.816 357.786 516.668 358.118 517.22C358.455 517.767 358.963 518.041 359.642 518.041C360.311 518.041 360.806 517.782 361.128 517.264C361.456 516.747 361.626 515.931 361.641 514.818V512.599ZM370.621 508.336L374.107 517.037L377.593 508.336H379.417V519H378.011V514.847L378.143 510.365L374.642 519H373.565L370.071 510.387L370.21 514.847V519H368.804V508.336H370.621ZM383.16 519H381.805V511.075H383.16V519ZM381.695 508.973C381.695 508.753 381.761 508.568 381.893 508.417C382.029 508.265 382.229 508.189 382.493 508.189C382.757 508.189 382.957 508.265 383.094 508.417C383.23 508.568 383.299 508.753 383.299 508.973C383.299 509.193 383.23 509.376 383.094 509.522C382.957 509.669 382.757 509.742 382.493 509.742C382.229 509.742 382.029 509.669 381.893 509.522C381.761 509.376 381.695 509.193 381.695 508.973ZM386.807 519H385.452V507.75H386.807V519ZM391.194 515.331L390.345 516.217V519H388.99V507.75H390.345V514.554L391.07 513.683L393.538 511.075H395.186L392.103 514.386L395.545 519H393.956L391.194 515.331ZM401.199 516.898C401.199 516.532 401.06 516.249 400.782 516.048C400.508 515.843 400.027 515.667 399.339 515.521C398.655 515.375 398.111 515.199 397.706 514.994C397.305 514.789 397.007 514.544 396.812 514.261C396.622 513.978 396.526 513.641 396.526 513.25C396.526 512.601 396.8 512.052 397.347 511.603C397.898 511.153 398.602 510.929 399.456 510.929C400.354 510.929 401.082 511.161 401.639 511.625C402.2 512.088 402.481 512.682 402.481 513.404H401.119C401.119 513.033 400.96 512.713 400.643 512.445C400.33 512.176 399.935 512.042 399.456 512.042C398.963 512.042 398.577 512.149 398.299 512.364C398.021 512.579 397.881 512.86 397.881 513.207C397.881 513.534 398.011 513.78 398.27 513.946C398.528 514.112 398.995 514.271 399.668 514.422C400.347 514.574 400.896 514.754 401.316 514.964C401.736 515.174 402.046 515.428 402.247 515.726C402.452 516.019 402.554 516.378 402.554 516.803C402.554 517.511 402.271 518.08 401.705 518.509C401.138 518.934 400.403 519.146 399.5 519.146C398.865 519.146 398.304 519.034 397.815 518.81C397.327 518.585 396.944 518.272 396.666 517.872C396.392 517.467 396.255 517.03 396.255 516.561H397.61C397.635 517.015 397.815 517.376 398.152 517.645C398.494 517.909 398.943 518.041 399.5 518.041C400.013 518.041 400.423 517.938 400.73 517.733C401.043 517.523 401.199 517.245 401.199 516.898ZM405.674 512.035C406.275 511.297 407.056 510.929 408.018 510.929C409.693 510.929 410.538 511.874 410.552 513.763V519H409.197V513.756C409.192 513.185 409.061 512.762 408.802 512.489C408.548 512.215 408.15 512.079 407.608 512.079C407.168 512.079 406.783 512.196 406.451 512.43C406.119 512.665 405.86 512.972 405.674 513.353V519H404.319V507.75H405.674V512.035ZM417.474 519C417.396 518.844 417.332 518.565 417.283 518.165C416.653 518.819 415.901 519.146 415.027 519.146C414.246 519.146 413.604 518.927 413.101 518.487C412.603 518.043 412.354 517.481 412.354 516.803C412.354 515.978 412.667 515.338 413.292 514.884C413.921 514.425 414.805 514.195 415.943 514.195H417.261V513.573C417.261 513.099 417.12 512.723 416.836 512.445C416.553 512.162 416.136 512.02 415.584 512.02C415.101 512.02 414.695 512.142 414.368 512.386C414.041 512.63 413.877 512.926 413.877 513.272H412.515C412.515 512.877 412.654 512.496 412.933 512.13C413.216 511.759 413.597 511.466 414.075 511.251C414.559 511.036 415.088 510.929 415.665 510.929C416.578 510.929 417.293 511.158 417.811 511.617C418.328 512.071 418.597 512.699 418.616 513.5V517.147C418.616 517.875 418.709 518.453 418.895 518.883V519H417.474ZM415.225 517.967C415.65 517.967 416.053 517.857 416.434 517.638C416.814 517.418 417.09 517.132 417.261 516.781V515.155H416.199C414.539 515.155 413.709 515.641 413.709 516.612C413.709 517.037 413.851 517.369 414.134 517.608C414.417 517.848 414.781 517.967 415.225 517.967ZM422.952 515.331L422.103 516.217V519H420.748V507.75H422.103V514.554L422.828 513.683L425.296 511.075H426.944L423.86 514.386L427.303 519H425.713L422.952 515.331ZM431.485 519.146C430.411 519.146 429.537 518.795 428.863 518.092C428.189 517.384 427.852 516.439 427.852 515.257V515.008C427.852 514.222 428.001 513.521 428.299 512.906C428.602 512.286 429.021 511.803 429.559 511.456C430.101 511.104 430.687 510.929 431.316 510.929C432.347 510.929 433.147 511.268 433.719 511.947C434.29 512.625 434.576 513.597 434.576 514.862V515.426H429.207C429.227 516.207 429.454 516.839 429.888 517.323C430.328 517.801 430.884 518.041 431.558 518.041C432.037 518.041 432.442 517.943 432.774 517.748C433.106 517.552 433.396 517.293 433.646 516.971L434.473 517.616C433.809 518.636 432.813 519.146 431.485 519.146ZM431.316 512.042C430.77 512.042 430.311 512.242 429.939 512.643C429.568 513.038 429.339 513.595 429.251 514.312H433.221V514.21C433.182 513.521 432.996 512.989 432.664 512.613C432.332 512.232 431.883 512.042 431.316 512.042ZM440.765 516.898C440.765 516.532 440.625 516.249 440.347 516.048C440.074 515.843 439.593 515.667 438.904 515.521C438.221 515.375 437.676 515.199 437.271 514.994C436.871 514.789 436.573 514.544 436.377 514.261C436.187 513.978 436.092 513.641 436.092 513.25C436.092 512.601 436.365 512.052 436.912 511.603C437.464 511.153 438.167 510.929 439.021 510.929C439.92 510.929 440.647 511.161 441.204 511.625C441.766 512.088 442.046 512.682 442.046 513.404H440.684C440.684 513.033 440.525 512.713 440.208 512.445C439.896 512.176 439.5 512.042 439.021 512.042C438.528 512.042 438.143 512.149 437.864 512.364C437.586 512.579 437.447 512.86 437.447 513.207C437.447 513.534 437.576 513.78 437.835 513.946C438.094 514.112 438.56 514.271 439.234 514.422C439.913 514.574 440.462 514.754 440.882 514.964C441.302 515.174 441.612 515.428 441.812 515.726C442.017 516.019 442.12 516.378 442.12 516.803C442.12 517.511 441.836 518.08 441.27 518.509C440.704 518.934 439.969 519.146 439.065 519.146C438.431 519.146 437.869 519.034 437.381 518.81C436.893 518.585 436.509 518.272 436.231 517.872C435.958 517.467 435.821 517.03 435.821 516.561H437.176C437.2 517.015 437.381 517.376 437.718 517.645C438.06 517.909 438.509 518.041 439.065 518.041C439.578 518.041 439.988 517.938 440.296 517.733C440.608 517.523 440.765 517.245 440.765 516.898Z" fill="black"/>
<circle cx="329.5" cy="513.5" r="7.5" fill="#FBC02D"/>
</svg>
