<svg width="1050" height="698" viewBox="0 0 1050 698" fill="none" xmlns="http://www.w3.org/2000/svg">
<rect x="0.5" y="0.5" width="1049" height="697" stroke="#4CB9B2"/>
<path d="M68.0498 114H65.9229V103.726L62.7852 104.798V102.996L67.7773 101.159H68.0498V114ZM80.8379 108.612C80.8379 110.452 80.4922 111.841 79.8008 112.778C79.1152 113.71 78.0693 114.176 76.6631 114.176C75.2803 114.176 74.2373 113.722 73.5342 112.813C72.8369 111.899 72.4795 110.549 72.4619 108.762V106.547C72.4619 104.707 72.8047 103.327 73.4902 102.407C74.1816 101.487 75.2334 101.027 76.6455 101.027C78.0459 101.027 79.0889 101.476 79.7744 102.372C80.4658 103.269 80.8203 104.61 80.8379 106.397V108.612ZM78.7021 106.222C78.7021 105.021 78.5381 104.142 78.21 103.585C77.8818 103.022 77.3604 102.741 76.6455 102.741C75.9482 102.741 75.4355 103.008 75.1074 103.541C74.7793 104.068 74.6064 104.895 74.5889 106.02V108.92C74.5889 110.115 74.7559 111.006 75.0898 111.592C75.4238 112.178 75.9482 112.471 76.6631 112.471C77.3486 112.471 77.8555 112.201 78.1836 111.662C78.5117 111.117 78.6846 110.268 78.7021 109.113V106.222ZM91.0684 108.612C91.0684 110.452 90.7227 111.841 90.0312 112.778C89.3457 113.71 88.2998 114.176 86.8936 114.176C85.5107 114.176 84.4678 113.722 83.7646 112.813C83.0674 111.899 82.71 110.549 82.6924 108.762V106.547C82.6924 104.707 83.0352 103.327 83.7207 102.407C84.4121 101.487 85.4639 101.027 86.876 101.027C88.2764 101.027 89.3193 101.476 90.0049 102.372C90.6963 103.269 91.0508 104.61 91.0684 106.397V108.612ZM88.9326 106.222C88.9326 105.021 88.7686 104.142 88.4404 103.585C88.1123 103.022 87.5908 102.741 86.876 102.741C86.1787 102.741 85.666 103.008 85.3379 103.541C85.0098 104.068 84.8369 104.895 84.8193 106.02V108.92C84.8193 110.115 84.9863 111.006 85.3203 111.592C85.6543 112.178 86.1787 112.471 86.8936 112.471C87.5791 112.471 88.0859 112.201 88.4141 111.662C88.7422 111.117 88.915 110.268 88.9326 109.113V106.222Z" fill="black"/>
<path d="M81.0137 257.39L75.8984 269H73.6572L78.7637 257.917H72.1455V256.203H81.0137V257.39ZM91.0684 263.612C91.0684 265.452 90.7227 266.841 90.0312 267.778C89.3457 268.71 88.2998 269.176 86.8936 269.176C85.5107 269.176 84.4678 268.722 83.7646 267.813C83.0674 266.899 82.71 265.549 82.6924 263.762V261.547C82.6924 259.707 83.0352 258.327 83.7207 257.407C84.4121 256.487 85.4639 256.027 86.876 256.027C88.2764 256.027 89.3193 256.476 90.0049 257.372C90.6963 258.269 91.0508 259.61 91.0684 261.397V263.612ZM88.9326 261.222C88.9326 260.021 88.7686 259.142 88.4404 258.585C88.1123 258.022 87.5908 257.741 86.876 257.741C86.1787 257.741 85.666 258.008 85.3379 258.541C85.0098 259.068 84.8369 259.895 84.8193 261.02V263.92C84.8193 265.115 84.9863 266.006 85.3203 266.592C85.6543 267.178 86.1787 267.471 86.8936 267.471C87.5791 267.471 88.0859 267.201 88.4141 266.662C88.7422 266.117 88.915 265.268 88.9326 264.113V261.222Z" fill="black"/>
<path d="M80.5566 208.578C80.5566 209.205 80.3955 209.765 80.0732 210.257C79.751 210.743 79.3115 211.127 78.7549 211.408C79.4229 211.719 79.9355 212.144 80.293 212.683C80.6562 213.222 80.8379 213.831 80.8379 214.511C80.8379 215.636 80.457 216.529 79.6953 217.191C78.9336 217.848 77.9199 218.176 76.6543 218.176C75.3828 218.176 74.3633 217.845 73.5957 217.183C72.834 216.521 72.4531 215.63 72.4531 214.511C72.4531 213.825 72.6348 213.21 72.998 212.665C73.3613 212.12 73.8711 211.701 74.5273 211.408C73.9766 211.127 73.54 210.743 73.2178 210.257C72.9014 209.765 72.7432 209.205 72.7432 208.578C72.7432 207.488 73.0947 206.624 73.7979 205.985C74.501 205.347 75.4502 205.027 76.6455 205.027C77.8467 205.027 78.7988 205.347 79.502 205.985C80.2051 206.624 80.5566 207.488 80.5566 208.578ZM78.7021 214.405C78.7021 213.772 78.5117 213.263 78.1309 212.876C77.7559 212.483 77.2578 212.287 76.6367 212.287C76.0156 212.287 75.5176 212.48 75.1426 212.867C74.7734 213.254 74.5889 213.767 74.5889 214.405C74.5889 215.032 74.7705 215.533 75.1338 215.908C75.5029 216.283 76.0098 216.471 76.6543 216.471C77.2988 216.471 77.7998 216.289 78.1572 215.926C78.5205 215.562 78.7021 215.056 78.7021 214.405ZM78.4297 208.657C78.4297 208.101 78.2686 207.644 77.9463 207.286C77.624 206.923 77.1904 206.741 76.6455 206.741C76.1006 206.741 75.6699 206.914 75.3535 207.26C75.0371 207.6 74.8789 208.065 74.8789 208.657C74.8789 209.243 75.0371 209.709 75.3535 210.055C75.6758 210.4 76.1094 210.573 76.6543 210.573C77.1992 210.573 77.6299 210.4 77.9463 210.055C78.2686 209.709 78.4297 209.243 78.4297 208.657ZM91.0684 212.612C91.0684 214.452 90.7227 215.841 90.0312 216.778C89.3457 217.71 88.2998 218.176 86.8936 218.176C85.5107 218.176 84.4678 217.722 83.7646 216.813C83.0674 215.899 82.71 214.549 82.6924 212.762V210.547C82.6924 208.707 83.0352 207.327 83.7207 206.407C84.4121 205.487 85.4639 205.027 86.876 205.027C88.2764 205.027 89.3193 205.476 90.0049 206.372C90.6963 207.269 91.0508 208.61 91.0684 210.397V212.612ZM88.9326 210.222C88.9326 209.021 88.7686 208.142 88.4404 207.585C88.1123 207.022 87.5908 206.741 86.876 206.741C86.1787 206.741 85.666 207.008 85.3379 207.541C85.0098 208.068 84.8369 208.895 84.8193 210.02V212.92C84.8193 214.115 84.9863 215.006 85.3203 215.592C85.6543 216.178 86.1787 216.471 86.8936 216.471C87.5791 216.471 88.0859 216.201 88.4141 215.662C88.7422 215.117 88.915 214.268 88.9326 213.113V210.222Z" fill="black"/>
<path d="M78.5527 160.647C77.8379 161.403 77.0029 161.781 76.0479 161.781C74.9229 161.781 74.0264 161.389 73.3584 160.604C72.6904 159.812 72.3564 158.775 72.3564 157.492C72.3564 156.648 72.5264 155.884 72.8662 155.198C73.2061 154.513 73.6895 153.979 74.3164 153.599C74.9434 153.218 75.6699 153.027 76.4961 153.027C77.7852 153.027 78.8076 153.508 79.5635 154.469C80.3193 155.43 80.6973 156.716 80.6973 158.327V158.925C80.6973 161.233 80.1758 162.994 79.1328 164.207C78.0898 165.42 76.5342 166.035 74.4658 166.053H74.2109V164.286H74.5186C75.7783 164.269 76.7451 163.967 77.4189 163.381C78.0928 162.789 78.4707 161.878 78.5527 160.647ZM76.4961 160.111C76.9238 160.111 77.3252 159.988 77.7002 159.742C78.0752 159.496 78.3652 159.156 78.5703 158.723V157.888C78.5703 156.944 78.377 156.186 77.9902 155.611C77.6035 155.037 77.1025 154.75 76.4873 154.75C75.8721 154.75 75.3799 155.005 75.0107 155.515C74.6475 156.019 74.4658 156.657 74.4658 157.431C74.4658 158.233 74.6504 158.881 75.0195 159.373C75.3887 159.865 75.8809 160.111 76.4961 160.111ZM91.0684 160.612C91.0684 162.452 90.7227 163.841 90.0312 164.778C89.3457 165.71 88.2998 166.176 86.8936 166.176C85.5107 166.176 84.4678 165.722 83.7646 164.813C83.0674 163.899 82.71 162.549 82.6924 160.762V158.547C82.6924 156.707 83.0352 155.327 83.7207 154.407C84.4121 153.487 85.4639 153.027 86.876 153.027C88.2764 153.027 89.3193 153.476 90.0049 154.372C90.6963 155.269 91.0508 156.61 91.0684 158.397V160.612ZM88.9326 158.222C88.9326 157.021 88.7686 156.142 88.4404 155.585C88.1123 155.022 87.5908 154.741 86.876 154.741C86.1787 154.741 85.666 155.008 85.3379 155.541C85.0098 156.068 84.8369 156.895 84.8193 158.02V160.92C84.8193 162.115 84.9863 163.006 85.3203 163.592C85.6543 164.178 86.1787 164.471 86.8936 164.471C87.5791 164.471 88.0859 164.201 88.4141 163.662C88.7422 163.117 88.915 162.268 88.9326 161.113V158.222Z" fill="black"/>
<path d="M79.1416 308.142V309.908H78.8779C77.6826 309.926 76.7275 310.254 76.0127 310.893C75.2979 311.531 74.873 312.437 74.7383 313.608C75.4238 312.888 76.2998 312.527 77.3662 312.527C78.4971 312.527 79.3877 312.926 80.0381 313.723C80.6943 314.52 81.0225 315.548 81.0225 316.808C81.0225 318.108 80.6387 319.163 79.8711 319.972C79.1094 320.774 78.1074 321.176 76.8652 321.176C75.5879 321.176 74.5508 320.704 73.7539 319.761C72.9629 318.817 72.5674 317.581 72.5674 316.052V315.322C72.5674 313.078 73.1123 311.32 74.2021 310.049C75.2979 308.777 76.8711 308.142 78.9219 308.142H79.1416ZM76.8477 314.25C76.3789 314.25 75.9482 314.382 75.5557 314.646C75.1689 314.909 74.8848 315.261 74.7031 315.7V316.351C74.7031 317.3 74.9023 318.056 75.3008 318.618C75.6992 319.175 76.2148 319.453 76.8477 319.453C77.4805 319.453 77.9814 319.216 78.3506 318.741C78.7197 318.267 78.9043 317.643 78.9043 316.869C78.9043 316.096 78.7168 315.466 78.3418 314.979C77.9668 314.493 77.4688 314.25 76.8477 314.25ZM91.0684 315.612C91.0684 317.452 90.7227 318.841 90.0312 319.778C89.3457 320.71 88.2998 321.176 86.8936 321.176C85.5107 321.176 84.4678 320.722 83.7646 319.813C83.0674 318.899 82.71 317.549 82.6924 315.762V313.547C82.6924 311.707 83.0352 310.327 83.7207 309.407C84.4121 308.487 85.4639 308.027 86.876 308.027C88.2764 308.027 89.3193 308.476 90.0049 309.372C90.6963 310.269 91.0508 311.61 91.0684 313.397V315.612ZM88.9326 313.222C88.9326 312.021 88.7686 311.142 88.4404 310.585C88.1123 310.022 87.5908 309.741 86.876 309.741C86.1787 309.741 85.666 310.008 85.3379 310.541C85.0098 311.068 84.8369 311.895 84.8193 313.02V315.92C84.8193 317.115 84.9863 318.006 85.3203 318.592C85.6543 319.178 86.1787 319.471 86.8936 319.471C87.5791 319.471 88.0859 319.201 88.4141 318.662C88.7422 318.117 88.915 317.268 88.9326 316.113V313.222Z" fill="black"/>
<path d="M73.0684 366.654L73.7627 360.203H80.6357V362.049H75.5381L75.1865 365.107C75.7783 364.768 76.4463 364.598 77.1904 364.598C78.4092 364.598 79.3555 364.987 80.0293 365.767C80.709 366.546 81.0488 367.595 81.0488 368.913C81.0488 370.214 80.6738 371.251 79.9238 372.024C79.1738 372.792 78.1455 373.176 76.8389 373.176C75.667 373.176 74.6943 372.845 73.9209 372.183C73.1533 371.515 72.7373 370.636 72.6729 369.546H74.7383C74.8203 370.167 75.043 370.645 75.4062 370.979C75.7695 371.307 76.2441 371.471 76.8301 371.471C77.4863 371.471 77.9961 371.236 78.3594 370.768C78.7285 370.299 78.9131 369.66 78.9131 368.852C78.9131 368.072 78.7109 367.457 78.3066 367.006C77.9023 366.549 77.3457 366.32 76.6367 366.32C76.25 366.32 75.9219 366.373 75.6523 366.479C75.3828 366.578 75.0898 366.777 74.7734 367.076L73.0684 366.654ZM91.0684 367.612C91.0684 369.452 90.7227 370.841 90.0312 371.778C89.3457 372.71 88.2998 373.176 86.8936 373.176C85.5107 373.176 84.4678 372.722 83.7646 371.813C83.0674 370.899 82.71 369.549 82.6924 367.762V365.547C82.6924 363.707 83.0352 362.327 83.7207 361.407C84.4121 360.487 85.4639 360.027 86.876 360.027C88.2764 360.027 89.3193 360.476 90.0049 361.372C90.6963 362.269 91.0508 363.61 91.0684 365.397V367.612ZM88.9326 365.222C88.9326 364.021 88.7686 363.142 88.4404 362.585C88.1123 362.022 87.5908 361.741 86.876 361.741C86.1787 361.741 85.666 362.008 85.3379 362.541C85.0098 363.068 84.8369 363.895 84.8193 365.02V367.92C84.8193 369.115 84.9863 370.006 85.3203 370.592C85.6543 371.178 86.1787 371.471 86.8936 371.471C87.5791 371.471 88.0859 371.201 88.4141 370.662C88.7422 370.117 88.915 369.268 88.9326 368.113V365.222Z" fill="black"/>
<path d="M79.7217 420.438H81.3125V422.152H79.7217V425H77.5859V422.152H72.0576L71.9961 420.852L77.5156 412.203H79.7217V420.438ZM74.2373 420.438H77.5859V415.095L77.4277 415.376L74.2373 420.438ZM91.0684 419.612C91.0684 421.452 90.7227 422.841 90.0312 423.778C89.3457 424.71 88.2998 425.176 86.8936 425.176C85.5107 425.176 84.4678 424.722 83.7646 423.813C83.0674 422.899 82.71 421.549 82.6924 419.762V417.547C82.6924 415.707 83.0352 414.327 83.7207 413.407C84.4121 412.487 85.4639 412.027 86.876 412.027C88.2764 412.027 89.3193 412.476 90.0049 413.372C90.6963 414.269 91.0508 415.61 91.0684 417.397V419.612ZM88.9326 417.222C88.9326 416.021 88.7686 415.142 88.4404 414.585C88.1123 414.022 87.5908 413.741 86.876 413.741C86.1787 413.741 85.666 414.008 85.3379 414.541C85.0098 415.068 84.8369 415.895 84.8193 417.02V419.92C84.8193 421.115 84.9863 422.006 85.3203 422.592C85.6543 423.178 86.1787 423.471 86.8936 423.471C87.5791 423.471 88.0859 423.201 88.4141 422.662C88.7422 422.117 88.915 421.268 88.9326 420.113V417.222Z" fill="black"/>
<path d="M74.9668 469.626H76.2676C76.9238 469.62 77.4424 469.45 77.8232 469.116C78.21 468.782 78.4033 468.299 78.4033 467.666C78.4033 467.057 78.2422 466.585 77.9199 466.251C77.6035 465.911 77.1172 465.741 76.4609 465.741C75.8867 465.741 75.415 465.908 75.0459 466.242C74.6768 466.57 74.4922 467.001 74.4922 467.534H72.3564C72.3564 466.878 72.5293 466.28 72.875 465.741C73.2266 465.202 73.7129 464.783 74.334 464.484C74.9609 464.18 75.6611 464.027 76.4346 464.027C77.7119 464.027 78.7139 464.35 79.4404 464.994C80.1729 465.633 80.5391 466.523 80.5391 467.666C80.5391 468.24 80.3545 468.782 79.9854 469.292C79.6221 469.796 79.1504 470.177 78.5703 470.435C79.2734 470.675 79.8066 471.053 80.1699 471.568C80.5391 472.084 80.7236 472.699 80.7236 473.414C80.7236 474.562 80.3281 475.477 79.5371 476.156C78.752 476.836 77.7178 477.176 76.4346 477.176C75.2041 477.176 74.1963 476.848 73.4111 476.191C72.626 475.535 72.2334 474.662 72.2334 473.572H74.3691C74.3691 474.135 74.5566 474.592 74.9316 474.943C75.3125 475.295 75.8223 475.471 76.4609 475.471C77.123 475.471 77.6445 475.295 78.0254 474.943C78.4062 474.592 78.5967 474.082 78.5967 473.414C78.5967 472.74 78.3975 472.222 77.999 471.858C77.6006 471.495 77.0088 471.313 76.2236 471.313H74.9668V469.626ZM91.0684 471.612C91.0684 473.452 90.7227 474.841 90.0312 475.778C89.3457 476.71 88.2998 477.176 86.8936 477.176C85.5107 477.176 84.4678 476.722 83.7646 475.813C83.0674 474.899 82.71 473.549 82.6924 471.762V469.547C82.6924 467.707 83.0352 466.327 83.7207 465.407C84.4121 464.487 85.4639 464.027 86.876 464.027C88.2764 464.027 89.3193 464.476 90.0049 465.372C90.6963 466.269 91.0508 467.61 91.0684 469.397V471.612ZM88.9326 469.222C88.9326 468.021 88.7686 467.142 88.4404 466.585C88.1123 466.022 87.5908 465.741 86.876 465.741C86.1787 465.741 85.666 466.008 85.3379 466.541C85.0098 467.068 84.8369 467.895 84.8193 469.02V471.92C84.8193 473.115 84.9863 474.006 85.3203 474.592C85.6543 475.178 86.1787 475.471 86.8936 475.471C87.5791 475.471 88.0859 475.201 88.4141 474.662C88.7422 474.117 88.915 473.268 88.9326 472.113V469.222Z" fill="black"/>
<path d="M81.1016 529H72.4971V527.532L76.7598 522.883C77.375 522.197 77.8115 521.626 78.0693 521.169C78.333 520.706 78.4648 520.243 78.4648 519.78C78.4648 519.171 78.292 518.679 77.9463 518.304C77.6064 517.929 77.1465 517.741 76.5664 517.741C75.875 517.741 75.3389 517.952 74.958 518.374C74.5771 518.796 74.3867 519.373 74.3867 520.105H72.251C72.251 519.326 72.4268 518.626 72.7783 518.005C73.1357 517.378 73.6426 516.892 74.2988 516.546C74.9609 516.2 75.7227 516.027 76.584 516.027C77.8262 516.027 78.8047 516.341 79.5195 516.968C80.2402 517.589 80.6006 518.45 80.6006 519.552C80.6006 520.19 80.4189 520.861 80.0557 521.564C79.6982 522.262 79.1094 523.056 78.2891 523.946L75.1602 527.295H81.1016V529ZM91.0684 523.612C91.0684 525.452 90.7227 526.841 90.0312 527.778C89.3457 528.71 88.2998 529.176 86.8936 529.176C85.5107 529.176 84.4678 528.722 83.7646 527.813C83.0674 526.899 82.71 525.549 82.6924 523.762V521.547C82.6924 519.707 83.0352 518.327 83.7207 517.407C84.4121 516.487 85.4639 516.027 86.876 516.027C88.2764 516.027 89.3193 516.476 90.0049 517.372C90.6963 518.269 91.0508 519.61 91.0684 521.397V523.612ZM88.9326 521.222C88.9326 520.021 88.7686 519.142 88.4404 518.585C88.1123 518.022 87.5908 517.741 86.876 517.741C86.1787 517.741 85.666 518.008 85.3379 518.541C85.0098 519.068 84.8369 519.895 84.8193 521.02V523.92C84.8193 525.115 84.9863 526.006 85.3203 526.592C85.6543 527.178 86.1787 527.471 86.8936 527.471C87.5791 527.471 88.0859 527.201 88.4141 526.662C88.7422 526.117 88.915 525.268 88.9326 524.113V521.222Z" fill="black"/>
<path d="M78.2803 581H76.1533V570.726L73.0156 571.798V569.996L78.0078 568.159H78.2803V581ZM91.0684 575.612C91.0684 577.452 90.7227 578.841 90.0312 579.778C89.3457 580.71 88.2998 581.176 86.8936 581.176C85.5107 581.176 84.4678 580.722 83.7646 579.813C83.0674 578.899 82.71 577.549 82.6924 575.762V573.547C82.6924 571.707 83.0352 570.327 83.7207 569.407C84.4121 568.487 85.4639 568.027 86.876 568.027C88.2764 568.027 89.3193 568.476 90.0049 569.372C90.6963 570.269 91.0508 571.61 91.0684 573.397V575.612ZM88.9326 573.222C88.9326 572.021 88.7686 571.142 88.4404 570.585C88.1123 570.022 87.5908 569.741 86.876 569.741C86.1787 569.741 85.666 570.008 85.3379 570.541C85.0098 571.068 84.8369 571.895 84.8193 573.02V575.92C84.8193 577.115 84.9863 578.006 85.3203 578.592C85.6543 579.178 86.1787 579.471 86.8936 579.471C87.5791 579.471 88.0859 579.201 88.4141 578.662C88.7422 578.117 88.915 577.268 88.9326 576.113V573.222Z" fill="black"/>
<path d="M91.0684 627.612C91.0684 629.452 90.7227 630.841 90.0312 631.778C89.3457 632.71 88.2998 633.176 86.8936 633.176C85.5107 633.176 84.4678 632.722 83.7646 631.813C83.0674 630.899 82.71 629.549 82.6924 627.762V625.547C82.6924 623.707 83.0352 622.327 83.7207 621.407C84.4121 620.487 85.4639 620.027 86.876 620.027C88.2764 620.027 89.3193 620.476 90.0049 621.372C90.6963 622.269 91.0508 623.61 91.0684 625.397V627.612ZM88.9326 625.222C88.9326 624.021 88.7686 623.142 88.4404 622.585C88.1123 622.022 87.5908 621.741 86.876 621.741C86.1787 621.741 85.666 622.008 85.3379 622.541C85.0098 623.068 84.8369 623.895 84.8193 625.02V627.92C84.8193 629.115 84.9863 630.006 85.3203 630.592C85.6543 631.178 86.1787 631.471 86.8936 631.471C87.5791 631.471 88.0859 631.201 88.4141 630.662C88.7422 630.117 88.915 629.268 88.9326 628.113V625.222Z" fill="black"/>
<path d="M133.159 657.203H135.374V666.177C135.374 667.401 134.99 668.374 134.223 669.095C133.461 669.815 132.453 670.176 131.199 670.176C129.863 670.176 128.832 669.839 128.105 669.165C127.379 668.491 127.016 667.554 127.016 666.353H129.23C129.23 667.032 129.397 667.545 129.731 667.891C130.071 668.23 130.561 668.4 131.199 668.4C131.797 668.4 132.271 668.204 132.623 667.812C132.98 667.413 133.159 666.865 133.159 666.168V657.203ZM143.398 670C143.305 669.818 143.223 669.522 143.152 669.112C142.473 669.821 141.641 670.176 140.656 670.176C139.701 670.176 138.922 669.903 138.318 669.358C137.715 668.813 137.413 668.14 137.413 667.337C137.413 666.323 137.788 665.547 138.538 665.008C139.294 664.463 140.372 664.19 141.772 664.19H143.082V663.566C143.082 663.074 142.944 662.682 142.669 662.389C142.394 662.09 141.975 661.94 141.412 661.94C140.926 661.94 140.527 662.063 140.217 662.31C139.906 662.55 139.751 662.857 139.751 663.232H137.615C137.615 662.711 137.788 662.225 138.134 661.773C138.479 661.316 138.948 660.959 139.54 660.701C140.138 660.443 140.803 660.314 141.535 660.314C142.648 660.314 143.536 660.596 144.198 661.158C144.86 661.715 145.2 662.5 145.218 663.514V667.803C145.218 668.658 145.338 669.341 145.578 669.851V670H143.398ZM141.052 668.462C141.474 668.462 141.869 668.359 142.238 668.154C142.613 667.949 142.895 667.674 143.082 667.328V665.535H141.931C141.14 665.535 140.545 665.673 140.146 665.948C139.748 666.224 139.549 666.613 139.549 667.117C139.549 667.527 139.684 667.855 139.953 668.102C140.229 668.342 140.595 668.462 141.052 668.462ZM149.437 660.49L149.498 661.589C150.201 660.739 151.124 660.314 152.267 660.314C154.247 660.314 155.255 661.448 155.29 663.716V670H153.154V663.839C153.154 663.235 153.022 662.79 152.759 662.503C152.501 662.21 152.076 662.063 151.484 662.063C150.623 662.063 149.981 662.453 149.56 663.232V670H147.424V660.49H149.437Z" fill="black"/>
<path d="M604.734 657.203H606.949V666.177C606.949 667.401 606.565 668.374 605.798 669.095C605.036 669.815 604.028 670.176 602.774 670.176C601.438 670.176 600.407 669.839 599.681 669.165C598.954 668.491 598.591 667.554 598.591 666.353H600.806C600.806 667.032 600.973 667.545 601.307 667.891C601.646 668.23 602.136 668.4 602.774 668.4C603.372 668.4 603.847 668.204 604.198 667.812C604.556 667.413 604.734 666.865 604.734 666.168V657.203ZM615.053 669.068C614.426 669.807 613.535 670.176 612.381 670.176C611.35 670.176 610.567 669.874 610.034 669.271C609.507 668.667 609.243 667.794 609.243 666.651V660.49H611.379V666.625C611.379 667.832 611.88 668.436 612.882 668.436C613.919 668.436 614.619 668.063 614.982 667.319V660.49H617.118V670H615.105L615.053 669.068ZM621.565 670H619.43V656.5H621.565V670Z" fill="black"/>
<path d="M133.159 657.203H135.374V666.177C135.374 667.401 134.99 668.374 134.223 669.095C133.461 669.815 132.453 670.176 131.199 670.176C129.863 670.176 128.832 669.839 128.105 669.165C127.379 668.491 127.016 667.554 127.016 666.353H129.23C129.23 667.032 129.397 667.545 129.731 667.891C130.071 668.23 130.561 668.4 131.199 668.4C131.797 668.4 132.271 668.204 132.623 667.812C132.98 667.413 133.159 666.865 133.159 666.168V657.203ZM143.398 670C143.305 669.818 143.223 669.522 143.152 669.112C142.473 669.821 141.641 670.176 140.656 670.176C139.701 670.176 138.922 669.903 138.318 669.358C137.715 668.813 137.413 668.14 137.413 667.337C137.413 666.323 137.788 665.547 138.538 665.008C139.294 664.463 140.372 664.19 141.772 664.19H143.082V663.566C143.082 663.074 142.944 662.682 142.669 662.389C142.394 662.09 141.975 661.94 141.412 661.94C140.926 661.94 140.527 662.063 140.217 662.31C139.906 662.55 139.751 662.857 139.751 663.232H137.615C137.615 662.711 137.788 662.225 138.134 661.773C138.479 661.316 138.948 660.959 139.54 660.701C140.138 660.443 140.803 660.314 141.535 660.314C142.648 660.314 143.536 660.596 144.198 661.158C144.86 661.715 145.2 662.5 145.218 663.514V667.803C145.218 668.658 145.338 669.341 145.578 669.851V670H143.398ZM141.052 668.462C141.474 668.462 141.869 668.359 142.238 668.154C142.613 667.949 142.895 667.674 143.082 667.328V665.535H141.931C141.14 665.535 140.545 665.673 140.146 665.948C139.748 666.224 139.549 666.613 139.549 667.117C139.549 667.527 139.684 667.855 139.953 668.102C140.229 668.342 140.595 668.462 141.052 668.462ZM149.437 660.49L149.498 661.589C150.201 660.739 151.124 660.314 152.267 660.314C154.247 660.314 155.255 661.448 155.29 663.716V670H153.154V663.839C153.154 663.235 153.022 662.79 152.759 662.503C152.501 662.21 152.076 662.063 151.484 662.063C150.623 662.063 149.981 662.453 149.56 663.232V670H147.424V660.49H149.437Z" fill="black"/>
<path d="M198.918 664.577H193.768V670H191.544V657.203H199.674V658.996H193.768V662.802H198.918V664.577ZM205.229 670.176C203.875 670.176 202.776 669.751 201.933 668.901C201.095 668.046 200.676 666.909 200.676 665.491V665.228C200.676 664.278 200.857 663.432 201.221 662.688C201.59 661.938 202.105 661.354 202.768 660.938C203.43 660.522 204.168 660.314 204.982 660.314C206.277 660.314 207.276 660.728 207.979 661.554C208.688 662.38 209.043 663.549 209.043 665.061V665.922H202.829C202.894 666.707 203.154 667.328 203.611 667.785C204.074 668.242 204.654 668.471 205.352 668.471C206.33 668.471 207.127 668.075 207.742 667.284L208.894 668.383C208.513 668.951 208.003 669.394 207.364 669.71C206.731 670.021 206.02 670.176 205.229 670.176ZM204.974 662.028C204.388 662.028 203.913 662.233 203.55 662.644C203.192 663.054 202.964 663.625 202.864 664.357H206.934V664.199C206.887 663.484 206.696 662.945 206.362 662.582C206.028 662.213 205.565 662.028 204.974 662.028ZM219.054 665.342C219.054 666.818 218.723 667.993 218.061 668.866C217.404 669.739 216.499 670.176 215.345 670.176C214.231 670.176 213.364 669.774 212.743 668.972L212.638 670H210.704V656.5H212.84V661.404C213.455 660.678 214.284 660.314 215.327 660.314C216.487 660.314 217.398 660.745 218.061 661.606C218.723 662.468 219.054 663.672 219.054 665.219V665.342ZM216.918 665.157C216.918 664.126 216.736 663.353 216.373 662.837C216.01 662.321 215.482 662.063 214.791 662.063C213.865 662.063 213.215 662.468 212.84 663.276V667.196C213.221 668.022 213.877 668.436 214.809 668.436C215.477 668.436 215.992 668.187 216.355 667.688C216.719 667.19 216.906 666.438 216.918 665.43V665.157Z" fill="black"/>
<path d="M666.415 667.021H661.458L660.421 670H658.109L662.943 657.203H664.938L669.781 670H667.461L666.415 667.021ZM662.082 665.228H665.791L663.937 659.919L662.082 665.228ZM676.689 669.068C676.062 669.807 675.172 670.176 674.018 670.176C672.986 670.176 672.204 669.874 671.671 669.271C671.144 668.667 670.88 667.794 670.88 666.651V660.49H673.016V666.625C673.016 667.832 673.517 668.436 674.519 668.436C675.556 668.436 676.256 668.063 676.619 667.319V660.49H678.755V670H676.742L676.689 669.068ZM680.557 665.175C680.557 663.698 680.902 662.521 681.594 661.642C682.291 660.757 683.214 660.314 684.362 660.314C685.446 660.314 686.299 660.692 686.92 661.448L687.017 660.49H688.941V669.71C688.941 670.958 688.552 671.942 687.772 672.663C686.999 673.384 685.953 673.744 684.635 673.744C683.938 673.744 683.255 673.598 682.587 673.305C681.925 673.018 681.421 672.64 681.075 672.171L682.086 670.888C682.742 671.667 683.551 672.057 684.512 672.057C685.221 672.057 685.78 671.863 686.19 671.477C686.601 671.096 686.806 670.533 686.806 669.789V669.147C686.19 669.833 685.37 670.176 684.345 670.176C683.231 670.176 682.32 669.733 681.611 668.849C680.908 667.964 680.557 666.739 680.557 665.175ZM682.684 665.359C682.684 666.314 682.877 667.067 683.264 667.618C683.656 668.163 684.198 668.436 684.89 668.436C685.751 668.436 686.39 668.066 686.806 667.328V663.145C686.401 662.424 685.769 662.063 684.907 662.063C684.204 662.063 683.656 662.342 683.264 662.898C682.877 663.455 682.684 664.275 682.684 665.359Z" fill="black"/>
<path d="M198.918 664.577H193.768V670H191.544V657.203H199.674V658.996H193.768V662.802H198.918V664.577ZM205.229 670.176C203.875 670.176 202.776 669.751 201.933 668.901C201.095 668.046 200.676 666.909 200.676 665.491V665.228C200.676 664.278 200.857 663.432 201.221 662.688C201.59 661.938 202.105 661.354 202.768 660.938C203.43 660.522 204.168 660.314 204.982 660.314C206.277 660.314 207.276 660.728 207.979 661.554C208.688 662.38 209.043 663.549 209.043 665.061V665.922H202.829C202.894 666.707 203.154 667.328 203.611 667.785C204.074 668.242 204.654 668.471 205.352 668.471C206.33 668.471 207.127 668.075 207.742 667.284L208.894 668.383C208.513 668.951 208.003 669.394 207.364 669.71C206.731 670.021 206.02 670.176 205.229 670.176ZM204.974 662.028C204.388 662.028 203.913 662.233 203.55 662.644C203.192 663.054 202.964 663.625 202.864 664.357H206.934V664.199C206.887 663.484 206.696 662.945 206.362 662.582C206.028 662.213 205.565 662.028 204.974 662.028ZM219.054 665.342C219.054 666.818 218.723 667.993 218.061 668.866C217.404 669.739 216.499 670.176 215.345 670.176C214.231 670.176 213.364 669.774 212.743 668.972L212.638 670H210.704V656.5H212.84V661.404C213.455 660.678 214.284 660.314 215.327 660.314C216.487 660.314 217.398 660.745 218.061 661.606C218.723 662.468 219.054 663.672 219.054 665.219V665.342ZM216.918 665.157C216.918 664.126 216.736 663.353 216.373 662.837C216.01 662.321 215.482 662.063 214.791 662.063C213.865 662.063 213.215 662.468 212.84 663.276V667.196C213.221 668.022 213.877 668.436 214.809 668.436C215.477 668.436 215.992 668.187 216.355 667.688C216.719 667.19 216.906 666.438 216.918 665.43V665.157Z" fill="black"/>
<path d="M260.143 657.203L263.834 667.012L267.517 657.203H270.391V670H268.176V665.781L268.396 660.139L264.616 670H263.025L259.255 660.147L259.475 665.781V670H257.26V657.203H260.143ZM278.503 670C278.409 669.818 278.327 669.522 278.257 669.112C277.577 669.821 276.745 670.176 275.761 670.176C274.806 670.176 274.026 669.903 273.423 669.358C272.819 668.813 272.518 668.14 272.518 667.337C272.518 666.323 272.893 665.547 273.643 665.008C274.398 664.463 275.477 664.19 276.877 664.19H278.187V663.566C278.187 663.074 278.049 662.682 277.773 662.389C277.498 662.09 277.079 661.94 276.517 661.94C276.03 661.94 275.632 662.063 275.321 662.31C275.011 662.55 274.855 662.857 274.855 663.232H272.72C272.72 662.711 272.893 662.225 273.238 661.773C273.584 661.316 274.053 660.959 274.645 660.701C275.242 660.443 275.907 660.314 276.64 660.314C277.753 660.314 278.641 660.596 279.303 661.158C279.965 661.715 280.305 662.5 280.322 663.514V667.803C280.322 668.658 280.442 669.341 280.683 669.851V670H278.503ZM276.156 668.462C276.578 668.462 276.974 668.359 277.343 668.154C277.718 667.949 277.999 667.674 278.187 667.328V665.535H277.035C276.244 665.535 275.649 665.673 275.251 665.948C274.853 666.224 274.653 666.613 274.653 667.117C274.653 667.527 274.788 667.855 275.058 668.102C275.333 668.342 275.699 668.462 276.156 668.462ZM287.538 662.441C287.257 662.395 286.967 662.371 286.668 662.371C285.689 662.371 285.03 662.746 284.69 663.496V670H282.555V660.49H284.594L284.646 661.554C285.162 660.728 285.877 660.314 286.791 660.314C287.096 660.314 287.348 660.355 287.547 660.438L287.538 662.441ZM292.618 668.471C293.151 668.471 293.594 668.315 293.945 668.005C294.297 667.694 294.484 667.311 294.508 666.854H296.521C296.497 667.445 296.312 667.999 295.967 668.515C295.621 669.024 295.152 669.429 294.561 669.728C293.969 670.026 293.33 670.176 292.645 670.176C291.314 670.176 290.26 669.745 289.48 668.884C288.701 668.022 288.312 666.833 288.312 665.315V665.096C288.312 663.648 288.698 662.491 289.472 661.624C290.245 660.751 291.3 660.314 292.636 660.314C293.767 660.314 294.687 660.646 295.396 661.308C296.11 661.964 296.485 662.828 296.521 663.9H294.508C294.484 663.355 294.297 662.907 293.945 662.556C293.6 662.204 293.157 662.028 292.618 662.028C291.927 662.028 291.394 662.28 291.019 662.784C290.644 663.282 290.453 664.041 290.447 665.061V665.403C290.447 666.435 290.632 667.205 291.001 667.715C291.376 668.219 291.915 668.471 292.618 668.471ZM300.238 661.527C300.936 660.719 301.817 660.314 302.884 660.314C304.911 660.314 305.939 661.472 305.969 663.786V670H303.833V663.865C303.833 663.209 303.689 662.746 303.402 662.477C303.121 662.201 302.705 662.063 302.154 662.063C301.299 662.063 300.66 662.444 300.238 663.206V670H298.103V656.5H300.238V661.527Z" fill="black"/>
<path d="M742.155 666.704C742.155 666.142 741.956 665.708 741.558 665.403C741.165 665.099 740.453 664.791 739.422 664.48C738.391 664.17 737.57 663.824 736.961 663.443C735.795 662.711 735.212 661.756 735.212 660.578C735.212 659.547 735.631 658.697 736.469 658.029C737.312 657.361 738.405 657.027 739.747 657.027C740.638 657.027 741.432 657.191 742.129 657.52C742.826 657.848 743.374 658.316 743.772 658.926C744.171 659.529 744.37 660.2 744.37 660.938H742.155C742.155 660.271 741.944 659.749 741.522 659.374C741.106 658.993 740.509 658.803 739.729 658.803C739.003 658.803 738.438 658.958 738.033 659.269C737.635 659.579 737.436 660.013 737.436 660.569C737.436 661.038 737.652 661.431 738.086 661.747C738.52 662.058 739.234 662.362 740.23 662.661C741.227 662.954 742.026 663.291 742.63 663.672C743.233 664.047 743.676 664.48 743.957 664.973C744.238 665.459 744.379 666.03 744.379 666.687C744.379 667.753 743.969 668.603 743.148 669.235C742.334 669.862 741.227 670.176 739.826 670.176C738.9 670.176 738.048 670.006 737.269 669.666C736.495 669.32 735.892 668.846 735.458 668.242C735.03 667.639 734.816 666.936 734.816 666.133H737.04C737.04 666.859 737.28 667.422 737.761 667.82C738.241 668.219 738.93 668.418 739.826 668.418C740.6 668.418 741.18 668.263 741.566 667.952C741.959 667.636 742.155 667.22 742.155 666.704ZM750.312 670.176C748.958 670.176 747.859 669.751 747.016 668.901C746.178 668.046 745.759 666.909 745.759 665.491V665.228C745.759 664.278 745.94 663.432 746.304 662.688C746.673 661.938 747.188 661.354 747.851 660.938C748.513 660.522 749.251 660.314 750.065 660.314C751.36 660.314 752.359 660.728 753.062 661.554C753.771 662.38 754.126 663.549 754.126 665.061V665.922H747.912C747.977 666.707 748.237 667.328 748.694 667.785C749.157 668.242 749.737 668.471 750.435 668.471C751.413 668.471 752.21 668.075 752.825 667.284L753.977 668.383C753.596 668.951 753.086 669.394 752.447 669.71C751.814 670.021 751.103 670.176 750.312 670.176ZM750.057 662.028C749.471 662.028 748.996 662.233 748.633 662.644C748.275 663.054 748.047 663.625 747.947 664.357H752.017V664.199C751.97 663.484 751.779 662.945 751.445 662.582C751.111 662.213 750.648 662.028 750.057 662.028ZM764.119 665.342C764.119 666.812 763.785 667.987 763.117 668.866C762.449 669.739 761.553 670.176 760.428 670.176C759.385 670.176 758.55 669.833 757.923 669.147V673.656H755.787V660.49H757.756L757.844 661.457C758.471 660.695 759.323 660.314 760.401 660.314C761.562 660.314 762.47 660.748 763.126 661.615C763.788 662.477 764.119 663.675 764.119 665.21V665.342ZM761.992 665.157C761.992 664.208 761.802 663.455 761.421 662.898C761.046 662.342 760.507 662.063 759.804 662.063C758.931 662.063 758.304 662.424 757.923 663.145V667.363C758.31 668.102 758.942 668.471 759.821 668.471C760.501 668.471 761.031 668.198 761.412 667.653C761.799 667.103 761.992 666.271 761.992 665.157ZM768.61 658.179V660.49H770.289V662.072H768.61V667.381C768.61 667.744 768.681 668.008 768.821 668.172C768.968 668.33 769.226 668.409 769.595 668.409C769.841 668.409 770.09 668.38 770.342 668.321V669.974C769.855 670.108 769.387 670.176 768.936 670.176C767.295 670.176 766.475 669.271 766.475 667.46V662.072H764.91V660.49H766.475V658.179H768.61Z" fill="black"/>
<path d="M260.143 657.203L263.834 667.012L267.517 657.203H270.391V670H268.176V665.781L268.396 660.139L264.616 670H263.025L259.255 660.147L259.475 665.781V670H257.26V657.203H260.143ZM278.503 670C278.409 669.818 278.327 669.522 278.257 669.112C277.577 669.821 276.745 670.176 275.761 670.176C274.806 670.176 274.026 669.903 273.423 669.358C272.819 668.813 272.518 668.14 272.518 667.337C272.518 666.323 272.893 665.547 273.643 665.008C274.398 664.463 275.477 664.19 276.877 664.19H278.187V663.566C278.187 663.074 278.049 662.682 277.773 662.389C277.498 662.09 277.079 661.94 276.517 661.94C276.03 661.94 275.632 662.063 275.321 662.31C275.011 662.55 274.855 662.857 274.855 663.232H272.72C272.72 662.711 272.893 662.225 273.238 661.773C273.584 661.316 274.053 660.959 274.645 660.701C275.242 660.443 275.907 660.314 276.64 660.314C277.753 660.314 278.641 660.596 279.303 661.158C279.965 661.715 280.305 662.5 280.322 663.514V667.803C280.322 668.658 280.442 669.341 280.683 669.851V670H278.503ZM276.156 668.462C276.578 668.462 276.974 668.359 277.343 668.154C277.718 667.949 277.999 667.674 278.187 667.328V665.535H277.035C276.244 665.535 275.649 665.673 275.251 665.948C274.853 666.224 274.653 666.613 274.653 667.117C274.653 667.527 274.788 667.855 275.058 668.102C275.333 668.342 275.699 668.462 276.156 668.462ZM287.538 662.441C287.257 662.395 286.967 662.371 286.668 662.371C285.689 662.371 285.03 662.746 284.69 663.496V670H282.555V660.49H284.594L284.646 661.554C285.162 660.728 285.877 660.314 286.791 660.314C287.096 660.314 287.348 660.355 287.547 660.438L287.538 662.441ZM292.618 668.471C293.151 668.471 293.594 668.315 293.945 668.005C294.297 667.694 294.484 667.311 294.508 666.854H296.521C296.497 667.445 296.312 667.999 295.967 668.515C295.621 669.024 295.152 669.429 294.561 669.728C293.969 670.026 293.33 670.176 292.645 670.176C291.314 670.176 290.26 669.745 289.48 668.884C288.701 668.022 288.312 666.833 288.312 665.315V665.096C288.312 663.648 288.698 662.491 289.472 661.624C290.245 660.751 291.3 660.314 292.636 660.314C293.767 660.314 294.687 660.646 295.396 661.308C296.11 661.964 296.485 662.828 296.521 663.9H294.508C294.484 663.355 294.297 662.907 293.945 662.556C293.6 662.204 293.157 662.028 292.618 662.028C291.927 662.028 291.394 662.28 291.019 662.784C290.644 663.282 290.453 664.041 290.447 665.061V665.403C290.447 666.435 290.632 667.205 291.001 667.715C291.376 668.219 291.915 668.471 292.618 668.471ZM300.238 661.527C300.936 660.719 301.817 660.314 302.884 660.314C304.911 660.314 305.939 661.472 305.969 663.786V670H303.833V663.865C303.833 663.209 303.689 662.746 303.402 662.477C303.121 662.201 302.705 662.063 302.154 662.063C301.299 662.063 300.66 662.444 300.238 663.206V670H298.103V656.5H300.238V661.527Z" fill="black"/>
<path d="M362.34 667.021H357.383L356.346 670H354.034L358.868 657.203H360.863L365.706 670H363.386L362.34 667.021ZM358.007 665.228H361.716L359.861 659.919L358.007 665.228ZM374.864 665.342C374.864 666.812 374.53 667.987 373.862 668.866C373.194 669.739 372.298 670.176 371.173 670.176C370.13 670.176 369.295 669.833 368.668 669.147V673.656H366.532V660.49H368.501L368.589 661.457C369.216 660.695 370.068 660.314 371.146 660.314C372.307 660.314 373.215 660.748 373.871 661.615C374.533 662.477 374.864 663.675 374.864 665.21V665.342ZM372.737 665.157C372.737 664.208 372.547 663.455 372.166 662.898C371.791 662.342 371.252 662.063 370.549 662.063C369.676 662.063 369.049 662.424 368.668 663.145V667.363C369.055 668.102 369.688 668.471 370.566 668.471C371.246 668.471 371.776 668.198 372.157 667.653C372.544 667.103 372.737 666.271 372.737 665.157ZM381.658 662.441C381.377 662.395 381.087 662.371 380.788 662.371C379.81 662.371 379.15 662.746 378.811 663.496V670H376.675V660.49H378.714L378.767 661.554C379.282 660.728 379.997 660.314 380.911 660.314C381.216 660.314 381.468 660.355 381.667 660.438L381.658 662.441ZM385.279 670H383.144V660.49H385.279V670ZM383.012 658.021C383.012 657.692 383.114 657.42 383.319 657.203C383.53 656.986 383.829 656.878 384.216 656.878C384.603 656.878 384.901 656.986 385.112 657.203C385.323 657.42 385.429 657.692 385.429 658.021C385.429 658.343 385.323 658.612 385.112 658.829C384.901 659.04 384.603 659.146 384.216 659.146C383.829 659.146 383.53 659.04 383.319 658.829C383.114 658.612 383.012 658.343 383.012 658.021ZM389.885 670H387.749V656.5H389.885V670Z" fill="black"/>
<path d="M830.592 663.936C830.592 665.189 830.375 666.291 829.941 667.24C829.508 668.184 828.887 668.91 828.078 669.42C827.275 669.924 826.35 670.176 825.301 670.176C824.264 670.176 823.338 669.924 822.523 669.42C821.715 668.91 821.088 668.187 820.643 667.249C820.203 666.312 819.98 665.23 819.975 664.006V663.285C819.975 662.037 820.194 660.936 820.634 659.98C821.079 659.025 821.703 658.296 822.506 657.792C823.314 657.282 824.24 657.027 825.283 657.027C826.326 657.027 827.249 657.279 828.052 657.783C828.86 658.281 829.484 659.002 829.924 659.945C830.363 660.883 830.586 661.976 830.592 663.224V663.936ZM828.368 663.268C828.368 661.85 828.099 660.763 827.56 660.007C827.026 659.251 826.268 658.873 825.283 658.873C824.322 658.873 823.569 659.251 823.024 660.007C822.485 660.757 822.21 661.82 822.198 663.197V663.936C822.198 665.342 822.471 666.429 823.016 667.196C823.566 667.964 824.328 668.348 825.301 668.348C826.285 668.348 827.041 667.973 827.568 667.223C828.102 666.473 828.368 665.377 828.368 663.936V663.268ZM836.507 668.471C837.04 668.471 837.482 668.315 837.834 668.005C838.186 667.694 838.373 667.311 838.396 666.854H840.409C840.386 667.445 840.201 667.999 839.855 668.515C839.51 669.024 839.041 669.429 838.449 669.728C837.857 670.026 837.219 670.176 836.533 670.176C835.203 670.176 834.148 669.745 833.369 668.884C832.59 668.022 832.2 666.833 832.2 665.315V665.096C832.2 663.648 832.587 662.491 833.36 661.624C834.134 660.751 835.188 660.314 836.524 660.314C837.655 660.314 838.575 660.646 839.284 661.308C839.999 661.964 840.374 662.828 840.409 663.9H838.396C838.373 663.355 838.186 662.907 837.834 662.556C837.488 662.204 837.046 662.028 836.507 662.028C835.815 662.028 835.282 662.28 834.907 662.784C834.532 663.282 834.342 664.041 834.336 665.061V665.403C834.336 666.435 834.521 667.205 834.89 667.715C835.265 668.219 835.804 668.471 836.507 668.471ZM844.698 658.179V660.49H846.377V662.072H844.698V667.381C844.698 667.744 844.769 668.008 844.909 668.172C845.056 668.33 845.313 668.409 845.683 668.409C845.929 668.409 846.178 668.38 846.43 668.321V669.974C845.943 670.108 845.475 670.176 845.023 670.176C843.383 670.176 842.562 669.271 842.562 667.46V662.072H840.998V660.49H842.562V658.179H844.698Z" fill="black"/>
<path d="M362.34 667.021H357.383L356.346 670H354.034L358.868 657.203H360.863L365.706 670H363.386L362.34 667.021ZM358.007 665.228H361.716L359.861 659.919L358.007 665.228ZM374.864 665.342C374.864 666.812 374.53 667.987 373.862 668.866C373.194 669.739 372.298 670.176 371.173 670.176C370.13 670.176 369.295 669.833 368.668 669.147V673.656H366.532V660.49H368.501L368.589 661.457C369.216 660.695 370.068 660.314 371.146 660.314C372.307 660.314 373.215 660.748 373.871 661.615C374.533 662.477 374.864 663.675 374.864 665.21V665.342ZM372.737 665.157C372.737 664.208 372.547 663.455 372.166 662.898C371.791 662.342 371.252 662.063 370.549 662.063C369.676 662.063 369.049 662.424 368.668 663.145V667.363C369.055 668.102 369.688 668.471 370.566 668.471C371.246 668.471 371.776 668.198 372.157 667.653C372.544 667.103 372.737 666.271 372.737 665.157ZM381.658 662.441C381.377 662.395 381.087 662.371 380.788 662.371C379.81 662.371 379.15 662.746 378.811 663.496V670H376.675V660.49H378.714L378.767 661.554C379.282 660.728 379.997 660.314 380.911 660.314C381.216 660.314 381.468 660.355 381.667 660.438L381.658 662.441ZM385.279 670H383.144V660.49H385.279V670ZM383.012 658.021C383.012 657.692 383.114 657.42 383.319 657.203C383.53 656.986 383.829 656.878 384.216 656.878C384.603 656.878 384.901 656.986 385.112 657.203C385.323 657.42 385.429 657.692 385.429 658.021C385.429 658.343 385.323 658.612 385.112 658.829C384.901 659.04 384.603 659.146 384.216 659.146C383.829 659.146 383.53 659.04 383.319 658.829C383.114 658.612 383.012 658.343 383.012 658.021ZM389.885 670H387.749V656.5H389.885V670Z" fill="black"/>
<path d="M446.115 657.203L449.807 667.012L453.489 657.203H456.363V670H454.148V665.781L454.368 660.139L450.589 670H448.998L445.228 660.147L445.447 665.781V670H443.232V657.203H446.115ZM464.476 670C464.382 669.818 464.3 669.522 464.229 669.112C463.55 669.821 462.718 670.176 461.733 670.176C460.778 670.176 459.999 669.903 459.396 669.358C458.792 668.813 458.49 668.14 458.49 667.337C458.49 666.323 458.865 665.547 459.615 665.008C460.371 664.463 461.449 664.19 462.85 664.19H464.159V663.566C464.159 663.074 464.021 662.682 463.746 662.389C463.471 662.09 463.052 661.94 462.489 661.94C462.003 661.94 461.604 662.063 461.294 662.31C460.983 662.55 460.828 662.857 460.828 663.232H458.692C458.692 662.711 458.865 662.225 459.211 661.773C459.557 661.316 460.025 660.959 460.617 660.701C461.215 660.443 461.88 660.314 462.612 660.314C463.726 660.314 464.613 660.596 465.275 661.158C465.938 661.715 466.277 662.5 466.295 663.514V667.803C466.295 668.658 466.415 669.341 466.655 669.851V670H464.476ZM462.129 668.462C462.551 668.462 462.946 668.359 463.315 668.154C463.69 667.949 463.972 667.674 464.159 667.328V665.535H463.008C462.217 665.535 461.622 665.673 461.224 665.948C460.825 666.224 460.626 666.613 460.626 667.117C460.626 667.527 460.761 667.855 461.03 668.102C461.306 668.342 461.672 668.462 462.129 668.462ZM471.718 666.941L473.651 660.49H475.928L472.148 671.441C471.568 673.041 470.584 673.841 469.195 673.841C468.885 673.841 468.542 673.788 468.167 673.683V672.03L468.571 672.057C469.11 672.057 469.515 671.957 469.784 671.758C470.06 671.564 470.276 671.236 470.435 670.773L470.742 669.956L467.402 660.49H469.705L471.718 666.941Z" fill="black"/>
<path d="M915.553 670H913.329L907.625 660.921V670H905.401V657.203H907.625L913.347 666.317V657.203H915.553V670ZM917.574 665.157C917.574 664.226 917.759 663.388 918.128 662.644C918.497 661.894 919.016 661.319 919.684 660.921C920.352 660.517 921.119 660.314 921.986 660.314C923.27 660.314 924.31 660.728 925.106 661.554C925.909 662.38 926.343 663.476 926.407 664.841L926.416 665.342C926.416 666.279 926.234 667.117 925.871 667.855C925.514 668.594 924.998 669.165 924.324 669.569C923.656 669.974 922.883 670.176 922.004 670.176C920.662 670.176 919.587 669.73 918.778 668.84C917.976 667.943 917.574 666.751 917.574 665.263V665.157ZM919.71 665.342C919.71 666.32 919.912 667.088 920.316 667.645C920.721 668.195 921.283 668.471 922.004 668.471C922.725 668.471 923.284 668.189 923.683 667.627C924.087 667.064 924.289 666.241 924.289 665.157C924.289 664.196 924.081 663.435 923.665 662.872C923.255 662.31 922.695 662.028 921.986 662.028C921.289 662.028 920.735 662.307 920.325 662.863C919.915 663.414 919.71 664.24 919.71 665.342ZM931.435 667.293L933.447 660.49H935.653L932.357 670H930.503L927.181 660.49H929.396L931.435 667.293Z" fill="black"/>
<path d="M446.115 657.203L449.807 667.012L453.489 657.203H456.363V670H454.148V665.781L454.368 660.139L450.589 670H448.998L445.228 660.147L445.447 665.781V670H443.232V657.203H446.115ZM464.476 670C464.382 669.818 464.3 669.522 464.229 669.112C463.55 669.821 462.718 670.176 461.733 670.176C460.778 670.176 459.999 669.903 459.396 669.358C458.792 668.813 458.49 668.14 458.49 667.337C458.49 666.323 458.865 665.547 459.615 665.008C460.371 664.463 461.449 664.19 462.85 664.19H464.159V663.566C464.159 663.074 464.021 662.682 463.746 662.389C463.471 662.09 463.052 661.94 462.489 661.94C462.003 661.94 461.604 662.063 461.294 662.31C460.983 662.55 460.828 662.857 460.828 663.232H458.692C458.692 662.711 458.865 662.225 459.211 661.773C459.557 661.316 460.025 660.959 460.617 660.701C461.215 660.443 461.88 660.314 462.612 660.314C463.726 660.314 464.613 660.596 465.275 661.158C465.938 661.715 466.277 662.5 466.295 663.514V667.803C466.295 668.658 466.415 669.341 466.655 669.851V670H464.476ZM462.129 668.462C462.551 668.462 462.946 668.359 463.315 668.154C463.69 667.949 463.972 667.674 464.159 667.328V665.535H463.008C462.217 665.535 461.622 665.673 461.224 665.948C460.825 666.224 460.626 666.613 460.626 667.117C460.626 667.527 460.761 667.855 461.03 668.102C461.306 668.342 461.672 668.462 462.129 668.462ZM471.718 666.941L473.651 660.49H475.928L472.148 671.441C471.568 673.041 470.584 673.841 469.195 673.841C468.885 673.841 468.542 673.788 468.167 673.683V672.03L468.571 672.057C469.11 672.057 469.515 671.957 469.784 671.758C470.06 671.564 470.276 671.236 470.435 670.773L470.742 669.956L467.402 660.49H469.705L471.718 666.941Z" fill="black"/>
<path d="M522.193 657.203H524.408V666.177C524.408 667.401 524.024 668.374 523.257 669.095C522.495 669.815 521.487 670.176 520.233 670.176C518.897 670.176 517.866 669.839 517.14 669.165C516.413 668.491 516.05 667.554 516.05 666.353H518.265C518.265 667.032 518.432 667.545 518.766 667.891C519.105 668.23 519.595 668.4 520.233 668.4C520.831 668.4 521.306 668.204 521.657 667.812C522.015 667.413 522.193 666.865 522.193 666.168V657.203ZM532.512 669.068C531.885 669.807 530.994 670.176 529.84 670.176C528.809 670.176 528.026 669.874 527.493 669.271C526.966 668.667 526.702 667.794 526.702 666.651V660.49H528.838V666.625C528.838 667.832 529.339 668.436 530.341 668.436C531.378 668.436 532.078 668.063 532.441 667.319V660.49H534.577V670H532.564L532.512 669.068ZM538.734 660.49L538.796 661.589C539.499 660.739 540.422 660.314 541.564 660.314C543.545 660.314 544.553 661.448 544.588 663.716V670H542.452V663.839C542.452 663.235 542.32 662.79 542.057 662.503C541.799 662.21 541.374 662.063 540.782 662.063C539.921 662.063 539.279 662.453 538.857 663.232V670H536.722V660.49H538.734ZM550.96 670.176C549.606 670.176 548.508 669.751 547.664 668.901C546.826 668.046 546.407 666.909 546.407 665.491V665.228C546.407 664.278 546.589 663.432 546.952 662.688C547.321 661.938 547.837 661.354 548.499 660.938C549.161 660.522 549.899 660.314 550.714 660.314C552.009 660.314 553.008 660.728 553.711 661.554C554.42 662.38 554.774 663.549 554.774 665.061V665.922H548.561C548.625 666.707 548.886 667.328 549.343 667.785C549.806 668.242 550.386 668.471 551.083 668.471C552.062 668.471 552.858 668.075 553.474 667.284L554.625 668.383C554.244 668.951 553.734 669.394 553.096 669.71C552.463 670.021 551.751 670.176 550.96 670.176ZM550.705 662.028C550.119 662.028 549.645 662.233 549.281 662.644C548.924 663.054 548.695 663.625 548.596 664.357H552.665V664.199C552.618 663.484 552.428 662.945 552.094 662.582C551.76 662.213 551.297 662.028 550.705 662.028Z" fill="black"/>
<path d="M981.376 670V657.203H985.155C986.286 657.203 987.288 657.455 988.161 657.959C989.04 658.463 989.72 659.178 990.2 660.104C990.681 661.029 990.921 662.09 990.921 663.285V663.927C990.921 665.14 990.678 666.206 990.191 667.126C989.711 668.046 989.022 668.755 988.126 669.253C987.235 669.751 986.213 670 985.059 670H981.376ZM983.6 658.996V668.225H985.05C986.216 668.225 987.109 667.861 987.73 667.135C988.357 666.402 988.677 665.354 988.688 663.988V663.276C988.688 661.888 988.387 660.827 987.783 660.095C987.18 659.362 986.304 658.996 985.155 658.996H983.6ZM997.117 670.176C995.764 670.176 994.665 669.751 993.821 668.901C992.983 668.046 992.564 666.909 992.564 665.491V665.228C992.564 664.278 992.746 663.432 993.109 662.688C993.479 661.938 993.994 661.354 994.656 660.938C995.318 660.522 996.057 660.314 996.871 660.314C998.166 660.314 999.165 660.728 999.868 661.554C1000.58 662.38 1000.93 663.549 1000.93 665.061V665.922H994.718C994.782 666.707 995.043 667.328 995.5 667.785C995.963 668.242 996.543 668.471 997.24 668.471C998.219 668.471 999.016 668.075 999.631 667.284L1000.78 668.383C1000.4 668.951 999.892 669.394 999.253 669.71C998.62 670.021 997.908 670.176 997.117 670.176ZM996.862 662.028C996.276 662.028 995.802 662.233 995.438 662.644C995.081 663.054 994.853 663.625 994.753 664.357H998.822V664.199C998.775 663.484 998.585 662.945 998.251 662.582C997.917 662.213 997.454 662.028 996.862 662.028ZM1006.5 668.471C1007.04 668.471 1007.48 668.315 1007.83 668.005C1008.18 667.694 1008.37 667.311 1008.39 666.854H1010.41C1010.38 667.445 1010.2 667.999 1009.85 668.515C1009.51 669.024 1009.04 669.429 1008.45 669.728C1007.85 670.026 1007.22 670.176 1006.53 670.176C1005.2 670.176 1004.15 669.745 1003.37 668.884C1002.59 668.022 1002.2 666.833 1002.2 665.315V665.096C1002.2 663.648 1002.58 662.491 1003.36 661.624C1004.13 660.751 1005.19 660.314 1006.52 660.314C1007.65 660.314 1008.57 660.646 1009.28 661.308C1010 661.964 1010.37 662.828 1010.41 663.9H1008.39C1008.37 663.355 1008.18 662.907 1007.83 662.556C1007.49 662.204 1007.04 662.028 1006.5 662.028C1005.81 662.028 1005.28 662.28 1004.9 662.784C1004.53 663.282 1004.34 664.041 1004.33 665.061V665.403C1004.33 666.435 1004.52 667.205 1004.89 667.715C1005.26 668.219 1005.8 668.471 1006.5 668.471Z" fill="black"/>
<path d="M522.193 657.203H524.408V666.177C524.408 667.401 524.024 668.374 523.257 669.095C522.495 669.815 521.487 670.176 520.233 670.176C518.897 670.176 517.866 669.839 517.14 669.165C516.413 668.491 516.05 667.554 516.05 666.353H518.265C518.265 667.032 518.432 667.545 518.766 667.891C519.105 668.23 519.595 668.4 520.233 668.4C520.831 668.4 521.306 668.204 521.657 667.812C522.015 667.413 522.193 666.865 522.193 666.168V657.203ZM532.512 669.068C531.885 669.807 530.994 670.176 529.84 670.176C528.809 670.176 528.026 669.874 527.493 669.271C526.966 668.667 526.702 667.794 526.702 666.651V660.49H528.838V666.625C528.838 667.832 529.339 668.436 530.341 668.436C531.378 668.436 532.078 668.063 532.441 667.319V660.49H534.577V670H532.564L532.512 669.068ZM538.734 660.49L538.796 661.589C539.499 660.739 540.422 660.314 541.564 660.314C543.545 660.314 544.553 661.448 544.588 663.716V670H542.452V663.839C542.452 663.235 542.32 662.79 542.057 662.503C541.799 662.21 541.374 662.063 540.782 662.063C539.921 662.063 539.279 662.453 538.857 663.232V670H536.722V660.49H538.734ZM550.96 670.176C549.606 670.176 548.508 669.751 547.664 668.901C546.826 668.046 546.407 666.909 546.407 665.491V665.228C546.407 664.278 546.589 663.432 546.952 662.688C547.321 661.938 547.837 661.354 548.499 660.938C549.161 660.522 549.899 660.314 550.714 660.314C552.009 660.314 553.008 660.728 553.711 661.554C554.42 662.38 554.774 663.549 554.774 665.061V665.922H548.561C548.625 666.707 548.886 667.328 549.343 667.785C549.806 668.242 550.386 668.471 551.083 668.471C552.062 668.471 552.858 668.075 553.474 667.284L554.625 668.383C554.244 668.951 553.734 669.394 553.096 669.71C552.463 670.021 551.751 670.176 550.96 670.176ZM550.705 662.028C550.119 662.028 549.645 662.233 549.281 662.644C548.924 663.054 548.695 663.625 548.596 664.357H552.665V664.199C552.618 663.484 552.428 662.945 552.094 662.582C551.76 662.213 551.297 662.028 550.705 662.028Z" fill="black"/>
<line x1="112.5" y1="107.5" x2="979.5" y2="107.5" stroke="black" stroke-opacity="0.5" stroke-linecap="square"/>
<line x1="112.5" y1="159.5" x2="979.5" y2="159.5" stroke="black" stroke-opacity="0.5" stroke-linecap="square"/>
<line x1="112.5" y1="211.5" x2="979.5" y2="211.5" stroke="black" stroke-opacity="0.5" stroke-linecap="square"/>
<line x1="112.5" y1="263.5" x2="979.5" y2="263.5" stroke="black" stroke-opacity="0.5" stroke-linecap="square"/>
<line x1="112.5" y1="315.5" x2="979.5" y2="315.5" stroke="black" stroke-opacity="0.5" stroke-linecap="square"/>
<line x1="112.5" y1="367.5" x2="979.5" y2="367.5" stroke="black" stroke-opacity="0.5" stroke-linecap="square"/>
<line x1="112.5" y1="419.5" x2="979.5" y2="419.5" stroke="black" stroke-opacity="0.5" stroke-linecap="square"/>
<line x1="112.5" y1="471.5" x2="979.5" y2="471.5" stroke="black" stroke-opacity="0.5" stroke-linecap="square"/>
<line x1="112.5" y1="523.5" x2="979.5" y2="523.5" stroke="black" stroke-opacity="0.5" stroke-linecap="square"/>
<line x1="112.5" y1="575.5" x2="979.5" y2="575.5" stroke="black" stroke-opacity="0.5" stroke-linecap="square"/>
<line x1="112.5" y1="627.5" x2="979.5" y2="627.5" stroke="black" stroke-opacity="0.5" stroke-linecap="square"/>
<path d="M600.5 123.5L544.5 262L396 274.999L301.5 420L204.5 317.5L138 332.5" stroke="#4DB6AC" stroke-width="3"/>
<path d="M493.227 73H469.325V68.9229L481.166 56.0078C482.875 54.1035 484.088 52.5166 484.804 51.2471C485.536 49.9613 485.902 48.6755 485.902 47.3896C485.902 45.6969 485.422 44.3298 484.462 43.2881C483.518 42.2464 482.24 41.7256 480.629 41.7256C478.708 41.7256 477.219 42.3115 476.161 43.4834C475.103 44.6553 474.574 46.2585 474.574 48.293H468.642C468.642 46.1283 469.13 44.1833 470.106 42.458C471.099 40.7165 472.507 39.3656 474.33 38.4053C476.169 37.445 478.285 36.9648 480.678 36.9648C484.128 36.9648 486.846 37.8356 488.832 39.5771C490.834 41.3024 491.835 43.695 491.835 46.7549C491.835 48.529 491.33 50.3926 490.321 52.3457C489.328 54.2826 487.693 56.488 485.414 58.9619L476.723 68.2637H493.227V73ZM520.912 58.0342C520.912 63.1449 519.952 67.0023 518.031 69.6064C516.127 72.1943 513.222 73.4883 509.315 73.4883C505.474 73.4883 502.577 72.2269 500.624 69.7041C498.687 67.165 497.694 63.4134 497.646 58.4492V52.2969C497.646 47.1862 498.598 43.3532 500.502 40.7979C502.423 38.2425 505.344 36.9648 509.267 36.9648C513.157 36.9648 516.054 38.21 517.958 40.7002C519.879 43.1904 520.863 46.9176 520.912 51.8818V58.0342ZM514.979 51.3936C514.979 48.057 514.524 45.6156 513.612 44.0693C512.701 42.5068 511.252 41.7256 509.267 41.7256C507.33 41.7256 505.906 42.4661 504.994 43.9473C504.083 45.4121 503.603 47.707 503.554 50.832V58.8887C503.554 62.209 504.018 64.6829 504.945 66.3105C505.873 67.9382 507.33 68.752 509.315 68.752C511.22 68.752 512.628 68.0033 513.539 66.5059C514.451 64.9922 514.931 62.6322 514.979 59.4258V51.3936ZM550.062 73H526.161V68.9229L538.002 56.0078C539.711 54.1035 540.924 52.5166 541.64 51.2471C542.372 49.9613 542.738 48.6755 542.738 47.3896C542.738 45.6969 542.258 44.3298 541.298 43.2881C540.354 42.2464 539.076 41.7256 537.465 41.7256C535.544 41.7256 534.055 42.3115 532.997 43.4834C531.939 44.6553 531.41 46.2585 531.41 48.293H525.478C525.478 46.1283 525.966 44.1833 526.942 42.458C527.935 40.7165 529.343 39.3656 531.166 38.4053C533.005 37.445 535.121 36.9648 537.514 36.9648C540.964 36.9648 543.682 37.8356 545.668 39.5771C547.67 41.3024 548.671 43.695 548.671 46.7549C548.671 48.529 548.166 50.3926 547.157 52.3457C546.164 54.2826 544.529 56.488 542.25 58.9619L533.559 68.2637H550.062V73ZM577.748 58.0342C577.748 63.1449 576.788 67.0023 574.867 69.6064C572.963 72.1943 570.058 73.4883 566.151 73.4883C562.31 73.4883 559.413 72.2269 557.46 69.7041C555.523 67.165 554.53 63.4134 554.481 58.4492V52.2969C554.481 47.1862 555.434 43.3532 557.338 40.7979C559.258 38.2425 562.18 36.9648 566.103 36.9648C569.993 36.9648 572.89 38.21 574.794 40.7002C576.715 43.1904 577.699 46.9176 577.748 51.8818V58.0342ZM571.815 51.3936C571.815 48.057 571.36 45.6156 570.448 44.0693C569.537 42.5068 568.088 41.7256 566.103 41.7256C564.166 41.7256 562.742 42.4661 561.83 43.9473C560.919 45.4121 560.438 47.707 560.39 50.832V58.8887C560.39 62.209 560.854 64.6829 561.781 66.3105C562.709 67.9382 564.166 68.752 566.151 68.752C568.056 68.752 569.464 68.0033 570.375 66.5059C571.286 64.9922 571.767 62.6322 571.815 59.4258V51.3936Z" fill="black"/>
</svg>
