<svg width="126" height="113" viewBox="0 0 126 113" fill="none" xmlns="http://www.w3.org/2000/svg">
<path d="M124.026 107.951H1.9726C0.8848 107.951 0 108.896 0 110.06C0 111.22 0.8848 112.167 1.9726 112.167H124.026C125.112 112.167 126 111.22 126 110.06C126 108.896 125.112 107.951 124.026 107.951Z" fill="url(#paint0_linear)"/>
<path d="M33.8144 101.534H43.9686C44.4922 101.534 44.9164 101.081 44.9164 100.523V26.8594C44.9164 26.301 44.4922 25.847 43.9686 25.847H33.8144C33.2908 25.847 32.8652 26.301 32.8652 26.8594V100.523C32.8666 101.081 33.2908 101.534 33.8144 101.534Z" fill="url(#paint1_linear)"/>
<path d="M9.70897 101.534H19.8632C20.3868 101.534 20.811 101.081 20.811 100.523V42.535C20.811 41.975 20.3868 41.5226 19.8632 41.5226H9.70897C9.18537 41.5226 8.75977 41.975 8.75977 42.535V100.523C8.75977 101.081 9.18537 101.534 9.70897 101.534Z" fill="url(#paint2_linear)"/>
<path d="M57.9195 101.534H68.0751C68.6015 101.534 69.0257 101.081 69.0257 100.523V1.01238C69.0257 0.453929 68.6015 0 68.0751 0H57.9195C57.3959 0 56.9717 0.453929 56.9717 1.01238V100.523C56.9717 101.081 57.3959 101.534 57.9195 101.534Z" fill="url(#paint3_linear)"/>
<path d="M82.0289 101.534H92.1859C92.7067 101.534 93.1323 101.081 93.1323 100.523V26.8594C93.1323 26.301 92.7067 25.847 92.1859 25.847H82.0289C81.5053 25.847 81.0811 26.301 81.0811 26.8594V100.523C81.0811 101.081 81.5053 101.534 82.0289 101.534Z" fill="url(#paint4_linear)"/>
<path d="M106.138 101.534H116.292C116.816 101.534 117.242 101.081 117.242 100.523V42.535C117.242 41.975 116.816 41.5226 116.292 41.5226H106.138C105.613 41.5226 105.188 41.975 105.188 42.535V100.523C105.188 101.081 105.613 101.534 106.138 101.534Z" fill="url(#paint5_linear)"/>
<defs>
<linearGradient id="paint0_linear" x1="63" y1="107.951" x2="63" y2="112.167" gradientUnits="userSpaceOnUse">
<stop offset="0.255208" stop-color="#4CB9B2"/>
<stop offset="1" stop-color="#FBC02D"/>
</linearGradient>
<linearGradient id="paint1_linear" x1="38.8908" y1="25.847" x2="38.8908" y2="101.534" gradientUnits="userSpaceOnUse">
<stop offset="0.255208" stop-color="#4CB9B2"/>
<stop offset="1" stop-color="#FBC02D"/>
</linearGradient>
<linearGradient id="paint2_linear" x1="14.7854" y1="41.5226" x2="14.7854" y2="101.534" gradientUnits="userSpaceOnUse">
<stop offset="0.255208" stop-color="#4CB9B2"/>
<stop offset="1" stop-color="#FBC02D"/>
</linearGradient>
<linearGradient id="paint3_linear" x1="62.9987" y1="0" x2="62.9987" y2="101.534" gradientUnits="userSpaceOnUse">
<stop offset="0.255208" stop-color="#4CB9B2"/>
<stop offset="1" stop-color="#FBC02D"/>
</linearGradient>
<linearGradient id="paint4_linear" x1="87.1067" y1="25.847" x2="87.1067" y2="101.534" gradientUnits="userSpaceOnUse">
<stop offset="0.255208" stop-color="#4CB9B2"/>
<stop offset="1" stop-color="#FBC02D"/>
</linearGradient>
<linearGradient id="paint5_linear" x1="111.215" y1="41.5226" x2="111.215" y2="101.534" gradientUnits="userSpaceOnUse">
<stop offset="0.255208" stop-color="#4CB9B2"/>
<stop offset="1" stop-color="#FBC02D"/>
</linearGradient>
</defs>
</svg>
