<svg width="109" height="126" viewBox="0 0 109 126" fill="none" xmlns="http://www.w3.org/2000/svg">
<path d="M51.9888 117.37C51.9888 122.135 48.1242 126 43.3587 126C38.5931 126 34.7285 122.135 34.7285 117.37C34.7285 112.604 38.5931 108.74 43.3587 108.74C48.1242 108.74 51.9888 112.604 51.9888 117.37Z" fill="url(#paint0_linear)"/>
<path d="M96.8657 117.37C96.8657 122.135 93.0012 126 88.2356 126C83.47 126 79.6055 122.135 79.6055 117.37C79.6055 112.604 83.47 108.74 88.2356 108.74C93.0012 108.74 96.8657 112.604 96.8657 117.37Z" fill="url(#paint1_linear)"/>
<path d="M104.914 34.5205H29.6918L23.347 2.77545C23.0242 1.16162 21.6071 0 19.9622 0H3.63745C1.91833 0 0.323481 1.17542 0.0473162 2.87211C-0.304793 5.03482 1.35565 6.90411 3.45277 6.90411H17.1246L30.1682 72.1203C30.6688 74.6213 32.4828 76.5787 34.806 77.3329C35.065 77.4175 35.0287 77.7679 34.7595 77.8007C27.3444 78.7086 22.8343 84.2232 22.6548 90.2177C22.4356 97.5481 28.3127 103.562 35.5948 103.562H96.8688C98.7761 103.562 100.321 102.017 100.321 100.11C100.321 98.2023 98.7761 96.6575 96.8688 96.6575C84.2239 96.6575 64.1606 96.6575 35.7675 96.6575C32.885 96.6575 30.2614 94.7088 29.6832 91.8851C28.8892 88.0015 31.8494 84.5753 35.5948 84.5753H65.8003H93.4168C97.2296 84.5753 100.321 81.484 100.321 77.6712L108.3 38.6647C108.734 36.5245 107.099 34.5205 104.914 34.5205ZM83.6302 57.7632L66.4062 74.9873C66.0696 75.3238 65.5224 75.3238 65.1859 74.9873L47.9618 57.7632C47.4181 57.2195 47.803 56.2892 48.5728 56.2892H55.7911V45.5809H75.8009V56.2892H83.0192C83.789 56.2892 84.1739 57.2195 83.6302 57.7632Z" fill="url(#paint2_linear)"/>
<defs>
<linearGradient id="paint0_linear" x1="43.3587" y1="108.74" x2="43.3587" y2="126" gradientUnits="userSpaceOnUse">
<stop offset="0.291667" stop-color="#4CB9B2"/>
<stop offset="1" stop-color="#FBC02D"/>
</linearGradient>
<linearGradient id="paint1_linear" x1="88.2356" y1="108.74" x2="88.2356" y2="126" gradientUnits="userSpaceOnUse">
<stop offset="0.291667" stop-color="#4CB9B2"/>
<stop offset="1" stop-color="#FBC02D"/>
</linearGradient>
<linearGradient id="paint2_linear" x1="54.1851" y1="0" x2="54.1851" y2="103.562" gradientUnits="userSpaceOnUse">
<stop offset="0.291667" stop-color="#4CB9B2"/>
<stop offset="1" stop-color="#FBC02D"/>
</linearGradient>
</defs>
</svg>
