<svg width="126" height="126" viewBox="0 0 126 126" fill="none" xmlns="http://www.w3.org/2000/svg">
<path d="M123.9 60.9H114.269L114.811 60.3582C116.609 58.5606 117.6 56.1687 117.6 53.6235C117.6 48.3714 113.328 44.1 108.076 44.1C105.531 44.1 103.139 45.0912 101.342 46.8888L88.1999 60.0306L75.0581 46.8888C73.2605 45.0912 70.8686 44.1 68.3234 44.1C63.0713 44.1 58.7999 48.3714 58.7999 53.6235C58.7999 56.1687 59.7911 58.5606 61.5887 60.3582L62.1305 60.9H52.4999C51.3386 60.9 50.3999 61.8387 50.3999 63V75.6V123.9C50.3999 125.061 51.3386 126 52.4999 126H123.9C125.061 126 126 125.061 126 123.9V75.6V63C126 61.8387 125.061 60.9 123.9 60.9ZM121.8 73.5H96.5999V65.1H121.8V73.5ZM83.9999 73.5V65.1H92.3999V73.5H83.9999ZM92.3999 77.7V121.8H83.9999V77.7H92.3999ZM104.311 49.8582C105.315 48.8544 106.653 48.3 108.076 48.3C111.01 48.3 113.4 50.6898 113.4 53.6235C113.4 55.0473 112.845 56.3829 111.842 57.3888L108.33 60.9H93.2693L104.311 49.8582ZM64.5581 57.3888C63.5543 56.385 62.9999 55.0473 62.9999 53.6235C62.9999 50.6898 65.3897 48.3 68.3234 48.3C69.7472 48.3 71.0828 48.8544 72.0887 49.8582L83.1305 60.9H68.0693L64.5581 57.3888ZM79.7999 65.1V73.5H54.5999V65.1H79.7999ZM54.5999 77.7H79.7999V121.8H54.5999V77.7ZM121.8 121.8H96.5999V77.7H121.8V121.8Z" fill="#4CB9B2"/>
<path d="M88.2 27.3H58.6929C57.6093 12.0687 44.9022 0 29.4 0C13.188 0 0 13.188 0 29.4C0 45.612 13.188 58.8 29.4 58.8C44.9022 58.8 57.6093 46.7313 58.6929 31.5H86.1V45.3306L83.3847 42.6153L80.4153 45.5847L86.7153 51.8847C87.1248 52.2942 87.6624 52.5 88.2 52.5C88.7376 52.5 89.2752 52.2942 89.6847 51.8847L95.9847 45.5847L93.0153 42.6153L90.3 45.3306V29.4C90.3 28.2387 89.3613 27.3 88.2 27.3ZM29.4 54.6C15.5043 54.6 4.2 43.2957 4.2 29.4C4.2 15.5043 15.5043 4.2 29.4 4.2C43.2957 4.2 54.6 15.5043 54.6 29.4C54.6 43.2957 43.2957 54.6 29.4 54.6Z" fill="#4CB9B2"/>
<path d="M35.9774 21.0441L31.2797 11.6592C30.5657 10.2354 28.2368 10.2354 27.5228 11.6592L22.8251 21.0441L12.3041 22.5519C11.5082 22.6674 10.8488 23.2218 10.601 23.9883C10.3532 24.7548 10.5653 25.5906 11.1449 26.145L18.7406 33.4446L16.9472 43.7388C16.8107 44.5263 17.132 45.3222 17.7767 45.7947C18.4214 46.2651 19.2782 46.3323 19.9838 45.9648L29.4002 41.0823L38.8166 45.9627C39.1211 46.1223 39.4529 46.2 39.7826 46.2C40.2215 46.2 40.6562 46.0635 41.0237 45.7947C41.6684 45.3222 41.9897 44.5263 41.8532 43.7388L40.0598 33.4446L47.6555 26.145C48.233 25.5885 48.4451 24.7527 48.1994 23.9883C47.9537 23.2239 47.2922 22.6674 46.4963 22.5519L35.9774 21.0441ZM36.3449 31.1913C35.843 31.6743 35.612 32.3757 35.7317 33.0666L36.9896 40.2864L30.3662 36.855C30.0617 36.6975 29.732 36.6198 29.4002 36.6198C29.0684 36.6198 28.7387 36.6975 28.4342 36.855L21.8129 40.2864L23.0708 33.0666C23.1905 32.3778 22.9595 31.6764 22.4576 31.1913L17.1614 26.1009L24.5093 25.0488C25.1918 24.9501 25.7798 24.5259 26.0906 23.9085L29.4002 17.2914L32.7119 23.9064C33.0206 24.5238 33.6107 24.948 34.2932 25.0467L41.6411 26.0988L36.3449 31.1913Z" fill="#4CB9B2"/>
<path d="M3.7275 86.226C8.2593 86.9295 11.7768 90.4491 12.4761 94.983C12.8121 97.1355 14.6286 98.7 16.8 98.7C18.9714 98.7 20.7879 97.1355 21.1239 94.9809C21.8232 90.4491 25.3407 86.9295 29.8746 86.226C32.0334 85.8879 33.6 84.0693 33.6 81.9C33.6 79.7307 32.0334 77.9121 29.8725 77.574C25.3407 76.8705 21.8232 73.3509 21.1239 68.817C20.7879 66.6645 18.9714 65.1 16.8 65.1C14.6286 65.1 12.8121 66.6645 12.4761 68.8191C11.7768 73.3509 8.2593 76.8705 3.7254 77.574C1.5666 77.9121 0 79.7307 0 81.9C0 84.0693 1.5666 85.8879 3.7275 86.226ZM4.3722 81.7257C10.7205 80.7387 15.6471 75.8121 16.6278 69.4617C16.6425 69.3651 16.7139 69.3 16.8 69.3C16.8861 69.3 16.9575 69.3651 16.9722 69.4596C17.9529 75.81 22.8774 80.7387 29.2257 81.7257C29.3097 81.7383 29.4 81.7992 29.4 81.9C29.4 82.0008 29.3097 82.0617 29.2278 82.0743C22.8795 83.0613 17.9529 87.9879 16.9722 94.3383C16.9428 94.5315 16.6572 94.5294 16.6278 94.3404C15.6471 87.99 10.7226 83.0613 4.3743 82.0743C4.2903 82.0617 4.2 82.0008 4.2 81.9C4.2 81.7992 4.2903 81.7383 4.3722 81.7257Z" fill="#4CB9B2"/>
<path d="M117.6 113.4H113.4V117.6H117.6V113.4Z" fill="#4CB9B2"/>
<path d="M117.6 105H113.4V109.2H117.6V105Z" fill="#4CB9B2"/>
<path d="M117.6 96.6H113.4V100.8H117.6V96.6Z" fill="#4CB9B2"/>
</svg>
