<svg width="50" height="50" viewBox="0 0 50 50" fill="none" xmlns="http://www.w3.org/2000/svg">
<path d="M20.8337 37.4998C24.5315 37.4991 28.1228 36.2612 31.0357 33.9832L40.1941 43.1415L43.1399 40.1957L33.9816 31.0373C36.2607 28.1241 37.4994 24.532 37.5003 20.8332C37.5003 11.6436 30.0232 4.1665 20.8337 4.1665C11.6441 4.1665 4.16699 11.6436 4.16699 20.8332C4.16699 30.0228 11.6441 37.4998 20.8337 37.4998ZM20.8337 8.33317C27.7274 8.33317 33.3337 13.9394 33.3337 20.8332C33.3337 27.7269 27.7274 33.3332 20.8337 33.3332C13.9399 33.3332 8.33366 27.7269 8.33366 20.8332C8.33366 13.9394 13.9399 8.33317 20.8337 8.33317Z" fill="white"/>
</svg>
