<svg width="50" height="50" viewBox="0 0 50 50" fill="none" xmlns="http://www.w3.org/2000/svg">
<path d="M12.4997 4.1665H31.2497C32.3547 4.1665 33.4145 4.60549 34.196 5.38689C34.9774 6.16829 35.4163 7.2281 35.4163 8.33317V10.4165C35.4163 10.969 35.1968 11.4989 34.8061 11.8896C34.4154 12.2803 33.8855 12.4998 33.333 12.4998C32.7805 12.4998 32.2506 12.2803 31.8599 11.8896C31.4692 11.4989 31.2497 10.969 31.2497 10.4165V8.33317H12.4997V41.6665H31.2497V39.5832C31.2497 39.0306 31.4692 38.5007 31.8599 38.11C32.2506 37.7193 32.7805 37.4998 33.333 37.4998C33.8855 37.4998 34.4154 37.7193 34.8061 38.11C35.1968 38.5007 35.4163 39.0306 35.4163 39.5832V41.6665C35.4163 42.7716 34.9774 43.8314 34.196 44.6128C33.4145 45.3942 32.3547 45.8332 31.2497 45.8332H12.4997C11.3946 45.8332 10.3348 45.3942 9.5534 44.6128C8.77199 43.8314 8.33301 42.7716 8.33301 41.6665V8.33317C8.33301 7.2281 8.77199 6.16829 9.5534 5.38689C10.3348 4.60549 11.3946 4.1665 12.4997 4.1665V4.1665Z" fill="white"/>
<path d="M34.9896 33.9482C35.8021 34.7607 37.1146 34.7607 37.9271 33.9482L45.4021 26.4732C45.7926 26.0825 46.0121 25.5527 46.0121 25.0003C46.0121 24.4478 45.7926 23.918 45.4021 23.5273L37.9271 16.0523C37.5311 15.6944 37.0127 15.5023 36.479 15.5158C35.9454 15.5293 35.4373 15.7473 35.0599 16.1247C34.6824 16.5022 34.4644 17.0102 34.451 17.5439C34.4375 18.0775 34.6296 18.5959 34.9875 18.9919L38.8958 22.9169H20.8333C20.2808 22.9169 19.7509 23.1364 19.3602 23.5271C18.9695 23.9178 18.75 24.4477 18.75 25.0003C18.75 25.5528 18.9695 26.0827 19.3602 26.4734C19.7509 26.8641 20.2808 27.0836 20.8333 27.0836H38.8958L34.9875 31.0086C34.5986 31.399 34.3804 31.9278 34.3808 32.4788C34.3812 33.0299 34.6001 33.5583 34.9896 33.9482Z" fill="white"/>
</svg>
