<svg width="29" height="29" viewBox="0 0 29 29" fill="none" xmlns="http://www.w3.org/2000/svg">
<path d="M5.77118 11.0031L6.82485 18.125H22.2142L23.2618 10.8992L19.0411 14.5484L14.5038 8.71574L9.78043 14.529L5.77118 11.0031ZM17.9004 9.14591L17.8062 9.22687L17.9766 9.24379L19.3867 11.0551L21.1231 9.55433L21.2922 9.57124L21.2173 9.47216L24.133 6.95158C24.3194 6.79076 24.5505 6.69071 24.7953 6.66482C25.0401 6.63893 25.287 6.68843 25.5029 6.8067C25.7188 6.92496 25.8934 7.10636 26.0034 7.3266C26.1134 7.54684 26.1535 7.79542 26.1183 8.03908L24.3058 20.5417H4.73926L2.89897 8.09587C2.86242 7.85086 2.90205 7.60054 3.0125 7.37881C3.12294 7.15707 3.29887 6.97464 3.51646 6.85623C3.73404 6.73781 3.98276 6.68913 4.22893 6.71677C4.4751 6.74442 4.70683 6.84706 4.89272 7.01079L7.6731 9.45766L7.61268 9.53016L7.74439 9.52049L9.48922 11.0551L10.9537 9.25104L11.0854 9.24016L11.0129 9.17733L13.5879 6.0127C13.7026 5.8717 13.8476 5.7584 14.0122 5.68122C14.1768 5.60405 14.3566 5.56499 14.5384 5.56697C14.7201 5.56894 14.8991 5.61189 15.0619 5.69262C15.2248 5.77336 15.3673 5.88979 15.4789 6.03324L17.9016 9.14591H17.9004ZM4.83351 21.75H24.1668V22.9584C24.1668 23.2788 24.0395 23.5862 23.8129 23.8128C23.5863 24.0394 23.279 24.1667 22.9585 24.1667H6.04185C5.72138 24.1667 5.41403 24.0394 5.18743 23.8128C4.96082 23.5862 4.83351 23.2788 4.83351 22.9584V21.75Z" fill="#FBC02D"/>
</svg>
