<svg width="501" height="296" viewBox="0 0 501 296" fill="none" xmlns="http://www.w3.org/2000/svg">
<path d="M442 0H334V83.7338H374.993L389.971 103L403.372 83.7338H442V0Z" fill="#ABDED9" fill-opacity="0.3"/>
<path d="M118.5 92.7596C88.5957 67.7286 45.7065 185.824 28 248H390V115.625C382.13 124.45 374.261 140.174 358.522 142.1C338.848 144.507 329.011 87.9462 307.37 75.9121C285.728 63.8779 266.054 112.014 256.217 126.455C246.38 140.896 228.796 110.811 212.935 110.811C197.196 110.811 195.228 145.71 173.587 163.761C151.946 181.812 155.88 124.048 118.5 92.7596Z" fill="url(#paint0_linear)"/>
<path d="M28 251C45.7065 187.752 88.5957 67.6205 118.5 93.0831C155.88 124.911 151.946 183.671 173.587 165.309C195.228 146.946 197.196 111.446 212.935 111.446C228.796 111.446 246.38 142.05 256.217 127.36C266.054 112.67 285.728 63.7034 307.37 75.9451C329.011 88.1867 338.848 145.722 358.522 143.274C374.261 141.315 382.13 125.319 390 116.342" stroke="#0083A6"/>
<ellipse cx="389.5" cy="114" rx="4.5" ry="5" fill="#0083A6"/>
<path d="M121.302 279.203H123.938V288.062C123.938 288.877 123.757 289.598 123.394 290.225C123.036 290.846 122.529 291.326 121.873 291.666C121.217 292.006 120.476 292.176 119.649 292.176C118.296 292.176 117.241 291.833 116.485 291.147C115.729 290.456 115.352 289.48 115.352 288.221H118.006C118.006 288.848 118.138 289.311 118.401 289.609C118.665 289.908 119.081 290.058 119.649 290.058C120.153 290.058 120.555 289.885 120.854 289.539C121.152 289.193 121.302 288.701 121.302 288.062V279.203ZM131.726 291.033C131.099 291.795 130.231 292.176 129.124 292.176C128.104 292.176 127.325 291.883 126.786 291.297C126.253 290.711 125.98 289.853 125.969 288.722V282.49H128.509V288.634C128.509 289.624 128.96 290.119 129.862 290.119C130.724 290.119 131.315 289.82 131.638 289.223V282.49H134.187V292H131.796L131.726 291.033ZM138.44 282.49L138.52 283.589C139.199 282.739 140.11 282.314 141.253 282.314C142.261 282.314 143.011 282.61 143.503 283.202C143.995 283.794 144.247 284.679 144.259 285.856V292H141.719V285.918C141.719 285.379 141.602 284.989 141.367 284.749C141.133 284.503 140.743 284.38 140.198 284.38C139.483 284.38 138.947 284.685 138.59 285.294V292H136.05V282.49H138.44ZM150.569 292.176C149.175 292.176 148.038 291.748 147.159 290.893C146.286 290.037 145.85 288.897 145.85 287.474V287.228C145.85 286.272 146.034 285.42 146.403 284.67C146.772 283.914 147.294 283.334 147.968 282.93C148.647 282.52 149.421 282.314 150.288 282.314C151.589 282.314 152.611 282.725 153.355 283.545C154.105 284.365 154.48 285.528 154.48 287.034V288.071H148.425C148.507 288.692 148.753 289.19 149.163 289.565C149.579 289.94 150.104 290.128 150.736 290.128C151.715 290.128 152.479 289.773 153.03 289.064L154.278 290.462C153.897 291.001 153.382 291.423 152.731 291.728C152.081 292.026 151.36 292.176 150.569 292.176ZM150.279 284.371C149.775 284.371 149.365 284.541 149.049 284.881C148.738 285.221 148.539 285.707 148.451 286.34H151.984V286.138C151.973 285.575 151.82 285.142 151.527 284.837C151.234 284.526 150.818 284.371 150.279 284.371Z" fill="black"/>
<path d="M308.302 279.203H310.938V288.062C310.938 288.877 310.757 289.598 310.394 290.225C310.036 290.846 309.529 291.326 308.873 291.666C308.217 292.006 307.476 292.176 306.649 292.176C305.296 292.176 304.241 291.833 303.485 291.147C302.729 290.456 302.352 289.48 302.352 288.221H305.006C305.006 288.848 305.138 289.311 305.401 289.609C305.665 289.908 306.081 290.058 306.649 290.058C307.153 290.058 307.555 289.885 307.854 289.539C308.152 289.193 308.302 288.701 308.302 288.062V279.203ZM318.726 291.033C318.099 291.795 317.231 292.176 316.124 292.176C315.104 292.176 314.325 291.883 313.786 291.297C313.253 290.711 312.98 289.853 312.969 288.722V282.49H315.509V288.634C315.509 289.624 315.96 290.119 316.862 290.119C317.724 290.119 318.315 289.82 318.638 289.223V282.49H321.187V292H318.796L318.726 291.033ZM325.783 292H323.234V278.5H325.783V292ZM331.435 288.405L333.192 282.49H335.917L332.094 293.477L331.883 293.978C331.314 295.22 330.377 295.841 329.07 295.841C328.701 295.841 328.326 295.785 327.945 295.674V293.749L328.332 293.758C328.812 293.758 329.17 293.685 329.404 293.538C329.645 293.392 329.832 293.148 329.967 292.809L330.266 292.026L326.935 282.49H329.668L331.435 288.405Z" fill="black"/>
<path d="M54.3394 262H52.9771V252.969L50.2451 253.973V252.742L54.127 251.285H54.3394V262Z" fill="black"/>
<path d="M5.33936 224H3.97705V214.969L1.24512 215.973V214.742L5.12695 213.285H5.33936V224ZM15.9961 219.452C15.9961 221.039 15.7251 222.218 15.1831 222.989C14.6411 223.761 13.7939 224.146 12.6416 224.146C11.5039 224.146 10.6616 223.771 10.1147 223.019C9.56787 222.262 9.28467 221.134 9.26514 219.635V217.826C9.26514 216.258 9.53613 215.094 10.0781 214.332C10.6201 213.57 11.4697 213.189 12.627 213.189C13.7744 213.189 14.6191 213.558 15.1611 214.295C15.7031 215.028 15.9814 216.161 15.9961 217.694V219.452ZM14.6411 217.599C14.6411 216.451 14.48 215.616 14.1577 215.094C13.8354 214.566 13.3252 214.303 12.627 214.303C11.9336 214.303 11.4282 214.564 11.1108 215.086C10.7935 215.609 10.6299 216.412 10.6201 217.496V219.664C10.6201 220.816 10.7861 221.668 11.1182 222.22C11.4551 222.767 11.9629 223.041 12.6416 223.041C13.3105 223.041 13.8062 222.782 14.1284 222.264C14.4556 221.747 14.6265 220.931 14.6411 219.818V217.599Z" fill="black"/>
<path d="M7.87354 175H0.88623V174.026L4.57764 169.924C5.12451 169.304 5.50049 168.801 5.70557 168.416C5.91553 168.025 6.02051 167.622 6.02051 167.207C6.02051 166.65 5.85205 166.194 5.51514 165.837C5.17822 165.481 4.729 165.303 4.16748 165.303C3.49365 165.303 2.96875 165.496 2.59277 165.881C2.22168 166.262 2.03613 166.794 2.03613 167.478H0.681152C0.681152 166.497 0.996094 165.703 1.62598 165.098C2.26074 164.492 3.10791 164.189 4.16748 164.189C5.15869 164.189 5.94238 164.451 6.51855 164.973C7.09473 165.491 7.38281 166.182 7.38281 167.046C7.38281 168.096 6.71387 169.346 5.37598 170.796L2.51953 173.894H7.87354V175ZM15.9961 170.452C15.9961 172.039 15.7251 173.218 15.1831 173.989C14.6411 174.761 13.7939 175.146 12.6416 175.146C11.5039 175.146 10.6616 174.771 10.1147 174.019C9.56787 173.262 9.28467 172.134 9.26514 170.635V168.826C9.26514 167.258 9.53613 166.094 10.0781 165.332C10.6201 164.57 11.4697 164.189 12.627 164.189C13.7744 164.189 14.6191 164.558 15.1611 165.295C15.7031 166.028 15.9814 167.161 15.9961 168.694V170.452ZM14.6411 168.599C14.6411 167.451 14.48 166.616 14.1577 166.094C13.8354 165.566 13.3252 165.303 12.627 165.303C11.9336 165.303 11.4282 165.564 11.1108 166.086C10.7935 166.609 10.6299 167.412 10.6201 168.496V170.664C10.6201 171.816 10.7861 172.668 11.1182 173.22C11.4551 173.767 11.9629 174.041 12.6416 174.041C13.3105 174.041 13.8062 173.782 14.1284 173.264C14.4556 172.747 14.6265 171.931 14.6411 170.818V168.599Z" fill="black"/>
<path d="M2.85645 120.009H3.87451C4.51416 119.999 5.01709 119.831 5.3833 119.503C5.74951 119.176 5.93262 118.734 5.93262 118.178C5.93262 116.928 5.31006 116.303 4.06494 116.303C3.479 116.303 3.01025 116.471 2.65869 116.808C2.31201 117.14 2.13867 117.582 2.13867 118.134H0.783691C0.783691 117.289 1.09131 116.588 1.70654 116.032C2.32666 115.47 3.11279 115.189 4.06494 115.189C5.0708 115.189 5.85938 115.456 6.43066 115.988C7.00195 116.52 7.2876 117.26 7.2876 118.207C7.2876 118.671 7.13623 119.12 6.8335 119.555C6.53564 119.989 6.12793 120.314 5.61035 120.529C6.19629 120.714 6.64795 121.022 6.96533 121.452C7.2876 121.881 7.44873 122.406 7.44873 123.026C7.44873 123.983 7.13623 124.743 6.51123 125.304C5.88623 125.866 5.07324 126.146 4.07227 126.146C3.07129 126.146 2.25586 125.875 1.62598 125.333C1.00098 124.792 0.688477 124.076 0.688477 123.188H2.05078C2.05078 123.749 2.23389 124.198 2.6001 124.535C2.96631 124.872 3.45703 125.041 4.07227 125.041C4.72656 125.041 5.22705 124.87 5.57373 124.528C5.92041 124.186 6.09375 123.695 6.09375 123.056C6.09375 122.436 5.90332 121.959 5.52246 121.627C5.1416 121.295 4.59229 121.125 3.87451 121.115H2.85645V120.009ZM15.9961 121.452C15.9961 123.039 15.7251 124.218 15.1831 124.989C14.6411 125.761 13.7939 126.146 12.6416 126.146C11.5039 126.146 10.6616 125.771 10.1147 125.019C9.56787 124.262 9.28467 123.134 9.26514 121.635V119.826C9.26514 118.258 9.53613 117.094 10.0781 116.332C10.6201 115.57 11.4697 115.189 12.627 115.189C13.7744 115.189 14.6191 115.558 15.1611 116.295C15.7031 117.028 15.9814 118.161 15.9961 119.694V121.452ZM14.6411 119.599C14.6411 118.451 14.48 117.616 14.1577 117.094C13.8354 116.566 13.3252 116.303 12.627 116.303C11.9336 116.303 11.4282 116.564 11.1108 117.086C10.7935 117.609 10.6299 118.412 10.6201 119.496V121.664C10.6201 122.816 10.7861 123.668 11.1182 124.22C11.4551 124.767 11.9629 125.041 12.6416 125.041C13.3105 125.041 13.8062 124.782 14.1284 124.264C14.4556 123.747 14.6265 122.931 14.6411 121.818V119.599Z" fill="black"/>
<path d="M142.339 262H140.977V252.969L138.245 253.973V252.742L142.127 251.285H142.339V262ZM146.932 256.653L147.474 251.336H152.938V252.588H148.624L148.301 255.496C148.824 255.188 149.417 255.035 150.081 255.035C151.053 255.035 151.824 255.357 152.396 256.001C152.967 256.641 153.252 257.508 153.252 258.602C153.252 259.7 152.955 260.567 152.359 261.202C151.768 261.832 150.94 262.146 149.876 262.146C148.934 262.146 148.165 261.885 147.569 261.363C146.973 260.84 146.634 260.118 146.551 259.195H147.833C147.916 259.805 148.133 260.267 148.484 260.579C148.836 260.887 149.3 261.041 149.876 261.041C150.506 261.041 150.999 260.826 151.355 260.396C151.717 259.966 151.897 259.373 151.897 258.616C151.897 257.903 151.702 257.332 151.312 256.902C150.926 256.468 150.411 256.25 149.766 256.25C149.175 256.25 148.711 256.38 148.375 256.639L148.016 256.932L146.932 256.653Z" fill="black"/>
<path d="M345.339 262H343.977V252.969L341.245 253.973V252.742L345.127 251.285H345.339V262ZM349.932 256.653L350.474 251.336H355.938V252.588H351.624L351.301 255.496C351.824 255.188 352.417 255.035 353.081 255.035C354.053 255.035 354.824 255.357 355.396 256.001C355.967 256.641 356.252 257.508 356.252 258.602C356.252 259.7 355.955 260.567 355.359 261.202C354.768 261.832 353.94 262.146 352.876 262.146C351.934 262.146 351.165 261.885 350.569 261.363C349.973 260.84 349.634 260.118 349.551 259.195H350.833C350.916 259.805 351.133 260.267 351.484 260.579C351.836 260.887 352.3 261.041 352.876 261.041C353.506 261.041 353.999 260.826 354.355 260.396C354.717 259.966 354.897 259.373 354.897 258.616C354.897 257.903 354.702 257.332 354.312 256.902C353.926 256.468 353.411 256.25 352.766 256.25C352.175 256.25 351.711 256.38 351.375 256.639L351.016 256.932L349.932 256.653Z" fill="black"/>
<path d="M376.413 19.4932H372.985V29H371.586V19.4932H368.166V18.3359H376.413V19.4932ZM376.691 24.9644C376.691 24.188 376.843 23.4897 377.146 22.8696C377.453 22.2495 377.878 21.771 378.42 21.4341C378.967 21.0972 379.589 20.9287 380.288 20.9287C381.367 20.9287 382.238 21.3022 382.902 22.0493C383.571 22.7964 383.906 23.79 383.906 25.0303V25.1255C383.906 25.897 383.757 26.5903 383.459 27.2056C383.166 27.8159 382.744 28.292 382.192 28.6338C381.645 28.9756 381.015 29.1465 380.302 29.1465C379.228 29.1465 378.356 28.7729 377.688 28.0259C377.023 27.2788 376.691 26.29 376.691 25.0596V24.9644ZM378.054 25.1255C378.054 26.0044 378.256 26.71 378.662 27.2422C379.072 27.7744 379.619 28.0405 380.302 28.0405C380.991 28.0405 381.538 27.772 381.943 27.2349C382.348 26.6929 382.551 25.936 382.551 24.9644C382.551 24.0952 382.343 23.3921 381.928 22.855C381.518 22.313 380.971 22.042 380.288 22.042C379.619 22.042 379.079 22.3081 378.669 22.8403C378.259 23.3726 378.054 24.1343 378.054 25.1255ZM385.275 24.9717C385.275 23.7559 385.563 22.7793 386.14 22.042C386.716 21.2998 387.47 20.9287 388.403 20.9287C389.331 20.9287 390.065 21.2461 390.607 21.8809V17.75H391.962V29H390.717L390.651 28.1504C390.109 28.8145 389.355 29.1465 388.388 29.1465C387.47 29.1465 386.721 28.7705 386.14 28.0186C385.563 27.2666 385.275 26.2852 385.275 25.0742V24.9717ZM386.63 25.1255C386.63 26.0239 386.816 26.7271 387.187 27.2349C387.558 27.7427 388.071 27.9966 388.725 27.9966C389.584 27.9966 390.212 27.6108 390.607 26.8394V23.1992C390.202 22.4521 389.58 22.0786 388.74 22.0786C388.076 22.0786 387.558 22.335 387.187 22.8477C386.816 23.3604 386.63 24.1196 386.63 25.1255ZM398.964 29C398.886 28.8438 398.823 28.5654 398.774 28.165C398.144 28.8193 397.392 29.1465 396.518 29.1465C395.737 29.1465 395.095 28.9268 394.592 28.4873C394.094 28.043 393.845 27.4814 393.845 26.8027C393.845 25.9775 394.157 25.3379 394.782 24.8838C395.412 24.4248 396.296 24.1953 397.434 24.1953H398.752V23.5728C398.752 23.0991 398.61 22.7231 398.327 22.4448C398.044 22.1616 397.626 22.02 397.075 22.02C396.591 22.02 396.186 22.1421 395.859 22.3862C395.532 22.6304 395.368 22.9258 395.368 23.2725H394.006C394.006 22.877 394.145 22.4961 394.423 22.1299C394.707 21.7588 395.087 21.4658 395.566 21.251C396.049 21.0361 396.579 20.9287 397.155 20.9287C398.068 20.9287 398.784 21.1582 399.301 21.6172C399.819 22.0713 400.087 22.6987 400.107 23.4995V27.147C400.107 27.8745 400.2 28.4531 400.385 28.8828V29H398.964ZM396.716 27.9673C397.141 27.9673 397.543 27.8574 397.924 27.6377C398.305 27.418 398.581 27.1323 398.752 26.7808V25.1548H397.69C396.03 25.1548 395.2 25.6406 395.2 26.6123C395.2 27.0371 395.341 27.3691 395.625 27.6084C395.908 27.8477 396.271 27.9673 396.716 27.9673ZM404.707 27.0151L406.552 21.0752H408.002L404.816 30.2231C404.323 31.5415 403.54 32.2007 402.465 32.2007L402.209 32.1787L401.704 32.0835V30.9849L402.07 31.0142C402.529 31.0142 402.885 30.9214 403.139 30.7358C403.398 30.5503 403.61 30.2109 403.776 29.7178L404.077 28.9121L401.25 21.0752H402.729L404.707 27.0151ZM369.77 36.3359H371.184V43.8872C371.184 44.9077 370.876 45.7061 370.261 46.2822C369.65 46.8584 368.835 47.1465 367.814 47.1465C366.755 47.1465 365.93 46.8755 365.339 46.3335C364.748 45.7915 364.453 45.0322 364.453 44.0557H365.859C365.859 44.666 366.025 45.1421 366.357 45.4839C366.694 45.8257 367.18 45.9966 367.814 45.9966C368.396 45.9966 368.864 45.8135 369.221 45.4473C369.582 45.0811 369.765 44.5684 369.77 43.9092V36.3359ZM378.259 46.2163C377.731 46.8364 376.958 47.1465 375.937 47.1465C375.092 47.1465 374.448 46.9023 374.003 46.4141C373.564 45.9209 373.342 45.1934 373.337 44.2314V39.0752H374.692V44.1948C374.692 45.396 375.18 45.9966 376.157 45.9966C377.192 45.9966 377.88 45.6108 378.222 44.8394V39.0752H379.577V47H378.288L378.259 46.2163ZM383.115 47H381.76V35.75H383.115V47ZM387.883 45.0151L389.729 39.0752H391.179L387.993 48.2231C387.5 49.5415 386.716 50.2007 385.642 50.2007L385.385 50.1787L384.88 50.0835V48.9849L385.246 49.0142C385.705 49.0142 386.062 48.9214 386.315 48.7358C386.574 48.5503 386.787 48.2109 386.953 47.7178L387.253 46.9121L384.426 39.0752H385.905L387.883 45.0151ZM402.963 47H395.976V46.0259L399.667 41.9243C400.214 41.3042 400.59 40.8013 400.795 40.4155C401.005 40.0249 401.11 39.6221 401.11 39.207C401.11 38.6504 400.942 38.1938 400.605 37.8374C400.268 37.481 399.819 37.3027 399.257 37.3027C398.583 37.3027 398.059 37.4956 397.683 37.8813C397.312 38.2622 397.126 38.7944 397.126 39.478H395.771C395.771 38.4966 396.086 37.7031 396.716 37.0977C397.351 36.4922 398.198 36.1895 399.257 36.1895C400.249 36.1895 401.032 36.4507 401.608 36.9731C402.185 37.4907 402.473 38.1816 402.473 39.0459C402.473 40.0957 401.804 41.3457 400.466 42.7959L397.609 45.894H402.963V47ZM409.716 36.3286V37.4785H409.467C408.413 37.498 407.573 37.8105 406.948 38.416C406.323 39.0215 405.961 39.8735 405.864 40.9722C406.425 40.3276 407.192 40.0054 408.164 40.0054C409.091 40.0054 409.831 40.3325 410.383 40.9868C410.939 41.6411 411.218 42.4858 411.218 43.521C411.218 44.6196 410.917 45.4985 410.317 46.1577C409.721 46.8169 408.92 47.1465 407.915 47.1465C406.894 47.1465 406.066 46.7559 405.432 45.9746C404.797 45.1885 404.479 44.1777 404.479 42.9424V42.4224C404.479 40.4595 404.897 38.9604 405.732 37.9253C406.572 36.8853 407.819 36.353 409.475 36.3286H409.716ZM407.937 41.1333C407.473 41.1333 407.045 41.2725 406.655 41.5508C406.264 41.8291 405.993 42.1782 405.842 42.5981V43.0962C405.842 43.9751 406.04 44.6831 406.435 45.2202C406.831 45.7573 407.324 46.0259 407.915 46.0259C408.525 46.0259 409.003 45.8013 409.35 45.3521C409.702 44.9028 409.877 44.3145 409.877 43.5869C409.877 42.8545 409.699 42.2637 409.343 41.8145C408.991 41.3604 408.522 41.1333 407.937 41.1333ZM366.467 65H359.296V63.7769L362.849 59.9023C363.361 59.3311 363.725 58.855 363.94 58.4741C364.16 58.0884 364.27 57.7026 364.27 57.3169C364.27 56.8091 364.125 56.3989 363.837 56.0864C363.554 55.7739 363.171 55.6177 362.688 55.6177C362.111 55.6177 361.665 55.7935 361.347 56.145C361.03 56.4966 360.871 56.9775 360.871 57.5879H359.091C359.091 56.9385 359.238 56.355 359.531 55.8374C359.829 55.3149 360.251 54.9097 360.798 54.6216C361.35 54.3335 361.984 54.1895 362.702 54.1895C363.737 54.1895 364.553 54.4507 365.148 54.9731C365.749 55.4907 366.049 56.2085 366.049 57.1265C366.049 57.6587 365.898 58.2178 365.595 58.8037C365.297 59.3848 364.807 60.0464 364.123 60.7886L361.516 63.5791H366.467V65ZM372.868 60.5396C372.272 61.1694 371.577 61.4844 370.781 61.4844C369.843 61.4844 369.096 61.1572 368.54 60.5029C367.983 59.8438 367.705 58.9795 367.705 57.9102C367.705 57.207 367.846 56.5698 368.129 55.9985C368.413 55.4272 368.815 54.9829 369.338 54.6655C369.86 54.3481 370.466 54.1895 371.154 54.1895C372.229 54.1895 373.081 54.5898 373.71 55.3906C374.34 56.1914 374.655 57.2632 374.655 58.606V59.104C374.655 61.0278 374.221 62.4951 373.352 63.5059C372.482 64.5166 371.186 65.0293 369.462 65.0439H369.25V63.5718H369.506C370.556 63.5571 371.362 63.3057 371.923 62.8174C372.485 62.3242 372.8 61.5649 372.868 60.5396ZM371.154 60.0928C371.511 60.0928 371.845 59.9902 372.158 59.7852C372.47 59.5801 372.712 59.2969 372.883 58.9355V58.2397C372.883 57.4536 372.722 56.8213 372.399 56.3428C372.077 55.8643 371.66 55.625 371.147 55.625C370.634 55.625 370.224 55.8374 369.917 56.2622C369.614 56.6821 369.462 57.2144 369.462 57.8589C369.462 58.5278 369.616 59.0674 369.924 59.4775C370.231 59.8877 370.642 60.0928 371.154 60.0928ZM382.99 62.7441L384.667 57.0752H386.506L383.759 65H382.214L379.445 57.0752H381.291L382.99 62.7441ZM389.516 65H387.736V57.0752H389.516V65ZM387.626 55.0171C387.626 54.7437 387.712 54.5166 387.883 54.3359C388.059 54.1553 388.308 54.0649 388.63 54.0649C388.952 54.0649 389.201 54.1553 389.377 54.3359C389.553 54.5166 389.641 54.7437 389.641 55.0171C389.641 55.2856 389.553 55.5103 389.377 55.6909C389.201 55.8667 388.952 55.9546 388.63 55.9546C388.308 55.9546 388.059 55.8667 387.883 55.6909C387.712 55.5103 387.626 55.2856 387.626 55.0171ZM394.951 65.1465C393.823 65.1465 392.907 64.7925 392.204 64.0845C391.506 63.3716 391.157 62.4243 391.157 61.2427V61.0229C391.157 60.2319 391.308 59.5264 391.611 58.9062C391.918 58.2812 392.348 57.7954 392.9 57.4487C393.452 57.1021 394.067 56.9287 394.746 56.9287C395.825 56.9287 396.657 57.2729 397.243 57.9614C397.834 58.6499 398.129 59.624 398.129 60.8838V61.6016H392.951C393.005 62.2559 393.222 62.7734 393.603 63.1543C393.989 63.5352 394.472 63.7256 395.053 63.7256C395.869 63.7256 396.533 63.396 397.045 62.7368L398.005 63.6523C397.688 64.126 397.263 64.4946 396.73 64.7583C396.203 65.0171 395.61 65.1465 394.951 65.1465ZM394.738 58.3569C394.25 58.3569 393.854 58.5278 393.552 58.8696C393.254 59.2114 393.063 59.6875 392.98 60.2979H396.372V60.166C396.333 59.5703 396.174 59.1211 395.896 58.8184C395.617 58.5107 395.231 58.3569 394.738 58.3569ZM406.479 62.5464L407.739 57.0752H409.475L407.314 65H405.849L404.15 59.5581L402.48 65H401.015L398.847 57.0752H400.583L401.865 62.4878L403.491 57.0752H404.831L406.479 62.5464ZM415.107 62.8467C415.107 62.5293 414.975 62.2876 414.711 62.1216C414.453 61.9556 414.021 61.8091 413.415 61.6821C412.81 61.5552 412.304 61.394 411.899 61.1987C411.01 60.769 410.566 60.1465 410.566 59.3311C410.566 58.6475 410.854 58.0762 411.43 57.6172C412.006 57.1582 412.739 56.9287 413.627 56.9287C414.575 56.9287 415.339 57.1631 415.92 57.6318C416.506 58.1006 416.799 58.7085 416.799 59.4556H415.019C415.019 59.1138 414.892 58.8306 414.638 58.606C414.384 58.3765 414.047 58.2617 413.627 58.2617C413.237 58.2617 412.917 58.3521 412.668 58.5327C412.424 58.7134 412.302 58.9551 412.302 59.2578C412.302 59.5312 412.417 59.7437 412.646 59.895C412.875 60.0464 413.339 60.2002 414.038 60.3564C414.736 60.5078 415.283 60.6909 415.678 60.9058C416.079 61.1157 416.374 61.3696 416.564 61.6675C416.76 61.9653 416.857 62.3267 416.857 62.7515C416.857 63.4644 416.562 64.043 415.971 64.4873C415.38 64.9268 414.606 65.1465 413.649 65.1465C413 65.1465 412.421 65.0293 411.914 64.7949C411.406 64.5605 411.01 64.2383 410.727 63.8281C410.444 63.418 410.302 62.9761 410.302 62.5024H412.031C412.055 62.9224 412.214 63.2471 412.507 63.4766C412.8 63.7012 413.188 63.8135 413.671 63.8135C414.14 63.8135 414.497 63.7256 414.741 63.5498C414.985 63.3691 415.107 63.1348 415.107 62.8467Z" fill="black"/>
<path d="M240.856 256.009H241.875C242.514 255.999 243.017 255.831 243.383 255.503C243.75 255.176 243.933 254.734 243.933 254.178C243.933 252.928 243.31 252.303 242.065 252.303C241.479 252.303 241.01 252.471 240.659 252.808C240.312 253.14 240.139 253.582 240.139 254.134H238.784C238.784 253.289 239.091 252.588 239.707 252.032C240.327 251.47 241.113 251.189 242.065 251.189C243.071 251.189 243.859 251.456 244.431 251.988C245.002 252.52 245.288 253.26 245.288 254.207C245.288 254.671 245.136 255.12 244.833 255.555C244.536 255.989 244.128 256.314 243.61 256.529C244.196 256.714 244.648 257.022 244.965 257.452C245.288 257.881 245.449 258.406 245.449 259.026C245.449 259.983 245.136 260.743 244.511 261.304C243.886 261.866 243.073 262.146 242.072 262.146C241.071 262.146 240.256 261.875 239.626 261.333C239.001 260.792 238.688 260.076 238.688 259.188H240.051C240.051 259.749 240.234 260.198 240.6 260.535C240.966 260.872 241.457 261.041 242.072 261.041C242.727 261.041 243.227 260.87 243.574 260.528C243.92 260.186 244.094 259.695 244.094 259.056C244.094 258.436 243.903 257.959 243.522 257.627C243.142 257.295 242.592 257.125 241.875 257.115H240.856V256.009ZM253.996 257.452C253.996 259.039 253.725 260.218 253.183 260.989C252.641 261.761 251.794 262.146 250.642 262.146C249.504 262.146 248.662 261.771 248.115 261.019C247.568 260.262 247.285 259.134 247.265 257.635V255.826C247.265 254.258 247.536 253.094 248.078 252.332C248.62 251.57 249.47 251.189 250.627 251.189C251.774 251.189 252.619 251.558 253.161 252.295C253.703 253.028 253.981 254.161 253.996 255.694V257.452ZM252.641 255.599C252.641 254.451 252.48 253.616 252.158 253.094C251.835 252.566 251.325 252.303 250.627 252.303C249.934 252.303 249.428 252.564 249.111 253.086C248.793 253.609 248.63 254.412 248.62 255.496V257.664C248.62 258.816 248.786 259.668 249.118 260.22C249.455 260.767 249.963 261.041 250.642 261.041C251.311 261.041 251.806 260.782 252.128 260.264C252.456 259.747 252.626 258.931 252.641 257.818V255.599Z" fill="black"/>
<defs>
<linearGradient id="paint0_linear" x1="209" y1="74" x2="209" y2="248" gradientUnits="userSpaceOnUse">
<stop offset="0.0628395" stop-color="#4CB9B2"/>
<stop offset="0.666465" stop-color="#7DBDBA" stop-opacity="0.59375"/>
<stop offset="1" stop-color="#C4C4C4" stop-opacity="0"/>
</linearGradient>
</defs>
</svg>