<svg width="60" height="60" viewBox="0 0 60 60" fill="none" xmlns="http://www.w3.org/2000/svg">
<circle cx="30" cy="30" r="30" fill="#F57F17"/>
<path d="M35.0576 13.6528L34.7982 14.3455L31.9447 22.0994H23.9675C23.0493 22.095 22.1491 22.3585 21.3734 22.8586L18.8769 20.2834L17.3838 21.8038L19.9135 24.3441C19.5288 24.9669 19.2855 25.6692 19.2013 26.3998C19.1171 27.1304 19.1942 27.871 19.4269 28.5674L20.1729 30.7783L19.1996 34.5064L19.1675 34.6384V40.0485H21.2427V34.9013L22.2482 31.0412L22.3125 30.7107L22.215 30.4141L21.3724 27.8737C21.283 27.5856 21.2395 27.2848 21.2437 26.9826C21.2404 26.6177 21.3086 26.2558 21.4443 25.918C21.58 25.5802 21.7805 25.2733 22.0341 25.0153C22.2877 24.7573 22.5893 24.5533 22.9212 24.4152C23.2532 24.2771 23.6089 24.2077 23.9675 24.2111H32.3006L35.7704 27.6752V24.7073L33.8892 22.8269L36.0298 16.9861L36.2892 17.382L36.5808 17.8772H38.5264L41.7046 20.3193L40.8288 22.0994H36.8081V28.3024L35.8348 31.2724L35.7704 31.4372V34.9013L36.8081 39.1246V40.0485H38.8833V38.8607L37.8457 34.6374V31.7338L38.819 28.7638L38.8833 28.5991V24.2111H42.1259L44.363 19.6573L43.6501 19.1294L39.2402 15.7645H37.7481L36.7437 14.148L36.4501 13.6528H35.0576ZM24.5838 29.4902L23.319 34.6374V40.0485H25.3942V34.9013L26.2046 31.6019H27.1779C27.5421 31.8489 28.8319 32.6577 30.5823 32.6577H31.62V34.9013L32.6576 39.1246V40.0485H34.7328V38.8607L33.6952 34.6374V30.546H30.5823C29.4793 30.546 28.0526 29.6549 28.0526 29.6549L27.7932 29.4902H24.5838Z" fill="white"/>
</svg>
