<svg width="50" height="50" viewBox="0 0 50 50" fill="none" xmlns="http://www.w3.org/2000/svg">
<path d="M42.187 26.1876V25.0001V23.797L45.187 21.172C45.74 20.6845 46.1029 20.0173 46.2115 19.2882C46.3202 18.5591 46.1676 17.8151 45.7807 17.1876L42.0932 10.9376C41.8192 10.463 41.4252 10.0688 40.9508 9.79456C40.4763 9.52031 39.9381 9.37565 39.3901 9.37509C39.0505 9.37248 38.7127 9.42526 38.3901 9.53134L34.5932 10.8126C33.9377 10.377 33.2539 9.98548 32.5464 9.64071L31.7495 5.70321C31.6066 4.98384 31.2152 4.33765 30.6439 3.87775C30.0726 3.41784 29.3578 3.17353 28.6245 3.18759H21.312C20.5787 3.17353 19.8638 3.41784 19.2925 3.87775C18.7212 4.33765 18.3299 4.98384 18.187 5.70321L17.3901 9.64071C16.6775 9.9854 15.9885 10.3769 15.3276 10.8126L11.6089 9.46884C11.2828 9.38387 10.9451 9.35221 10.6089 9.37509C10.0608 9.37565 9.52262 9.52031 9.04817 9.79456C8.57372 10.0688 8.17973 10.463 7.90573 10.9376L4.21823 17.1876C3.85352 17.8141 3.718 18.548 3.83487 19.2635C3.95174 19.9789 4.31373 20.6315 4.85885 21.1095L7.81198 23.8126V26.2032L4.85885 28.8282C4.29834 29.3095 3.92644 29.9737 3.80916 30.7031C3.69189 31.4325 3.83682 32.1799 4.21823 32.8126L7.90573 39.0626C8.17973 39.5372 8.57372 39.9314 9.04817 40.2056C9.52262 40.4799 10.0608 40.6245 10.6089 40.6251C10.9485 40.6277 11.2862 40.5749 11.6089 40.4688L15.4057 39.1876C16.0613 39.6232 16.7451 40.0147 17.4526 40.3595L18.2495 44.297C18.3924 45.0163 18.7837 45.6625 19.355 46.1224C19.9263 46.5823 20.6412 46.8266 21.3745 46.8126H28.7495C29.4828 46.8266 30.1976 46.5823 30.7689 46.1224C31.3402 45.6625 31.7316 45.0163 31.8745 44.297L32.6714 40.3595C33.384 40.0148 34.073 39.6233 34.7339 39.1876L38.5151 40.4688C38.8377 40.5749 39.1755 40.6277 39.5151 40.6251C40.0631 40.6245 40.6013 40.4799 41.0758 40.2056C41.5502 39.9314 41.9442 39.5372 42.2182 39.0626L45.7807 32.8126C46.1454 32.186 46.281 31.4522 46.1641 30.7367C46.0472 30.0212 45.6852 29.3686 45.1401 28.8907L42.187 26.1876ZM39.3901 37.5001L34.0307 35.6876C32.7761 36.7503 31.3423 37.5809 29.7964 38.1407L28.687 43.7501H21.312L20.2026 38.2032C18.6689 37.6275 17.2428 36.7983 15.9839 35.7501L10.6089 37.5001L6.92135 31.2501L11.1714 27.5001C10.8824 25.8827 10.8824 24.2269 11.1714 22.6095L6.92135 18.7501L10.6089 12.5001L15.9682 14.3126C17.2228 13.2499 18.6567 12.4192 20.2026 11.8595L21.312 6.25009H28.687L29.7964 11.797C31.3301 12.3726 32.7562 13.2019 34.0151 14.2501L39.3901 12.5001L43.0776 18.7501L38.8276 22.5001C39.1165 24.1175 39.1165 25.7733 38.8276 27.3907L43.0776 31.2501L39.3901 37.5001Z" fill="white"/>
<path d="M25 34.375C23.1458 34.375 21.3332 33.8252 19.7915 32.795C18.2498 31.7649 17.0482 30.3007 16.3386 28.5877C15.6291 26.8746 15.4434 24.9896 15.8051 23.171C16.1669 21.3525 17.0598 19.682 18.3709 18.3709C19.682 17.0598 21.3525 16.1669 23.171 15.8051C24.9896 15.4434 26.8746 15.6291 28.5877 16.3386C30.3007 17.0482 31.7649 18.2498 32.795 19.7915C33.8252 21.3332 34.375 23.1458 34.375 25C34.3875 26.2346 34.1536 27.4594 33.6869 28.6024C33.2202 29.7455 32.5301 30.784 31.6571 31.6571C30.784 32.5301 29.7455 33.2202 28.6024 33.6869C27.4594 34.1536 26.2346 34.3875 25 34.375V34.375ZM25 18.75C24.174 18.7308 23.3526 18.8793 22.5857 19.1866C21.8187 19.4938 21.122 19.9535 20.5377 20.5377C19.9535 21.122 19.4938 21.8187 19.1866 22.5857C18.8793 23.3526 18.7308 24.174 18.75 25C18.7308 25.826 18.8793 26.6474 19.1866 27.4144C19.4938 28.1813 19.9535 28.878 20.5377 29.4623C21.122 30.0465 21.8187 30.5062 22.5857 30.8135C23.3526 31.1207 24.174 31.2692 25 31.25C25.826 31.2692 26.6474 31.1207 27.4144 30.8135C28.1813 30.5062 28.878 30.0465 29.4623 29.4623C30.0465 28.878 30.5062 28.1813 30.8135 27.4144C31.1207 26.6474 31.2692 25.826 31.25 25C31.2692 24.174 31.1207 23.3526 30.8135 22.5857C30.5062 21.8187 30.0465 21.122 29.4623 20.5377C28.878 19.9535 28.1813 19.4938 27.4144 19.1866C26.6474 18.8793 25.826 18.7308 25 18.75Z" fill="white"/>
</svg>
