<svg width="375" height="548" viewBox="0 0 375 548" fill="none" xmlns="http://www.w3.org/2000/svg">
<path d="M185.393 1.50034C211.895 -2.47656 238.982 1.49478 263.228 12.9122C287.473 24.3296 307.789 42.6802 321.605 65.6435C335.421 88.6068 342.118 115.151 340.848 141.921C339.578 168.69 330.398 194.481 314.47 216.034L270.882 183.82C280.439 170.889 285.947 155.414 286.709 139.352C287.471 123.291 283.453 107.364 275.163 93.5861C266.873 79.8081 254.684 68.7977 240.137 61.9473C225.589 55.0968 209.337 52.714 193.436 55.1002L185.393 1.50034Z" fill="#4CB9B2"/>
<path fill-rule="evenodd" clip-rule="evenodd" d="M228.127 268.203C263.559 262.202 295.156 242.371 315.967 213.073L271.78 181.686C259.294 199.265 240.336 211.163 219.076 214.764C197.817 218.364 175.998 213.372 158.419 200.886L127.032 245.073C156.33 265.884 192.695 274.204 228.127 268.203Z" fill="#B94C73"/>
<path fill-rule="evenodd" clip-rule="evenodd" d="M84.9243 196.427C94.6803 215.455 108.801 231.904 126.132 244.429L157.879 200.499C147.48 192.985 139.008 183.115 133.154 171.698C127.301 160.282 124.232 147.641 124.2 134.812L70 134.949C70.0541 156.332 75.1683 177.399 84.9243 196.427Z" fill="#F2C34A"/>
<path d="M70 135.5C70 102.17 82.2843 70.0096 104.504 45.1669C126.724 20.3243 157.321 4.54266 190.444 0.839355L196.467 54.7037C176.592 56.9257 158.234 66.3946 144.902 81.3002C131.571 96.2058 124.2 115.502 124.2 135.5H70Z" fill="#6D6ADC"/>
<path d="M155.123 543H143.477V541.376L149.629 534.541C150.541 533.507 151.167 532.669 151.509 532.026C151.859 531.375 152.034 530.703 152.034 530.012C152.034 529.084 151.753 528.323 151.192 527.729C150.63 527.135 149.882 526.838 148.946 526.838C147.823 526.838 146.948 527.159 146.321 527.802C145.703 528.437 145.394 529.324 145.394 530.463H143.135C143.135 528.828 143.66 527.505 144.71 526.496C145.768 525.487 147.18 524.982 148.946 524.982C150.598 524.982 151.904 525.418 152.864 526.289C153.825 527.151 154.305 528.303 154.305 529.743C154.305 531.493 153.19 533.576 150.96 535.993L146.199 541.157H155.123V543ZM164.937 543H162.667V527.949L158.113 529.621V527.57L164.583 525.141H164.937V543ZM191.695 533.515C191.695 534.801 191.312 535.887 190.547 536.774C189.791 537.653 188.855 538.093 187.74 538.093C187.154 538.093 186.6 537.987 186.08 537.775C185.559 537.556 184.952 537.145 184.261 536.542C183.577 535.94 183.085 535.566 182.784 535.419C182.483 535.273 182.161 535.2 181.819 535.2C181.185 535.2 180.696 535.419 180.354 535.859C180.013 536.29 179.842 536.888 179.842 537.653L177.876 537.678C177.876 536.376 178.251 535.306 179 534.467C179.748 533.629 180.688 533.21 181.819 533.21C182.438 533.21 183.032 533.34 183.602 533.601C184.171 533.861 184.814 534.321 185.53 534.98C186.246 535.631 186.865 535.997 187.386 536.079L187.74 536.103C188.358 536.103 188.859 535.867 189.241 535.395C189.632 534.923 189.827 534.3 189.827 533.527L191.695 533.515ZM271.639 535.188C271.167 535.749 270.601 536.201 269.942 536.542C269.291 536.884 268.575 537.055 267.793 537.055C266.768 537.055 265.873 536.803 265.108 536.298C264.351 535.794 263.765 535.086 263.35 534.174C262.935 533.255 262.728 532.242 262.728 531.135C262.728 529.947 262.951 528.876 263.399 527.924C263.855 526.972 264.498 526.244 265.328 525.739C266.158 525.235 267.126 524.982 268.233 524.982C269.991 524.982 271.374 525.642 272.383 526.96C273.401 528.27 273.909 530.061 273.909 532.331V532.99C273.909 536.449 273.226 538.976 271.858 540.571C270.491 542.158 268.428 542.972 265.669 543.012H265.23V541.108H265.706C267.57 541.075 269.002 540.591 270.003 539.655C271.004 538.711 271.549 537.222 271.639 535.188ZM268.16 535.188C268.917 535.188 269.612 534.956 270.247 534.492C270.89 534.028 271.358 533.454 271.651 532.771V531.867C271.651 530.386 271.329 529.182 270.687 528.254C270.044 527.326 269.23 526.862 268.245 526.862C267.252 526.862 266.455 527.245 265.853 528.01C265.25 528.767 264.949 529.768 264.949 531.013C264.949 532.225 265.238 533.226 265.816 534.016C266.402 534.797 267.183 535.188 268.16 535.188ZM283.907 544.526H281.966L289.388 525.227H291.316L283.907 544.526ZM311.373 543H299.727V541.376L305.879 534.541C306.791 533.507 307.417 532.669 307.759 532.026C308.109 531.375 308.284 530.703 308.284 530.012C308.284 529.084 308.003 528.323 307.442 527.729C306.88 527.135 306.132 526.838 305.196 526.838C304.073 526.838 303.198 527.159 302.571 527.802C301.953 528.437 301.644 529.324 301.644 530.463H299.385C299.385 528.828 299.91 527.505 300.96 526.496C302.018 525.487 303.43 524.982 305.196 524.982C306.848 524.982 308.154 525.418 309.114 526.289C310.075 527.151 310.555 528.303 310.555 529.743C310.555 531.493 309.44 533.576 307.21 535.993L302.449 541.157H311.373V543ZM314.803 534.089L315.706 525.227H324.812V527.314H317.623L317.085 532.16C317.956 531.647 318.945 531.391 320.052 531.391C321.671 531.391 322.957 531.928 323.909 533.002C324.861 534.069 325.337 535.513 325.337 537.336C325.337 539.167 324.841 540.611 323.848 541.669C322.863 542.719 321.484 543.244 319.71 543.244C318.139 543.244 316.858 542.809 315.865 541.938C314.872 541.067 314.306 539.863 314.168 538.325H316.304C316.443 539.342 316.805 540.111 317.391 540.632C317.977 541.145 318.75 541.401 319.71 541.401C320.76 541.401 321.582 541.043 322.176 540.327C322.778 539.611 323.079 538.622 323.079 537.36C323.079 536.172 322.754 535.22 322.103 534.504C321.46 533.78 320.601 533.417 319.527 533.417C318.542 533.417 317.769 533.633 317.208 534.064L316.609 534.553L314.803 534.089ZM327.608 528.645C327.608 527.578 327.946 526.7 328.621 526.008C329.305 525.316 330.18 524.97 331.246 524.97C332.328 524.97 333.203 525.32 333.87 526.02C334.546 526.712 334.883 527.611 334.883 528.718V529.584C334.883 530.659 334.542 531.538 333.858 532.221C333.182 532.897 332.32 533.234 331.27 533.234C330.212 533.234 329.337 532.897 328.646 532.221C327.954 531.538 327.608 530.63 327.608 529.499V528.645ZM329.292 529.584C329.292 530.219 329.472 530.744 329.83 531.159C330.188 531.566 330.668 531.77 331.27 531.77C331.848 531.77 332.312 531.57 332.662 531.171C333.02 530.773 333.199 530.227 333.199 529.536V528.645C333.199 528.01 333.024 527.485 332.674 527.07C332.324 526.655 331.848 526.447 331.246 526.447C330.643 526.447 330.167 526.655 329.817 527.07C329.467 527.485 329.292 528.026 329.292 528.693V529.584ZM336.263 538.642C336.263 537.576 336.6 536.701 337.276 536.018C337.959 535.326 338.834 534.98 339.9 534.98C340.966 534.98 341.841 535.322 342.525 536.005C343.208 536.689 343.55 537.596 343.55 538.728V539.594C343.55 540.66 343.208 541.539 342.525 542.231C341.849 542.915 340.983 543.256 339.925 543.256C338.867 543.256 337.992 542.919 337.3 542.243C336.609 541.56 336.263 540.652 336.263 539.521V538.642ZM337.947 539.594C337.947 540.237 338.126 540.766 338.484 541.181C338.842 541.588 339.323 541.792 339.925 541.792C340.511 541.792 340.979 541.592 341.329 541.193C341.679 540.786 341.854 540.237 341.854 539.545V538.642C341.854 537.999 341.674 537.474 341.316 537.067C340.966 536.66 340.494 536.457 339.9 536.457C339.323 536.457 338.851 536.66 338.484 537.067C338.126 537.466 337.947 538.007 337.947 538.691V539.594ZM331.783 541.657L330.501 540.852L339.18 526.96L340.462 527.766L331.783 541.657Z" fill="black"/>
<path d="M150.899 399H148.628V383.949L144.075 385.621V383.57L150.545 381.141H150.899V399ZM160.799 389.015H162.496C163.562 388.998 164.4 388.718 165.01 388.172C165.621 387.627 165.926 386.891 165.926 385.963C165.926 383.88 164.888 382.838 162.813 382.838C161.836 382.838 161.055 383.119 160.469 383.68C159.891 384.234 159.603 384.97 159.603 385.89H157.344C157.344 384.482 157.857 383.314 158.882 382.386C159.916 381.45 161.226 380.982 162.813 380.982C164.489 380.982 165.804 381.426 166.756 382.313C167.708 383.2 168.184 384.433 168.184 386.012C168.184 386.785 167.932 387.534 167.427 388.258C166.931 388.982 166.251 389.523 165.389 389.881C166.365 390.191 167.118 390.703 167.647 391.419C168.184 392.136 168.453 393.01 168.453 394.044C168.453 395.639 167.932 396.904 166.89 397.84C165.848 398.776 164.493 399.244 162.825 399.244C161.157 399.244 159.798 398.792 158.748 397.889C157.706 396.986 157.186 395.794 157.186 394.312H159.456C159.456 395.248 159.761 395.997 160.372 396.559C160.982 397.12 161.8 397.401 162.825 397.401C163.916 397.401 164.75 397.116 165.328 396.546C165.905 395.977 166.194 395.159 166.194 394.093C166.194 393.059 165.877 392.266 165.242 391.712C164.607 391.159 163.692 390.874 162.496 390.858H160.799V389.015ZM182.686 392.372H176.729V390.528H182.686V392.372ZM198.287 399H196.016V383.949L191.463 385.621V383.57L197.933 381.141H198.287V399ZM214.437 393.031H216.902V394.874H214.437V399H212.166V394.874H204.073V393.543L212.032 381.227H214.437V393.031ZM206.636 393.031H212.166V384.315L211.897 384.803L206.636 393.031ZM257.369 399H255.098V383.949L250.545 385.621V383.57L257.015 381.141H257.369V399ZM275.63 399H263.985V397.376L270.137 390.541C271.049 389.507 271.675 388.669 272.017 388.026C272.367 387.375 272.542 386.703 272.542 386.012C272.542 385.084 272.261 384.323 271.7 383.729C271.138 383.135 270.389 382.838 269.454 382.838C268.331 382.838 267.456 383.159 266.829 383.802C266.211 384.437 265.901 385.324 265.901 386.463H263.643C263.643 384.828 264.168 383.505 265.218 382.496C266.276 381.487 267.688 380.982 269.454 380.982C271.106 380.982 272.412 381.418 273.372 382.289C274.332 383.151 274.812 384.303 274.812 385.743C274.812 387.493 273.698 389.576 271.468 391.993L266.707 397.157H275.63V399ZM284.908 400.526H282.967L290.389 381.227H292.317L284.908 400.526ZM304.012 389.015H305.708C306.775 388.998 307.613 388.718 308.223 388.172C308.833 387.627 309.139 386.891 309.139 385.963C309.139 383.88 308.101 382.838 306.026 382.838C305.049 382.838 304.268 383.119 303.682 383.68C303.104 384.234 302.815 384.97 302.815 385.89H300.557C300.557 384.482 301.07 383.314 302.095 382.386C303.129 381.45 304.439 380.982 306.026 380.982C307.702 380.982 309.017 381.426 309.969 382.313C310.921 383.2 311.397 384.433 311.397 386.012C311.397 386.785 311.145 387.534 310.64 388.258C310.144 388.982 309.464 389.523 308.602 389.881C309.578 390.191 310.331 390.703 310.86 391.419C311.397 392.136 311.666 393.01 311.666 394.044C311.666 395.639 311.145 396.904 310.103 397.84C309.061 398.776 307.706 399.244 306.038 399.244C304.37 399.244 303.011 398.792 301.961 397.889C300.919 396.986 300.398 395.794 300.398 394.312H302.669C302.669 395.248 302.974 395.997 303.584 396.559C304.195 397.12 305.013 397.401 306.038 397.401C307.129 397.401 307.963 397.116 308.541 396.546C309.118 395.977 309.407 395.159 309.407 394.093C309.407 393.059 309.09 392.266 308.455 391.712C307.82 391.159 306.905 390.874 305.708 390.858H304.012V389.015ZM315.804 390.089L316.707 381.227H325.813V383.314H318.624L318.086 388.16C318.957 387.647 319.946 387.391 321.053 387.391C322.672 387.391 323.958 387.928 324.91 389.002C325.862 390.069 326.338 391.513 326.338 393.336C326.338 395.167 325.842 396.611 324.849 397.669C323.864 398.719 322.485 399.244 320.711 399.244C319.14 399.244 317.859 398.809 316.866 397.938C315.873 397.067 315.307 395.863 315.169 394.325H317.305C317.444 395.342 317.806 396.111 318.392 396.632C318.978 397.145 319.751 397.401 320.711 397.401C321.761 397.401 322.583 397.043 323.177 396.327C323.779 395.611 324.08 394.622 324.08 393.36C324.08 392.172 323.755 391.22 323.104 390.504C322.461 389.78 321.602 389.417 320.528 389.417C319.543 389.417 318.77 389.633 318.208 390.064L317.61 390.553L315.804 390.089ZM328.609 384.645C328.609 383.578 328.947 382.7 329.622 382.008C330.306 381.316 331.181 380.97 332.247 380.97C333.329 380.97 334.204 381.32 334.871 382.02C335.547 382.712 335.884 383.611 335.884 384.718V385.584C335.884 386.659 335.542 387.538 334.859 388.221C334.183 388.897 333.321 389.234 332.271 389.234C331.213 389.234 330.338 388.897 329.646 388.221C328.955 387.538 328.609 386.63 328.609 385.499V384.645ZM330.293 385.584C330.293 386.219 330.472 386.744 330.831 387.159C331.189 387.566 331.669 387.77 332.271 387.77C332.849 387.77 333.313 387.57 333.663 387.171C334.021 386.773 334.2 386.227 334.2 385.536V384.645C334.2 384.01 334.025 383.485 333.675 383.07C333.325 382.655 332.849 382.447 332.247 382.447C331.644 382.447 331.168 382.655 330.818 383.07C330.468 383.485 330.293 384.026 330.293 384.693V385.584ZM337.264 394.642C337.264 393.576 337.601 392.701 338.277 392.018C338.96 391.326 339.835 390.98 340.901 390.98C341.967 390.98 342.842 391.322 343.526 392.005C344.209 392.689 344.551 393.596 344.551 394.728V395.594C344.551 396.66 344.209 397.539 343.526 398.231C342.85 398.915 341.984 399.256 340.926 399.256C339.868 399.256 338.993 398.919 338.301 398.243C337.61 397.56 337.264 396.652 337.264 395.521V394.642ZM338.948 395.594C338.948 396.237 339.127 396.766 339.485 397.181C339.843 397.588 340.324 397.792 340.926 397.792C341.512 397.792 341.98 397.592 342.33 397.193C342.68 396.786 342.854 396.237 342.854 395.545V394.642C342.854 393.999 342.675 393.474 342.317 393.067C341.967 392.66 341.495 392.457 340.901 392.457C340.324 392.457 339.852 392.66 339.485 393.067C339.127 393.466 338.948 394.007 338.948 394.691V395.594ZM332.784 397.657L331.502 396.852L340.181 382.96L341.463 383.766L332.784 397.657Z" fill="black"/>
<circle cx="92" cy="390" r="10" fill="#4CB9B2"/>
<path d="M150.899 447H148.628V431.949L144.075 433.621V431.57L150.545 429.141H150.899V447ZM158.553 438.089L159.456 429.227H168.562V431.314H161.373L160.835 436.16C161.706 435.647 162.695 435.391 163.802 435.391C165.421 435.391 166.707 435.928 167.659 437.002C168.611 438.069 169.087 439.513 169.087 441.336C169.087 443.167 168.591 444.611 167.598 445.669C166.613 446.719 165.234 447.244 163.46 447.244C161.889 447.244 160.608 446.809 159.615 445.938C158.622 445.067 158.056 443.863 157.918 442.325H160.054C160.193 443.342 160.555 444.111 161.141 444.632C161.727 445.145 162.5 445.401 163.46 445.401C164.51 445.401 165.332 445.043 165.926 444.327C166.528 443.611 166.829 442.622 166.829 441.36C166.829 440.172 166.504 439.22 165.853 438.504C165.21 437.78 164.351 437.417 163.277 437.417C162.292 437.417 161.519 437.633 160.958 438.064L160.359 438.553L158.553 438.089ZM182.686 440.372H176.729V438.528H182.686V440.372ZM198.287 447H196.016V431.949L191.463 433.621V431.57L197.933 429.141H198.287V447ZM216.377 430.496L209.017 447H206.648L213.985 431.082H204.366V429.227H216.377V430.496ZM257.369 447H255.098V431.949L250.545 433.621V431.57L257.015 429.141H257.369V447ZM275.13 439.419C275.13 442.064 274.678 444.03 273.775 445.315C272.872 446.601 271.46 447.244 269.539 447.244C267.643 447.244 266.239 446.618 265.328 445.364C264.416 444.103 263.944 442.223 263.912 439.725V436.709C263.912 434.097 264.363 432.156 265.267 430.887C266.17 429.617 267.586 428.982 269.515 428.982C271.427 428.982 272.835 429.597 273.738 430.826C274.642 432.046 275.105 433.934 275.13 436.49V439.419ZM272.872 436.331C272.872 434.419 272.603 433.027 272.066 432.156C271.529 431.277 270.678 430.838 269.515 430.838C268.359 430.838 267.517 431.273 266.988 432.144C266.459 433.015 266.186 434.354 266.17 436.16V439.773C266.17 441.694 266.447 443.114 267 444.034C267.562 444.945 268.408 445.401 269.539 445.401C270.654 445.401 271.48 444.97 272.017 444.107C272.562 443.244 272.847 441.885 272.872 440.03V436.331ZM284.908 448.526H282.967L290.389 429.227H292.317L284.908 448.526ZM312.374 447H300.728V445.376L306.88 438.541C307.792 437.507 308.418 436.669 308.76 436.026C309.11 435.375 309.285 434.703 309.285 434.012C309.285 433.084 309.004 432.323 308.443 431.729C307.881 431.135 307.133 430.838 306.197 430.838C305.074 430.838 304.199 431.159 303.572 431.802C302.954 432.437 302.645 433.324 302.645 434.463H300.386C300.386 432.828 300.911 431.505 301.961 430.496C303.019 429.487 304.431 428.982 306.197 428.982C307.849 428.982 309.155 429.418 310.115 430.289C311.076 431.151 311.556 432.303 311.556 433.743C311.556 435.493 310.441 437.576 308.211 439.993L303.45 445.157H312.374V447ZM315.804 438.089L316.707 429.227H325.813V431.314H318.624L318.086 436.16C318.957 435.647 319.946 435.391 321.053 435.391C322.672 435.391 323.958 435.928 324.91 437.002C325.862 438.069 326.338 439.513 326.338 441.336C326.338 443.167 325.842 444.611 324.849 445.669C323.864 446.719 322.485 447.244 320.711 447.244C319.14 447.244 317.859 446.809 316.866 445.938C315.873 445.067 315.307 443.863 315.169 442.325H317.305C317.444 443.342 317.806 444.111 318.392 444.632C318.978 445.145 319.751 445.401 320.711 445.401C321.761 445.401 322.583 445.043 323.177 444.327C323.779 443.611 324.08 442.622 324.08 441.36C324.08 440.172 323.755 439.22 323.104 438.504C322.461 437.78 321.602 437.417 320.528 437.417C319.543 437.417 318.77 437.633 318.208 438.064L317.61 438.553L315.804 438.089ZM328.609 432.645C328.609 431.578 328.947 430.7 329.622 430.008C330.306 429.316 331.181 428.97 332.247 428.97C333.329 428.97 334.204 429.32 334.871 430.02C335.547 430.712 335.884 431.611 335.884 432.718V433.584C335.884 434.659 335.542 435.538 334.859 436.221C334.183 436.897 333.321 437.234 332.271 437.234C331.213 437.234 330.338 436.897 329.646 436.221C328.955 435.538 328.609 434.63 328.609 433.499V432.645ZM330.293 433.584C330.293 434.219 330.472 434.744 330.831 435.159C331.189 435.566 331.669 435.77 332.271 435.77C332.849 435.77 333.313 435.57 333.663 435.171C334.021 434.773 334.2 434.227 334.2 433.536V432.645C334.2 432.01 334.025 431.485 333.675 431.07C333.325 430.655 332.849 430.447 332.247 430.447C331.644 430.447 331.168 430.655 330.818 431.07C330.468 431.485 330.293 432.026 330.293 432.693V433.584ZM337.264 442.642C337.264 441.576 337.601 440.701 338.277 440.018C338.96 439.326 339.835 438.98 340.901 438.98C341.967 438.98 342.842 439.322 343.526 440.005C344.209 440.689 344.551 441.596 344.551 442.728V443.594C344.551 444.66 344.209 445.539 343.526 446.231C342.85 446.915 341.984 447.256 340.926 447.256C339.868 447.256 338.993 446.919 338.301 446.243C337.61 445.56 337.264 444.652 337.264 443.521V442.642ZM338.948 443.594C338.948 444.237 339.127 444.766 339.485 445.181C339.843 445.588 340.324 445.792 340.926 445.792C341.512 445.792 341.98 445.592 342.33 445.193C342.68 444.786 342.854 444.237 342.854 443.545V442.642C342.854 441.999 342.675 441.474 342.317 441.067C341.967 440.66 341.495 440.457 340.901 440.457C340.324 440.457 339.852 440.66 339.485 441.067C339.127 441.466 338.948 442.007 338.948 442.691V443.594ZM332.784 445.657L331.502 444.852L340.181 430.96L341.463 431.766L332.784 445.657Z" fill="black"/>
<circle cx="92" cy="438" r="10" fill="#B94C73"/>
<path d="M150.899 495H148.628V479.949L144.075 481.621V479.57L150.545 477.141H150.899V495ZM168.294 481.865C168.294 482.752 168.058 483.542 167.586 484.233C167.122 484.925 166.491 485.466 165.694 485.857C166.622 486.256 167.354 486.838 167.891 487.603C168.436 488.368 168.709 489.234 168.709 490.203C168.709 491.741 168.188 492.965 167.146 493.877C166.113 494.788 164.75 495.244 163.057 495.244C161.348 495.244 159.977 494.788 158.943 493.877C157.918 492.957 157.405 491.733 157.405 490.203C157.405 489.242 157.666 488.376 158.187 487.603C158.715 486.829 159.444 486.243 160.372 485.845C159.582 485.454 158.96 484.913 158.504 484.221C158.048 483.529 157.82 482.744 157.82 481.865C157.82 480.368 158.3 479.18 159.261 478.301C160.221 477.422 161.486 476.982 163.057 476.982C164.62 476.982 165.881 477.422 166.841 478.301C167.81 479.18 168.294 480.368 168.294 481.865ZM166.451 490.154C166.451 489.161 166.133 488.351 165.499 487.725C164.872 487.098 164.05 486.785 163.033 486.785C162.015 486.785 161.198 487.094 160.579 487.712C159.969 488.331 159.664 489.145 159.664 490.154C159.664 491.163 159.961 491.956 160.555 492.534C161.157 493.112 161.991 493.401 163.057 493.401C164.115 493.401 164.945 493.112 165.547 492.534C166.15 491.948 166.451 491.155 166.451 490.154ZM163.057 478.838C162.17 478.838 161.45 479.115 160.896 479.668C160.351 480.213 160.079 480.958 160.079 481.902C160.079 482.805 160.347 483.538 160.884 484.099C161.43 484.653 162.154 484.929 163.057 484.929C163.96 484.929 164.681 484.653 165.218 484.099C165.763 483.538 166.036 482.805 166.036 481.902C166.036 480.999 165.755 480.262 165.193 479.692C164.632 479.123 163.92 478.838 163.057 478.838ZM182.686 488.372H176.729V486.528H182.686V488.372ZM202.51 495H190.865V493.376L197.017 486.541C197.929 485.507 198.555 484.669 198.897 484.026C199.247 483.375 199.422 482.703 199.422 482.012C199.422 481.084 199.141 480.323 198.58 479.729C198.018 479.135 197.269 478.838 196.333 478.838C195.21 478.838 194.336 479.159 193.709 479.802C193.09 480.437 192.781 481.324 192.781 482.463H190.523C190.523 480.828 191.048 479.505 192.098 478.496C193.156 477.487 194.568 476.982 196.333 476.982C197.986 476.982 199.292 477.418 200.252 478.289C201.212 479.151 201.692 480.303 201.692 481.743C201.692 483.493 200.577 485.576 198.348 487.993L193.587 493.157H202.51V495ZM212.325 495H210.054V479.949L205.501 481.621V479.57L211.971 477.141H212.325V495ZM273.824 478.496L266.463 495H264.095L271.431 479.082H261.812V477.227H273.824V478.496ZM289.473 496.526H287.532L294.954 477.227H296.883L289.473 496.526ZM312.715 495H310.445V479.949L305.892 481.621V479.57L312.361 477.141H312.715V495ZM320.369 486.089L321.272 477.227H330.379V479.314H323.189L322.652 484.16C323.523 483.647 324.511 483.391 325.618 483.391C327.238 483.391 328.523 483.928 329.476 485.002C330.428 486.069 330.904 487.513 330.904 489.336C330.904 491.167 330.407 492.611 329.415 493.669C328.43 494.719 327.05 495.244 325.276 495.244C323.706 495.244 322.424 494.809 321.431 493.938C320.438 493.067 319.873 491.863 319.734 490.325H321.871C322.009 491.342 322.371 492.111 322.957 492.632C323.543 493.145 324.316 493.401 325.276 493.401C326.326 493.401 327.148 493.043 327.742 492.327C328.344 491.611 328.646 490.622 328.646 489.36C328.646 488.172 328.32 487.22 327.669 486.504C327.026 485.78 326.167 485.417 325.093 485.417C324.109 485.417 323.335 485.633 322.774 486.064L322.176 486.553L320.369 486.089ZM333.174 480.645C333.174 479.578 333.512 478.7 334.188 478.008C334.871 477.316 335.746 476.97 336.812 476.97C337.894 476.97 338.769 477.32 339.437 478.02C340.112 478.712 340.45 479.611 340.45 480.718V481.584C340.45 482.659 340.108 483.538 339.424 484.221C338.749 484.897 337.886 485.234 336.836 485.234C335.778 485.234 334.904 484.897 334.212 484.221C333.52 483.538 333.174 482.63 333.174 481.499V480.645ZM334.859 481.584C334.859 482.219 335.038 482.744 335.396 483.159C335.754 483.566 336.234 483.77 336.836 483.77C337.414 483.77 337.878 483.57 338.228 483.171C338.586 482.773 338.765 482.227 338.765 481.536V480.645C338.765 480.01 338.59 479.485 338.24 479.07C337.89 478.655 337.414 478.447 336.812 478.447C336.21 478.447 335.734 478.655 335.384 479.07C335.034 479.485 334.859 480.026 334.859 480.693V481.584ZM341.829 490.642C341.829 489.576 342.167 488.701 342.842 488.018C343.526 487.326 344.401 486.98 345.467 486.98C346.533 486.98 347.408 487.322 348.091 488.005C348.775 488.689 349.117 489.596 349.117 490.728V491.594C349.117 492.66 348.775 493.539 348.091 494.231C347.416 494.915 346.549 495.256 345.491 495.256C344.433 495.256 343.558 494.919 342.867 494.243C342.175 493.56 341.829 492.652 341.829 491.521V490.642ZM343.514 491.594C343.514 492.237 343.693 492.766 344.051 493.181C344.409 493.588 344.889 493.792 345.491 493.792C346.077 493.792 346.545 493.592 346.895 493.193C347.245 492.786 347.42 492.237 347.42 491.545V490.642C347.42 489.999 347.241 489.474 346.883 489.067C346.533 488.66 346.061 488.457 345.467 488.457C344.889 488.457 344.417 488.66 344.051 489.067C343.693 489.466 343.514 490.007 343.514 490.691V491.594ZM337.349 493.657L336.067 492.852L344.747 478.96L346.028 479.766L337.349 493.657Z" fill="black"/>
<circle cx="92" cy="486" r="10" fill="#F2C34A"/>
<circle cx="92" cy="534" r="10" fill="#6D6ADC"/>
<path d="M93.6841 334.862H86.7993L85.3589 339H82.1484L88.8623 321.227H91.6333L98.3594 339H95.1367L93.6841 334.862ZM87.666 332.372H92.8174L90.2417 324.999L87.666 332.372ZM99.5801 332.298C99.5801 330.248 100.06 328.612 101.021 327.391C101.989 326.162 103.271 325.548 104.866 325.548C106.371 325.548 107.555 326.073 108.418 327.123L108.552 325.792H111.226V338.597C111.226 340.331 110.684 341.698 109.602 342.699C108.528 343.7 107.075 344.2 105.244 344.2C104.276 344.2 103.328 343.997 102.4 343.59C101.48 343.191 100.78 342.666 100.3 342.015L101.704 340.233C102.616 341.315 103.739 341.856 105.073 341.856C106.058 341.856 106.835 341.588 107.405 341.051C107.974 340.522 108.259 339.741 108.259 338.707V337.816C107.405 338.768 106.265 339.244 104.841 339.244C103.295 339.244 102.03 338.63 101.045 337.401C100.068 336.172 99.5801 334.471 99.5801 332.298ZM102.534 332.555C102.534 333.881 102.803 334.927 103.34 335.692C103.885 336.449 104.638 336.827 105.598 336.827C106.794 336.827 107.681 336.314 108.259 335.289V329.479C107.698 328.478 106.819 327.977 105.623 327.977C104.646 327.977 103.885 328.364 103.34 329.137C102.803 329.91 102.534 331.049 102.534 332.555ZM120.1 339.244C118.22 339.244 116.694 338.654 115.522 337.474C114.359 336.286 113.777 334.707 113.777 332.738V332.372C113.777 331.053 114.029 329.877 114.534 328.844C115.046 327.802 115.763 326.992 116.682 326.415C117.602 325.837 118.627 325.548 119.758 325.548C121.557 325.548 122.944 326.122 123.921 327.269C124.906 328.417 125.398 330.04 125.398 332.14V333.336H116.768C116.857 334.426 117.219 335.289 117.854 335.924C118.497 336.559 119.303 336.876 120.271 336.876C121.63 336.876 122.737 336.327 123.591 335.228L125.19 336.754C124.661 337.543 123.953 338.158 123.066 338.597C122.188 339.028 121.199 339.244 120.1 339.244ZM119.746 327.928C118.932 327.928 118.273 328.213 117.769 328.783C117.272 329.352 116.955 330.146 116.816 331.163H122.468V330.943C122.403 329.951 122.139 329.202 121.675 328.697C121.211 328.185 120.568 327.928 119.746 327.928ZM140.754 332.152H137.312V339H134.224V321.227H140.474C142.524 321.227 144.107 321.686 145.222 322.606C146.337 323.526 146.895 324.856 146.895 326.598C146.895 327.786 146.606 328.783 146.028 329.588C145.458 330.386 144.661 331 143.635 331.432L147.627 338.841V339H144.319L140.754 332.152ZM137.312 329.674H140.486C141.528 329.674 142.341 329.413 142.927 328.893C143.513 328.364 143.806 327.643 143.806 326.732C143.806 325.78 143.534 325.043 142.988 324.522C142.451 324.002 141.646 323.733 140.571 323.717H137.312V329.674ZM157.429 339C157.299 338.748 157.185 338.337 157.087 337.767C156.143 338.752 154.988 339.244 153.621 339.244C152.294 339.244 151.212 338.866 150.374 338.109C149.535 337.352 149.116 336.416 149.116 335.301C149.116 333.893 149.637 332.815 150.679 332.066C151.729 331.31 153.226 330.931 155.171 330.931H156.99V330.064C156.99 329.381 156.799 328.836 156.416 328.429C156.034 328.014 155.452 327.806 154.67 327.806C153.995 327.806 153.442 327.977 153.01 328.319C152.579 328.653 152.363 329.08 152.363 329.601H149.397C149.397 328.876 149.637 328.201 150.117 327.574C150.597 326.939 151.248 326.443 152.07 326.085C152.9 325.727 153.824 325.548 154.841 325.548C156.388 325.548 157.62 325.938 158.54 326.72C159.46 327.493 159.932 328.583 159.956 329.991V335.948C159.956 337.136 160.123 338.084 160.457 338.792V339H157.429ZM154.17 336.864C154.756 336.864 155.305 336.721 155.818 336.437C156.339 336.152 156.729 335.769 156.99 335.289V332.799H155.391C154.292 332.799 153.466 332.99 152.913 333.373C152.359 333.755 152.083 334.296 152.083 334.996C152.083 335.566 152.27 336.021 152.644 336.363C153.027 336.697 153.535 336.864 154.17 336.864ZM165.815 325.792L165.901 327.318C166.877 326.138 168.159 325.548 169.746 325.548C172.497 325.548 173.896 327.123 173.945 330.272V339H170.979V330.443C170.979 329.605 170.796 328.986 170.43 328.587C170.072 328.181 169.482 327.977 168.66 327.977C167.463 327.977 166.572 328.518 165.986 329.601V339H163.02V325.792H165.815ZM176.46 332.298C176.46 330.248 176.94 328.612 177.9 327.391C178.869 326.162 180.151 325.548 181.746 325.548C183.251 325.548 184.435 326.073 185.298 327.123L185.432 325.792H188.105V338.597C188.105 340.331 187.564 341.698 186.482 342.699C185.408 343.7 183.955 344.2 182.124 344.2C181.156 344.2 180.208 343.997 179.28 343.59C178.36 343.191 177.66 342.666 177.18 342.015L178.584 340.233C179.495 341.315 180.618 341.856 181.953 341.856C182.938 341.856 183.715 341.588 184.285 341.051C184.854 340.522 185.139 339.741 185.139 338.707V337.816C184.285 338.768 183.145 339.244 181.721 339.244C180.175 339.244 178.91 338.63 177.925 337.401C176.948 336.172 176.46 334.471 176.46 332.298ZM179.414 332.555C179.414 333.881 179.683 334.927 180.22 335.692C180.765 336.449 181.518 336.827 182.478 336.827C183.674 336.827 184.561 336.314 185.139 335.289V329.479C184.578 328.478 183.699 327.977 182.502 327.977C181.526 327.977 180.765 328.364 180.22 329.137C179.683 329.91 179.414 331.049 179.414 332.555ZM196.98 339.244C195.1 339.244 193.574 338.654 192.402 337.474C191.239 336.286 190.657 334.707 190.657 332.738V332.372C190.657 331.053 190.909 329.877 191.414 328.844C191.926 327.802 192.642 326.992 193.562 326.415C194.482 325.837 195.507 325.548 196.638 325.548C198.437 325.548 199.824 326.122 200.801 327.269C201.785 328.417 202.278 330.04 202.278 332.14V333.336H193.647C193.737 334.426 194.099 335.289 194.734 335.924C195.377 336.559 196.182 336.876 197.151 336.876C198.51 336.876 199.617 336.327 200.471 335.228L202.07 336.754C201.541 337.543 200.833 338.158 199.946 338.597C199.067 339.028 198.079 339.244 196.98 339.244ZM196.626 327.928C195.812 327.928 195.153 328.213 194.648 328.783C194.152 329.352 193.835 330.146 193.696 331.163H199.348V330.943C199.283 329.951 199.019 329.202 198.555 328.697C198.091 328.185 197.448 327.928 196.626 327.928Z" fill="black"/>
<path d="M191.471 108.184H183.244V131H179.887V108.184H171.678V105.406H191.471V108.184ZM192.139 121.314C192.139 119.451 192.502 117.775 193.229 116.287C193.967 114.799 194.986 113.65 196.287 112.842C197.6 112.033 199.094 111.629 200.77 111.629C203.359 111.629 205.451 112.525 207.045 114.318C208.65 116.111 209.453 118.496 209.453 121.473V121.701C209.453 123.553 209.096 125.217 208.381 126.693C207.678 128.158 206.664 129.301 205.34 130.121C204.027 130.941 202.516 131.352 200.805 131.352C198.227 131.352 196.135 130.455 194.529 128.662C192.936 126.869 192.139 124.496 192.139 121.543V121.314ZM195.408 121.701C195.408 123.811 195.895 125.504 196.867 126.781C197.852 128.059 199.164 128.697 200.805 128.697C202.457 128.697 203.77 128.053 204.742 126.764C205.715 125.463 206.201 123.646 206.201 121.314C206.201 119.229 205.703 117.541 204.707 116.252C203.723 114.951 202.41 114.301 200.77 114.301C199.164 114.301 197.869 114.939 196.885 116.217C195.9 117.494 195.408 119.322 195.408 121.701ZM217.943 107.375V111.98H221.494V114.494H217.943V126.289C217.943 127.051 218.102 127.625 218.418 128.012C218.734 128.387 219.273 128.574 220.035 128.574C220.41 128.574 220.926 128.504 221.582 128.363V131C220.727 131.234 219.895 131.352 219.086 131.352C217.633 131.352 216.537 130.912 215.799 130.033C215.061 129.154 214.691 127.906 214.691 126.289V114.494H211.229V111.98H214.691V107.375H217.943ZM237.051 131C236.863 130.625 236.711 129.957 236.594 128.996C235.082 130.566 233.277 131.352 231.18 131.352C229.305 131.352 227.764 130.824 226.557 129.77C225.361 128.703 224.764 127.355 224.764 125.727C224.764 123.746 225.514 122.211 227.014 121.121C228.525 120.02 230.646 119.469 233.377 119.469H236.541V117.975C236.541 116.838 236.201 115.936 235.521 115.268C234.842 114.588 233.84 114.248 232.516 114.248C231.355 114.248 230.383 114.541 229.598 115.127C228.812 115.713 228.42 116.422 228.42 117.254H225.15C225.15 116.305 225.484 115.391 226.152 114.512C226.832 113.621 227.746 112.918 228.895 112.402C230.055 111.887 231.326 111.629 232.709 111.629C234.9 111.629 236.617 112.18 237.859 113.281C239.102 114.371 239.746 115.877 239.793 117.799V126.553C239.793 128.299 240.016 129.688 240.461 130.719V131H237.051ZM231.654 128.521C232.674 128.521 233.641 128.258 234.555 127.73C235.469 127.203 236.131 126.518 236.541 125.674V121.771H233.992C230.008 121.771 228.016 122.938 228.016 125.27C228.016 126.289 228.355 127.086 229.035 127.66C229.715 128.234 230.588 128.521 231.654 128.521ZM248.424 131H245.172V104H248.424V131ZM192.754 157.953H195.461C196.75 157.953 197.705 157.631 198.326 156.986C198.947 156.342 199.258 155.486 199.258 154.42C199.258 153.389 198.947 152.586 198.326 152.012C197.717 151.438 196.873 151.15 195.795 151.15C194.822 151.15 194.008 151.42 193.352 151.959C192.695 152.486 192.367 153.178 192.367 154.033H187.287C187.287 152.697 187.645 151.502 188.359 150.447C189.086 149.381 190.094 148.549 191.383 147.951C192.684 147.354 194.113 147.055 195.672 147.055C198.379 147.055 200.5 147.705 202.035 149.006C203.57 150.295 204.338 152.076 204.338 154.35C204.338 155.521 203.98 156.6 203.266 157.584C202.551 158.568 201.613 159.324 200.453 159.852C201.895 160.367 202.967 161.141 203.67 162.172C204.385 163.203 204.742 164.422 204.742 165.828C204.742 168.102 203.91 169.924 202.246 171.295C200.594 172.666 198.402 173.352 195.672 173.352C193.117 173.352 191.025 172.678 189.396 171.33C187.779 169.982 186.971 168.201 186.971 165.986H192.051C192.051 166.947 192.408 167.732 193.123 168.342C193.85 168.951 194.74 169.256 195.795 169.256C197.002 169.256 197.945 168.939 198.625 168.307C199.316 167.662 199.662 166.812 199.662 165.758C199.662 163.203 198.256 161.926 195.443 161.926H192.754V157.953ZM224.939 154.209C224.939 155.451 224.629 156.553 224.008 157.514C223.387 158.475 222.531 159.242 221.441 159.816C222.684 160.414 223.668 161.24 224.395 162.295C225.121 163.338 225.484 164.568 225.484 165.986C225.484 168.26 224.711 170.059 223.164 171.383C221.617 172.695 219.514 173.352 216.854 173.352C214.193 173.352 212.084 172.689 210.525 171.365C208.967 170.041 208.188 168.248 208.188 165.986C208.188 164.568 208.551 163.332 209.277 162.277C210.004 161.223 210.982 160.402 212.213 159.816C211.123 159.242 210.268 158.475 209.646 157.514C209.037 156.553 208.732 155.451 208.732 154.209C208.732 152.029 209.459 150.295 210.912 149.006C212.365 147.705 214.34 147.055 216.836 147.055C219.32 147.055 221.289 147.699 222.742 148.988C224.207 150.266 224.939 152.006 224.939 154.209ZM220.387 165.617C220.387 164.504 220.064 163.613 219.42 162.945C218.775 162.277 217.908 161.943 216.818 161.943C215.74 161.943 214.879 162.277 214.234 162.945C213.59 163.602 213.268 164.492 213.268 165.617C213.268 166.707 213.584 167.586 214.217 168.254C214.85 168.922 215.729 169.256 216.854 169.256C217.955 169.256 218.816 168.934 219.438 168.289C220.07 167.645 220.387 166.754 220.387 165.617ZM219.859 154.455C219.859 153.459 219.596 152.662 219.068 152.064C218.541 151.455 217.797 151.15 216.836 151.15C215.887 151.15 215.148 151.443 214.621 152.029C214.094 152.615 213.83 153.424 213.83 154.455C213.83 155.475 214.094 156.295 214.621 156.916C215.148 157.537 215.893 157.848 216.854 157.848C217.814 157.848 218.553 157.537 219.068 156.916C219.596 156.295 219.859 155.475 219.859 154.455Z" fill="black"/>
</svg>
