<svg width="384" height="81" viewBox="0 0 384 81" fill="none" xmlns="http://www.w3.org/2000/svg">
<path d="M133.3 65H99.1885V58.2324L115.287 41.0742C117.497 38.6589 119.127 36.5511 120.175 34.751C121.246 32.9508 121.781 31.2419 121.781 29.624C121.781 27.4137 121.223 25.682 120.106 24.4287C118.99 23.1527 117.395 22.5146 115.321 22.5146C113.088 22.5146 111.322 23.2894 110.023 24.8389C108.747 26.3656 108.109 28.3822 108.109 30.8887H98.1973C98.1973 27.8581 98.915 25.0895 100.351 22.583C101.809 20.0765 103.86 18.1169 106.503 16.7041C109.146 15.2686 112.143 14.5508 115.492 14.5508C120.619 14.5508 124.595 15.7812 127.421 18.2422C130.269 20.7031 131.693 24.1781 131.693 28.667C131.693 31.1279 131.055 33.6344 129.779 36.1865C128.503 38.7386 126.316 41.7122 123.217 45.1074L111.903 57.0361H133.3V65ZM173.495 65H139.384V58.2324L155.482 41.0742C157.693 38.6589 159.322 36.5511 160.37 34.751C161.441 32.9508 161.977 31.2419 161.977 29.624C161.977 27.4137 161.418 25.682 160.302 24.4287C159.185 23.1527 157.59 22.5146 155.517 22.5146C153.284 22.5146 151.518 23.2894 150.219 24.8389C148.943 26.3656 148.305 28.3822 148.305 30.8887H138.393C138.393 27.8581 139.11 25.0895 140.546 22.583C142.004 20.0765 144.055 18.1169 146.698 16.7041C149.341 15.2686 152.338 14.5508 155.688 14.5508C160.814 14.5508 164.791 15.7812 167.616 18.2422C170.465 20.7031 171.889 24.1781 171.889 28.667C171.889 31.1279 171.251 33.6344 169.975 36.1865C168.699 38.7386 166.511 41.7122 163.412 45.1074L152.099 57.0361H173.495V65Z" fill="black"/>
<path d="M1.21507 56.1623L11.9209 46.6944C9.19374 43.5689 7.52579 39.677 7.15699 35.4662C6.69736 30.2121 8.31104 25.0938 11.7012 21.0542C15.4627 16.571 20.9794 14 26.8367 14C31.464 14 35.9676 15.6406 39.5176 18.6199C43.5579 22.0089 46.0362 26.7699 46.4954 32.024C46.9551 37.2781 45.341 42.3964 41.9509 46.4367C38.1897 50.9192 32.6738 53.4902 26.8168 53.4902C23.2291 53.4902 19.7216 52.4927 16.6692 50.6616L9.26314 62.7676L9.19743 62.8592C8.30291 63.9254 7.04659 64.5796 5.66034 64.7007C5.50565 64.7139 5.35171 64.7206 5.19849 64.7206C3.97689 64.7206 2.80511 64.296 1.85817 63.5008C-0.341377 61.6549 -0.630077 58.3626 1.21507 56.1623ZM26.8168 51.978C32.2256 51.978 37.3195 49.6042 40.7924 45.465C43.923 41.7341 45.4134 37.0072 44.9892 32.1554C44.565 27.3037 42.2765 22.9083 38.546 19.7776C35.2673 17.0273 31.1092 15.5122 26.8367 15.5122C21.4276 15.5122 16.3329 17.8867 12.8597 22.0259C9.72905 25.7568 8.23904 30.483 8.6636 35.334C9.08815 40.1858 11.3763 44.5812 15.1069 47.7118C18.3855 50.4629 22.5439 51.978 26.8168 51.978ZM9.3835 59.6732L15.4 49.839C14.9677 49.5326 14.5435 49.2122 14.1352 48.8696C13.7254 48.5262 13.3363 48.1644 12.9594 47.7938L4.32096 55.4247C4.63402 56.0117 5.29596 57.0675 6.44595 58.0326C7.59668 58.9983 8.7511 59.4672 9.3835 59.6732ZM2.83059 62.3431C3.58667 62.9781 4.54469 63.2823 5.52892 63.1944C6.49468 63.1095 7.37148 62.6613 8.00388 61.9281L8.57463 60.9948C7.78238 60.7017 6.62574 60.1568 5.47391 59.1903C4.32318 58.2245 3.58557 57.1805 3.15953 56.451L2.33922 57.1753C1.06777 58.737 1.283 61.0436 2.83059 62.3431Z" fill="#4CB9B2"/>
<path d="M16.0931 24.7394C18.7622 21.5586 22.677 19.7341 26.8332 19.7341C30.117 19.7341 33.313 20.8978 35.8326 23.0124C38.6997 25.418 40.4584 28.796 40.7844 32.5239C41.1104 36.2526 39.9652 39.8846 37.5593 42.7516C34.8905 45.9325 30.9757 47.7569 26.8191 47.7569C23.5353 47.7569 20.339 46.5925 17.8197 44.4779C11.9018 39.5132 11.1276 30.6581 16.0931 24.7394ZM18.7914 43.3202C21.0393 45.2059 23.8901 46.2448 26.8192 46.2448C30.5275 46.2448 34.02 44.6174 36.4008 41.7799C38.5472 39.2223 39.5691 35.9816 39.2782 32.6561C38.9869 29.3298 37.4182 26.3166 34.8609 24.1702C32.613 22.2844 29.7622 21.2463 26.8332 21.2463C23.1251 21.2463 19.6327 22.8736 17.2515 25.7111C12.8218 30.9911 13.5125 38.89 18.7914 43.3202Z" fill="#4CB9B2"/>
<path d="M216.818 50.1304L221.334 36.2266H224.728L218.332 54H215.341L208.969 36.2266H212.35L216.818 50.1304ZM229.611 54H226.645V40.792H229.611V54ZM226.461 37.3618C226.461 36.9061 226.604 36.5277 226.889 36.2266C227.182 35.9255 227.597 35.7749 228.134 35.7749C228.671 35.7749 229.086 35.9255 229.379 36.2266C229.672 36.5277 229.818 36.9061 229.818 37.3618C229.818 37.8094 229.672 38.1838 229.379 38.4849C229.086 38.7778 228.671 38.9243 228.134 38.9243C227.597 38.9243 227.182 38.7778 226.889 38.4849C226.604 38.1838 226.461 37.8094 226.461 37.3618ZM238.668 54.2441C236.789 54.2441 235.263 53.6541 234.091 52.4741C232.927 51.286 232.345 49.7072 232.345 47.7378V47.3716C232.345 46.0532 232.597 44.8773 233.102 43.8438C233.615 42.8021 234.331 41.9924 235.25 41.4146C236.17 40.8368 237.195 40.5479 238.327 40.5479C240.125 40.5479 241.513 41.1216 242.489 42.269C243.474 43.4165 243.966 45.04 243.966 47.1396V48.3359H235.336C235.425 49.4264 235.788 50.2891 236.422 50.9238C237.065 51.5586 237.871 51.876 238.839 51.876C240.198 51.876 241.305 51.3267 242.16 50.228L243.759 51.7539C243.23 52.5433 242.522 53.1577 241.635 53.5972C240.756 54.0285 239.767 54.2441 238.668 54.2441ZM238.314 42.9282C237.501 42.9282 236.841 43.2131 236.337 43.7827C235.84 44.3524 235.523 45.1458 235.385 46.1631H241.037V45.9434C240.972 44.9505 240.707 44.2018 240.243 43.6973C239.779 43.1846 239.136 42.9282 238.314 42.9282ZM257.882 49.9106L259.982 40.792H262.875L259.274 54H256.833L254 44.9302L251.217 54H248.776L245.163 40.792H248.056L250.192 49.813L252.902 40.792H255.136L257.882 49.9106ZM272.262 50.4111C272.262 49.8822 272.042 49.4793 271.603 49.2026C271.172 48.9259 270.451 48.6818 269.442 48.4702C268.433 48.2586 267.591 47.9901 266.916 47.6646C265.434 46.9484 264.694 45.9108 264.694 44.5518C264.694 43.4124 265.174 42.4603 266.134 41.6953C267.095 40.9303 268.315 40.5479 269.796 40.5479C271.375 40.5479 272.649 40.9385 273.617 41.7197C274.594 42.501 275.082 43.5142 275.082 44.7593H272.116C272.116 44.1896 271.904 43.7176 271.481 43.3433C271.058 42.9608 270.496 42.7695 269.796 42.7695C269.145 42.7695 268.612 42.9201 268.197 43.2212C267.79 43.5223 267.587 43.9251 267.587 44.4297C267.587 44.8854 267.778 45.2394 268.161 45.4917C268.543 45.744 269.316 46.0003 270.48 46.2607C271.644 46.513 272.555 46.8182 273.214 47.1763C273.882 47.5262 274.374 47.9494 274.691 48.4458C275.017 48.9422 275.18 49.5444 275.18 50.2524C275.18 51.4406 274.687 52.4049 273.703 53.1455C272.718 53.8779 271.428 54.2441 269.833 54.2441C268.751 54.2441 267.786 54.0488 266.94 53.6582C266.094 53.2676 265.434 52.7305 264.962 52.0469C264.49 51.3633 264.254 50.6268 264.254 49.8374H267.135C267.176 50.5373 267.44 51.0785 267.929 51.4609C268.417 51.8353 269.064 52.0225 269.87 52.0225C270.651 52.0225 271.245 51.876 271.652 51.583C272.059 51.2819 272.262 50.8913 272.262 50.4111ZM296.396 38.7168H290.854V54H287.79V38.7168H282.296V36.2266H296.396V38.7168ZM295.358 47.2739C295.358 45.98 295.614 44.8162 296.127 43.7827C296.64 42.741 297.36 41.9435 298.288 41.3901C299.215 40.8286 300.281 40.5479 301.486 40.5479C303.268 40.5479 304.713 41.1216 305.819 42.269C306.934 43.4165 307.536 44.9383 307.626 46.8345L307.638 47.5303C307.638 48.8324 307.386 49.9961 306.881 51.0215C306.385 52.0469 305.669 52.8403 304.733 53.4019C303.805 53.9634 302.731 54.2441 301.51 54.2441C299.647 54.2441 298.153 53.6257 297.03 52.3887C295.915 51.1436 295.358 49.4875 295.358 47.4204V47.2739ZM298.324 47.5303C298.324 48.8893 298.605 49.9554 299.167 50.7285C299.728 51.4935 300.509 51.876 301.51 51.876C302.511 51.876 303.288 51.4854 303.842 50.7041C304.403 49.9229 304.684 48.7795 304.684 47.2739C304.684 45.9393 304.395 44.8813 303.817 44.1001C303.248 43.3188 302.471 42.9282 301.486 42.9282C300.517 42.9282 299.748 43.3148 299.179 44.0879C298.609 44.8529 298.324 46.0003 298.324 47.5303ZM309.591 47.2983C309.591 45.2638 310.063 43.6322 311.007 42.4033C311.951 41.1663 313.217 40.5479 314.804 40.5479C316.203 40.5479 317.335 41.0361 318.197 42.0127V35.25H321.164V54H318.478L318.332 52.6328C317.444 53.707 316.26 54.2441 314.779 54.2441C313.233 54.2441 311.98 53.6216 311.02 52.3765C310.067 51.1313 309.591 49.4386 309.591 47.2983ZM312.558 47.5547C312.558 48.8975 312.814 49.9473 313.327 50.7041C313.847 51.4528 314.584 51.8271 315.536 51.8271C316.749 51.8271 317.636 51.286 318.197 50.2036V44.564C317.652 43.506 316.773 42.9771 315.561 42.9771C314.6 42.9771 313.86 43.3595 313.339 44.1245C312.818 44.8813 312.558 46.0247 312.558 47.5547ZM332.15 54C332.02 53.7477 331.906 53.3368 331.808 52.7671C330.864 53.7518 329.708 54.2441 328.341 54.2441C327.015 54.2441 325.932 53.8657 325.094 53.1089C324.256 52.3521 323.837 51.4162 323.837 50.3013C323.837 48.8934 324.358 47.8151 325.399 47.0664C326.449 46.3096 327.947 45.9312 329.892 45.9312H331.71V45.0645C331.71 44.3809 331.519 43.8356 331.137 43.4287C330.754 43.0137 330.172 42.8062 329.391 42.8062C328.716 42.8062 328.162 42.9771 327.731 43.3188C327.3 43.6525 327.084 44.0798 327.084 44.6006H324.118C324.118 43.8763 324.358 43.2008 324.838 42.5742C325.318 41.9395 325.969 41.443 326.791 41.085C327.621 40.7269 328.545 40.5479 329.562 40.5479C331.108 40.5479 332.341 40.9385 333.261 41.7197C334.18 42.4928 334.652 43.5833 334.677 44.9912V50.9482C334.677 52.1364 334.844 53.0845 335.177 53.7925V54H332.15ZM328.891 51.8638C329.477 51.8638 330.026 51.7214 330.539 51.4365C331.059 51.1517 331.45 50.7692 331.71 50.2891V47.7988H330.111C329.013 47.7988 328.187 47.9901 327.633 48.3726C327.08 48.755 326.803 49.2962 326.803 49.9961C326.803 50.5658 326.99 51.0215 327.365 51.3633C327.747 51.6969 328.256 51.8638 328.891 51.8638ZM342.208 49.752L344.894 40.792H348.056L342.807 56.002C342.001 58.2236 340.634 59.3345 338.705 59.3345C338.274 59.3345 337.798 59.2612 337.277 59.1147V56.8198L337.838 56.8564C338.587 56.8564 339.149 56.7181 339.523 56.4414C339.905 56.1729 340.207 55.7171 340.426 55.0742L340.854 53.939L336.215 40.792H339.413L342.208 49.752Z" fill="black"/>
</svg>
